SplineFontDB: 3.0
FontName: KAN-KaveriBoldItalic
FullName: KAN Kaveri Bold Italic
FamilyName: KAN Kaveri
Weight: Bold
Copyright: Copyright (c) 2009-2015, NLCI (http://www.nlci.in/fonts/)
Version: 1.0 Wed May 17 15:32:13 1995
ItalicAngle: 12
UnderlinePosition: -290
UnderlineWidth: 20
Ascent: 800
Descent: 200
InvalidEm: 0
LayerCount: 2
Layer: 0 1 "Back" 1
Layer: 1 1 "Fore" 0
XUID: [1021 122 585067096 5556871]
FSType: 0
OS2Version: 0
OS2_WeightWidthSlopeOnly: 0
OS2_UseTypoMetrics: 1
CreationTime: 1250825690
ModificationTime: 1491624240
PfmFamily: 81
TTFWeight: 700
TTFWidth: 5
LineGap: 0
VLineGap: 0
Panose: 5 0 0 0 0 0 0 0 0 0
OS2TypoAscent: -72
OS2TypoAOffset: 1
OS2TypoDescent: -196
OS2TypoDOffset: 1
OS2TypoLinegap: 0
OS2WinAscent: -228
OS2WinAOffset: 1
OS2WinDescent: -104
OS2WinDOffset: 1
HheadAscent: -228
HheadAOffset: 1
HheadDescent: 104
HheadDOffset: 1
OS2SubXSize: 700
OS2SubYSize: 650
OS2SubXOff: 0
OS2SubYOff: 143
OS2SupXSize: 700
OS2SupYSize: 650
OS2SupXOff: 0
OS2SupYOff: 453
OS2StrikeYSize: 50
OS2StrikeYPos: 259
OS2Vendor: 'Alts'
OS2UnicodeRanges: 00000000.00000000.00000000.00000000
Lookup: 262 0 0 "blwm" { "blwm-2sub"  } []
MarkAttachClasses: 1
DEI: 91125
TtTable: prep
NPUSHB
 1
 1
SCANTYPE
PUSHW_1
 511
SCANCTRL
EndTTInstrs
ShortTable: maxp 16
  1
  0
  319
  206
  5
  177
  6
  2
  8
  64
  10
  0
  3
  417
  4
  2
EndShort
LangName: 1033 "" "" "Bold Italic" "NLCI:KAN Kaveri Bold Italic" "" "1.0 Wed May 17 15:32:13 1995"
Encoding: Original
UnicodeInterp: none
NameList: Adobe Glyph List
DisplaySize: -48
AntiAlias: 1
FitToEm: 1
WinInfo: 0 37 14
BeginPrivate: 0
EndPrivate
AnchorClass2: "Sub" "blwm-2sub" "Nukta"""  "s"""  "V""" 
BeginChars: 572 572

StartChar: .notdef
Encoding: 0 -1 0
Width: 500
Flags: W
LayerCount: 2
Fore
SplineSet
31 0 m 1,0,-1
 31 604 l 1,1,-1
 469 604 l 1,2,-1
 469 0 l 1,3,-1
 31 0 l 1,0,-1
438 31 m 1,4,-1
 438 573 l 1,5,-1
 62 573 l 1,6,-1
 62 31 l 1,7,-1
 438 31 l 1,4,-1
EndSplineSet
EndChar

StartChar: exclam
Encoding: 4 33 4
Width: 389
VWidth: 500
Flags: W
LayerCount: 2
Fore
SplineSet
347 631 m 0,0,1
 321 551.5 321 551.5 296 475.5 c 0,2,3
 285.5 443 285.5 443 273.75 408 c 0,4,5
 262 373 262 373 250.75 338.5 c 0,6,7
 239.5 304 239.5 304 228.75 271.75 c 0,8,9
 218 239.5 218 239.5 209 213 c 0,10,-1
 153.5 213 l 0,11,-1
 177 607 l 0,12,13
 177 628.5 177 628.5 185.5 646.25 c 0,14,15
 194 664 194 664 208 676.75 c 0,16,17
 222 689.5 222 689.5 240.25 696.5 c 0,18,19
 258.5 703.5 258.5 703.5 277.5 703.5 c 0,20,21
 315 703.5 315 703.5 331 686 c 0,22,23
 347 668.5 347 668.5 347 631 c 0,0,1
246 66.5 m 0,24,25
 246 49.5 246 49.5 239.25 35 c 0,26,27
 232.5 20.5 232.5 20.5 221 10 c 0,28,29
 209.5 -0.5 209.5 -0.5 194.25 -6.5 c 0,30,31
 179 -12.5 179 -12.5 162 -12.5 c 0,32,33
 145.5 -12.5 145.5 -12.5 131.5 -5.75 c 0,34,35
 117.5 1 117.5 1 107 12.5 c 0,36,37
 96.5 24 96.5 24 90.75 39 c 0,38,39
 85 54 85 54 85 70.5 c 0,40,41
 85 87.5 85 87.5 91 102.25 c 0,42,43
 97 117 97 117 107.5 128.25 c 0,44,45
 118 139.5 118 139.5 132.25 146 c 0,46,47
 146.5 152.5 146.5 152.5 163 152.5 c 0,48,49
 181.5 152.5 181.5 152.5 196.75 145.5 c 0,50,51
 212 138.5 212 138.5 223 126.75 c 0,52,53
 234 115 234 115 240 99.25 c 0,54,55
 246 83.5 246 83.5 246 66.5 c 0,24,25
EndSplineSet
EndChar

StartChar: quotedbl
Encoding: 5 34 5
Width: 385
VWidth: 500
Flags: W
LayerCount: 2
Fore
SplineSet
431 685 m 0,0,1
 431 680 431 680 425.5 662 c 0,2,3
 420 644 420 644 411.25 619 c 0,4,5
 402.5 594 402.5 594 391.75 564.75 c 0,6,7
 381 535.5 381 535.5 371 508.5 c 0,8,9
 361 481.5 361 481.5 353 459.5 c 0,10,11
 345 437.5 345 437.5 341 427 c 0,12,-1
 303 427 l 0,13,-1
 311.5 666.5 l 0,14,15
 312 680.5 312 680.5 318 692.25 c 0,16,17
 324 704 324 704 334 712.5 c 0,18,19
 344 721 344 721 356.5 726 c 0,20,21
 369 731 369 731 382 731 c 0,22,23
 404.5 731 404.5 731 417.75 720 c 0,24,25
 431 709 431 709 431 685 c 0,0,1
230.5 685 m 0,26,27
 230.5 680 230.5 680 225 662 c 0,28,29
 219.5 644 219.5 644 210.75 619 c 0,30,31
 202 594 202 594 191.25 564.75 c 0,32,33
 180.5 535.5 180.5 535.5 170.5 508.5 c 0,34,35
 160.5 481.5 160.5 481.5 152.25 459.5 c 0,36,37
 144 437.5 144 437.5 140.5 427 c 0,38,-1
 102.5 427 l 0,39,-1
 109.5 666.5 l 0,40,41
 110 680.5 110 680.5 116.5 692.25 c 0,42,43
 123 704 123 704 133 712.5 c 0,44,45
 143 721 143 721 155.5 726 c 0,46,47
 168 731 168 731 181 731 c 0,48,49
 203.5 731 203.5 731 217 720 c 0,50,51
 230.5 709 230.5 709 230.5 685 c 0,26,27
EndSplineSet
EndChar

StartChar: numbersign
Encoding: 6 35 6
Width: 759
VWidth: 500
Flags: W
LayerCount: 2
Fore
SplineSet
539.5 424 m 0,0,-1
 495.5 289 l 0,1,-1
 654.5 289 l 0,2,-1
 654.5 224.5 l 0,3,-1
 473 224.5 l 0,4,-1
 395.5 -24.5 l 0,5,-1
 324.5 -7 l 0,6,-1
 400.5 224.5 l 0,7,-1
 272.5 224.5 l 0,8,-1
 192.5 -24.5 l 0,9,-1
 124 -6 l 0,10,-1
 200.5 224.5 l 0,11,-1
 63.5 224.5 l 0,12,-1
 63.5 289 l 0,13,-1
 221 289 l 0,14,-1
 265 424 l 0,15,-1
 113.5 424 l 0,16,-1
 113.5 491.5 l 0,17,-1
 286.5 491.5 l 0,18,-1
 365.5 727 l 0,19,-1
 434 708.5 l 0,20,-1
 358.5 491.5 l 0,21,-1
 491.5 491.5 l 0,22,-1
 567.5 727 l 0,23,-1
 638 707.5 l 0,24,-1
 561 491.5 l 0,25,-1
 695.5 491.5 l 0,26,-1
 695.5 424 l 0,27,-1
 539.5 424 l 0,0,-1
339 424 m 0,28,-1
 294 289 l 0,29,-1
 421 289 l 0,30,-1
 468 424 l 0,31,-1
 339 424 l 0,28,-1
EndSplineSet
EndChar

StartChar: dollar
Encoding: 7 36 7
Width: 612
VWidth: 500
Flags: W
LayerCount: 2
Fore
SplineSet
347 618.5 m 0,0,1
 326 615.5 326 615.5 307.5 605 c 0,2,3
 291.5 595.5 291.5 595.5 276.5 577 c 0,4,5
 261.5 558.5 261.5 558.5 255 525.5 c 0,6,7
 252 510 252 510 252.5 497.25 c 0,8,9
 253 484.5 253 484.5 256.5 474.5 c 0,10,11
 260 464.5 260 464.5 265 457 c 0,12,13
 270 449.5 270 449.5 276 444 c 0,14,15
 289.5 431 289.5 431 309 425 c 0,16,-1
 347 618.5 l 0,0,1
410.5 173 m 0,17,18
 415.5 198.5 415.5 198.5 409.75 216 c 0,19,20
 404 233.5 404 233.5 392.5 245 c 0,21,22
 381 256.5 381 256.5 366.5 263.25 c 0,23,24
 352 270 352 270 340 273.5 c 0,25,-1
 299 66.5 l 0,26,27
 325 70 325 70 347.5 82.5 c 0,28,29
 357 87.5 357 87.5 366.75 95.5 c 0,30,31
 376.5 103.5 376.5 103.5 385 114.25 c 0,32,33
 393.5 125 393.5 125 400 139.5 c 0,34,35
 406.5 154 406.5 154 410.5 173 c 0,17,18
566.5 483.5 m 0,36,-1
 495.5 483.5 l 0,37,-1
 497.5 591 l 0,38,39
 498.5 597 498.5 597 496 599.25 c 0,40,41
 493.5 601.5 493.5 601.5 489.5 603 c 0,42,43
 482 606.5 482 606.5 470 609.75 c 0,44,45
 458 613 458 613 446 615.75 c 0,46,47
 434 618.5 434 618.5 423.5 620 c 0,48,49
 413 621.5 413 621.5 408.5 621.5 c 0,50,-1
 366.5 410.5 l 0,51,52
 382.5 406 382.5 406 404 399.25 c 0,53,54
 425.5 392.5 425.5 392.5 448 382.25 c 0,55,56
 470.5 372 470.5 372 491.75 357.25 c 0,57,58
 513 342.5 513 342.5 527.75 321.75 c 0,59,60
 542.5 301 542.5 301 548.75 273.5 c 0,61,62
 555 246 555 246 548 210 c 0,63,64
 539.5 166 539.5 166 516.25 130.5 c 0,65,66
 493 95 493 95 458.5 68.5 c 0,67,68
 424 42 424 42 379.75 25 c 0,69,70
 335.5 8 335.5 8 285.5 1 c 0,71,-1
 265 -104.5 l 0,72,-1
 205 -104.5 l 0,73,-1
 225.5 0 l 0,74,75
 189.5 1.5 189.5 1.5 154 6 c 0,76,77
 123 10 123 10 87.75 16.5 c 0,78,79
 52.5 23 52.5 23 21.5 34 c 0,80,-1
 56.5 211 l 0,81,-1
 130 211 l 0,82,-1
 127 100.5 l 0,83,-1
 127 93.5 l 0,84,85
 127 91.5 127 91.5 127.75 90.5 c 0,86,87
 128.5 89.5 128.5 89.5 130 88.75 c 0,88,89
 131.5 88 131.5 88 135 86 c 0,90,91
 149.5 77.5 149.5 77.5 167.25 73.25 c 0,92,93
 185 69 185 69 201 66.5 c 0,94,95
 219 64 219 64 237.5 63.5 c 0,96,-1
 281.5 289 l 0,97,98
 263.5 294.5 263.5 294.5 242.5 302 c 0,99,100
 221.5 309.5 221.5 309.5 201 320 c 0,101,102
 180.5 330.5 180.5 330.5 162.5 345.25 c 0,103,104
 144.5 360 144.5 360 132.25 380.25 c 0,105,106
 120 400.5 120 400.5 115.5 427.25 c 0,107,108
 111 454 111 454 118 488.5 c 0,109,110
 124.5 523.5 124.5 523.5 138.75 550.5 c 0,111,112
 153 577.5 153 577.5 171.25 598 c 0,113,114
 189.5 618.5 189.5 618.5 210.75 632.75 c 0,115,116
 232 647 232 647 253 656.5 c 0,117,118
 302.5 679 302.5 679 360.5 684 c 0,119,-1
 376 760 l 0,120,-1
 436 760 l 0,121,-1
 421 684 l 0,122,123
 452.5 684 452.5 684 484.25 679.25 c 0,124,125
 516 674.5 516 674.5 542 669 c 0,126,127
 572 662.5 572 662.5 600 654.5 c 0,128,-1
 566.5 483.5 l 0,36,-1
EndSplineSet
EndChar

StartChar: percent
Encoding: 8 37 8
Width: 921
VWidth: 500
Flags: W
LayerCount: 2
Fore
SplineSet
881.5 267.5 m 0,0,1
 881.5 233.5 881.5 233.5 875.5 199.25 c 0,2,3
 869.5 165 869.5 165 857.25 133.25 c 0,4,5
 845 101.5 845 101.5 826.25 74.25 c 0,6,7
 807.5 47 807.5 47 782.5 26.75 c 0,8,9
 757.5 6.5 757.5 6.5 726 -5 c 0,10,11
 694.5 -16.5 694.5 -16.5 656.5 -16.5 c 0,12,13
 586 -16.5 586 -16.5 551.5 20.5 c 0,14,15
 517 57.5 517 57.5 517 127 c 0,16,17
 517 160.5 517 160.5 523 194.75 c 0,18,19
 529 229 529 229 541 260.75 c 0,20,21
 553 292.5 553 292.5 571.5 320 c 0,22,23
 590 347.5 590 347.5 615 367.75 c 0,24,25
 640 388 640 388 671.5 399.75 c 0,26,27
 703 411.5 703 411.5 741.5 411.5 c 0,28,29
 811.5 411.5 811.5 411.5 846.5 374.25 c 0,30,31
 881.5 337 881.5 337 881.5 267.5 c 0,0,1
231.5 0 m 0,32,-1
 157.5 0 l 0,33,-1
 719 687 l 0,34,-1
 793.5 687 l 0,35,-1
 231.5 0 l 0,32,-1
434 559 m 0,36,37
 434 525 434 525 428 491 c 0,38,39
 422 457 422 457 409.75 425.25 c 0,40,41
 397.5 393.5 397.5 393.5 379 366 c 0,42,43
 360.5 338.5 360.5 338.5 335.75 318.25 c 0,44,45
 311 298 311 298 279.5 286.25 c 0,46,47
 248 274.5 248 274.5 210 274.5 c 0,48,49
 139 274.5 139 274.5 103.75 312.5 c 0,50,51
 68.5 350.5 68.5 350.5 68.5 420 c 0,52,53
 68.5 470.5 68.5 470.5 82.25 521.25 c 0,54,55
 96 572 96 572 124 612.5 c 0,56,57
 152 653 152 653 194.5 678.25 c 0,58,59
 237 703.5 237 703.5 294 703.5 c 0,60,61
 364 703.5 364 703.5 399 666.25 c 0,62,63
 434 629 434 629 434 559 c 0,36,37
774 292 m 0,64,65
 774 302.5 774 302.5 772.5 315 c 0,66,67
 771 327.5 771 327.5 766.5 338.25 c 0,68,69
 762 349 762 349 753.5 356.25 c 0,70,71
 745 363.5 745 363.5 731 363.5 c 0,72,73
 710 363.5 710 363.5 693.75 349 c 0,74,75
 677.5 334.5 677.5 334.5 665 311.75 c 0,76,77
 652.5 289 652.5 289 643.75 260.5 c 0,78,79
 635 232 635 232 629.25 204 c 0,80,81
 623.5 176 623.5 176 621 151.5 c 0,82,83
 618.5 127 618.5 127 618.5 111.5 c 0,84,85
 618.5 99.5 618.5 99.5 620 85.5 c 0,86,87
 621.5 71.5 621.5 71.5 626.5 59.5 c 0,88,89
 631.5 47.5 631.5 47.5 640.75 39.5 c 0,90,91
 650 31.5 650 31.5 665.5 31.5 c 0,92,93
 685.5 31.5 685.5 31.5 701.25 46.75 c 0,94,95
 717 62 717 62 729 86 c 0,96,97
 741 110 741 110 749.75 139.75 c 0,98,99
 758.5 169.5 758.5 169.5 763.75 198.5 c 0,100,101
 769 227.5 769 227.5 771.5 252.5 c 0,102,103
 774 277.5 774 277.5 774 292 c 0,64,65
327.5 582.5 m 0,104,105
 327.5 593.5 327.5 593.5 326 606.5 c 0,106,107
 324.5 619.5 324.5 619.5 320 630.25 c 0,108,109
 315.5 641 315.5 641 307 648.25 c 0,110,111
 298.5 655.5 298.5 655.5 284.5 655.5 c 0,112,113
 263.5 655.5 263.5 655.5 247 641.25 c 0,114,115
 230.5 627 230.5 627 217.75 604.25 c 0,116,117
 205 581.5 205 581.5 196.25 553.25 c 0,118,119
 187.5 525 187.5 525 181.75 497.25 c 0,120,121
 176 469.5 176 469.5 173.5 445 c 0,122,123
 171 420.5 171 420.5 171 405.5 c 0,124,125
 171 393 171 393 172.5 378.5 c 0,126,127
 174 364 174 364 179.25 351.5 c 0,128,129
 184.5 339 184.5 339 193.75 330.75 c 0,130,131
 203 322.5 203 322.5 219 322.5 c 0,132,133
 238.5 322.5 238.5 322.5 254.25 337.75 c 0,134,135
 270 353 270 353 282.25 377.25 c 0,136,137
 294.5 401.5 294.5 401.5 303 431.25 c 0,138,139
 311.5 461 311.5 461 317 489.75 c 0,140,141
 322.5 518.5 322.5 518.5 325 543.5 c 0,142,143
 327.5 568.5 327.5 568.5 327.5 582.5 c 0,104,105
EndSplineSet
EndChar

StartChar: ampersand
Encoding: 9 38 9
Width: 763
VWidth: 500
Flags: W
LayerCount: 2
Fore
SplineSet
654.5 312.5 m 0,0,1
 632.5 268.5 632.5 268.5 600.25 222 c 0,2,3
 568 175.5 568 175.5 529.5 135 c 0,4,5
 548 111 548 111 565 95.5 c 0,6,7
 582 80 582 80 601.25 71 c 0,8,9
 620.5 62 620.5 62 643.25 58.75 c 0,10,11
 666 55.5 666 55.5 695.5 55.5 c 0,12,-1
 695.5 2 l 0,13,14
 658.5 0.5 658.5 0.5 638 -1 c 0,15,16
 617.5 -2.5 617.5 -2.5 603 -3 c 0,17,18
 564 -6 564 -6 525.5 0 c 0,19,20
 500 5.5 500 5.5 478.75 18 c 0,21,22
 457.5 30.5 457.5 30.5 435 54.5 c 0,23,24
 415 41 415 41 392.25 29 c 0,25,26
 369.5 17 369.5 17 342.5 8 c 0,27,28
 315.5 -1 315.5 -1 284.25 -6.25 c 0,29,30
 253 -11.5 253 -11.5 216 -11.5 c 0,31,32
 168 -11.5 168 -11.5 130.25 1.25 c 0,33,34
 92.5 14 92.5 14 66.25 36.75 c 0,35,36
 40 59.5 40 59.5 26.25 91.25 c 0,37,38
 12.5 123 12.5 123 12.5 161 c 0,39,40
 12.5 198.5 12.5 198.5 26.25 229.75 c 0,41,42
 40 261 40 261 63.5 287.5 c 0,43,44
 87 314 87 314 119 336 c 0,45,46
 151 358 151 358 187.5 377 c 0,47,48
 164 408.5 164 408.5 148.5 439.75 c 0,49,50
 133 471 133 471 133 507 c 0,51,52
 133 546.5 133 546.5 150 581.75 c 0,53,54
 167 617 167 617 199.25 643.25 c 0,55,56
 231.5 669.5 231.5 669.5 277.5 685 c 0,57,58
 323.5 700.5 323.5 700.5 382 700.5 c 0,59,60
 425.5 700.5 425.5 700.5 458.75 688.75 c 0,61,62
 492 677 492 677 514.25 657.5 c 0,63,64
 536.5 638 536.5 638 547.75 613 c 0,65,66
 559 588 559 588 559 562 c 0,67,68
 559 526 559 526 544 496.75 c 0,69,70
 529 467.5 529 467.5 501.75 443.5 c 0,71,72
 474.5 419.5 474.5 419.5 436.75 400.25 c 0,73,74
 399 381 399 381 353.5 365.5 c 0,75,-1
 476 207 l 0,76,77
 494.5 231 494.5 231 509 256 c 0,78,79
 523.5 281 523.5 281 533.5 301 c 0,80,81
 534.5 302.5 534.5 302.5 533.5 306.5 c 0,82,83
 532.5 310.5 532.5 310.5 531.5 310.5 c 0,84,-1
 471 320.5 l 0,85,-1
 471 376 l 0,86,-1
 730 376 l 0,87,-1
 730 320.5 l 0,88,-1
 654.5 312.5 l 0,0,1
418 554 m 0,89,90
 418 570.5 418 570.5 415.75 586 c 0,91,92
 413.5 601.5 413.5 601.5 407.25 613.5 c 0,93,94
 401 625.5 401 625.5 390 632.75 c 0,95,96
 379 640 379 640 361.5 640 c 0,97,98
 352.5 640 352.5 640 336.75 634.5 c 0,99,100
 321 629 321 629 305.75 616.5 c 0,101,102
 290.5 604 290.5 604 279 583.5 c 0,103,104
 267.5 563 267.5 563 267.5 533.5 c 0,105,106
 267.5 517.5 267.5 517.5 271.25 501.75 c 0,107,108
 275 486 275 486 281.25 471 c 0,109,110
 287.5 456 287.5 456 296 442 c 0,111,112
 304.5 428 304.5 428 313.5 415.5 c 0,113,114
 337 426.5 337 426.5 356.25 440.25 c 0,115,116
 375.5 454 375.5 454 389.25 470.75 c 0,117,118
 403 487.5 403 487.5 410.5 508 c 0,119,120
 418 528.5 418 528.5 418 554 c 0,89,90
231.5 316.5 m 0,121,122
 199 291 199 291 181 260 c 0,123,124
 163 229 163 229 163 190.5 c 0,125,126
 163 159 163 159 173.75 135.25 c 0,127,128
 184.5 111.5 184.5 111.5 200.5 95.5 c 0,129,130
 216.5 79.5 216.5 79.5 234.75 71.5 c 0,131,132
 253 63.5 253 63.5 268.5 63.5 c 0,133,134
 284.5 63.5 284.5 63.5 298 66.5 c 0,135,136
 311.5 69.5 311.5 69.5 324.75 75.5 c 0,137,138
 338 81.5 338 81.5 352.5 91 c 0,139,140
 367 100.5 367 100.5 385 113.5 c 0,141,-1
 231.5 316.5 l 0,121,122
EndSplineSet
EndChar

StartChar: quotesingle
Encoding: 10 39 10
Width: 179
VWidth: 500
Flags: W
LayerCount: 2
Fore
SplineSet
230.5 685 m 0,0,1
 230.5 677 230.5 677 225 657.75 c 0,2,3
 219.5 638.5 219.5 638.5 210.75 613.25 c 0,4,5
 202 588 202 588 191.25 559.75 c 0,6,7
 180.5 531.5 180.5 531.5 170.5 505.75 c 0,8,9
 160.5 480 160.5 480 152.25 458.75 c 0,10,11
 144 437.5 144 437.5 140.5 427 c 0,12,-1
 102.5 427 l 0,13,-1
 109.5 666.5 l 0,14,15
 110 680.5 110 680.5 116.5 692.25 c 0,16,17
 123 704 123 704 133 712.5 c 0,18,19
 143 721 143 721 155.5 726 c 0,20,21
 168 731 168 731 181 731 c 0,22,23
 203.5 731 203.5 731 217 720 c 0,24,25
 230.5 709 230.5 709 230.5 685 c 0,0,1
EndSplineSet
EndChar

StartChar: parenleft
Encoding: 11 40 11
Width: 434
VWidth: 500
Flags: W
LayerCount: 2
Fore
SplineSet
472 679 m 0,0,1
 433 674 433 674 400.75 653.75 c 0,2,3
 368.5 633.5 368.5 633.5 341.75 602.5 c 0,4,5
 315 571.5 315 571.5 293.75 531.5 c 0,6,7
 272.5 491.5 272.5 491.5 256.5 446.75 c 0,8,9
 240.5 402 240.5 402 229 355 c 0,10,11
 217.5 308 217.5 308 210.25 262.25 c 0,12,13
 203 216.5 203 216.5 199.75 174.75 c 0,14,15
 196.5 133 196.5 133 196.5 99.5 c 0,16,17
 196.5 66 196.5 66 201.5 34 c 0,18,19
 206.5 2 206.5 2 220.25 -24 c 0,20,21
 234 -50 234 -50 258.25 -67.5 c 0,22,23
 282.5 -85 282.5 -85 320.5 -90 c 0,24,-1
 309 -145.5 l 0,25,26
 244.5 -144 244.5 -144 199.5 -121.25 c 0,27,28
 154.5 -98.5 154.5 -98.5 126.25 -60.25 c 0,29,30
 98 -22 98 -22 85.25 29.25 c 0,31,32
 72.5 80.5 72.5 80.5 72.5 139.5 c 0,33,34
 72.5 200.5 72.5 200.5 83 267.5 c 0,35,36
 93.5 334.5 93.5 334.5 115 400 c 0,37,38
 136.5 465.5 136.5 465.5 169.75 525 c 0,39,40
 203 584.5 203 584.5 248.5 630.25 c 0,41,42
 294 676 294 676 352.75 704 c 0,43,44
 411.5 732 411.5 732 483.5 734 c 0,45,-1
 472 679 l 0,0,1
EndSplineSet
EndChar

StartChar: parenright
Encoding: 12 41 12
Width: 434
VWidth: 500
Flags: W
LayerCount: 2
Fore
SplineSet
361.5 449.5 m 0,0,1
 361.5 389 361.5 389 351.25 322 c 0,2,3
 341 255 341 255 319.25 189.5 c 0,4,5
 297.5 124 297.5 124 264.5 64.25 c 0,6,7
 231.5 4.5 231.5 4.5 185.75 -41.5 c 0,8,9
 140 -87.5 140 -87.5 81.5 -115.5 c 0,10,11
 23 -143.5 23 -143.5 -49 -145.5 c 0,12,-1
 -39 -90 l 0,13,14
 0 -85 0 -85 32.5 -64.75 c 0,15,16
 65 -44.5 65 -44.5 91.5 -13.25 c 0,17,18
 118 18 118 18 139.25 58.25 c 0,19,20
 160.5 98.5 160.5 98.5 176.75 143.25 c 0,21,22
 193 188 193 188 204.5 235.25 c 0,23,24
 216 282.5 216 282.5 223.25 328 c 0,25,26
 230.5 373.5 230.5 373.5 234 415.25 c 0,27,28
 237.5 457 237.5 457 237.5 490.5 c 0,29,30
 237.5 524 237.5 524 232.5 555.75 c 0,31,32
 227.5 587.5 227.5 587.5 213.75 613.25 c 0,33,34
 200 639 200 639 175.75 656.5 c 0,35,36
 151.5 674 151.5 674 113.5 679 c 0,37,-1
 125 734 l 0,38,39
 189 732 189 732 234 709.5 c 0,40,41
 279 687 279 687 307.25 649 c 0,42,43
 335.5 611 335.5 611 348.5 559.75 c 0,44,45
 361.5 508.5 361.5 508.5 361.5 449.5 c 0,0,1
EndSplineSet
EndChar

StartChar: asterisk
Encoding: 13 42 13
Width: 512
VWidth: 500
Flags: W
LayerCount: 2
Fore
SplineSet
477 518 m 0,0,-1
 345 519 l 0,1,-1
 339 534.5 l 0,2,-1
 447.5 614.5 l 0,3,-1
 522 584.5 l 0,4,-1
 477 518 l 0,0,-1
328.5 546 m 0,5,-1
 312.5 546 l 0,6,-1
 270.5 674 l 0,7,-1
 320.5 735 l 0,8,-1
 371.5 674 l 0,9,-1
 328.5 546 l 0,5,-1
446.5 346 m 0,10,-1
 367.5 366.5 l 0,11,-1
 326.5 493.5 l 0,12,-1
 340 506 l 0,13,-1
 448.5 426 l 0,14,-1
 446.5 346 l 0,10,-1
297 519 m 0,15,-1
 164 518 l 0,16,-1
 120 584.5 l 0,17,-1
 192.5 614.5 l 0,18,-1
 302 533.5 l 0,19,-1
 297 519 l 0,15,-1
274.5 366.5 m 0,20,-1
 195.5 346 l 0,21,-1
 192.5 426 l 0,22,-1
 302 506 l 0,23,-1
 315.5 493.5 l 0,24,-1
 274.5 366.5 l 0,20,-1
EndSplineSet
EndChar

StartChar: plus
Encoding: 14 43 14
Width: 1024
VWidth: 500
Flags: W
LayerCount: 2
Fore
SplineSet
543.5 275.5 m 0,0,-1
 543.5 0 l 0,1,-1
 480.5 0 l 0,2,-1
 480.5 275.5 l 0,3,-1
 205 275.5 l 0,4,-1
 205 339 l 0,5,-1
 480.5 339 l 0,6,-1
 480.5 614.5 l 0,7,-1
 543.5 614.5 l 0,8,-1
 543.5 339 l 0,9,-1
 819 339 l 0,10,-1
 819 275.5 l 0,11,-1
 543.5 275.5 l 0,0,-1
EndSplineSet
EndChar

StartChar: comma
Encoding: 15 44 15
Width: 328
VWidth: 500
Flags: W
LayerCount: 2
Fore
SplineSet
205 86 m 0,0,1
 205 56 205 56 193.75 25.5 c 0,2,3
 182.5 -5 182.5 -5 163 -34 c 0,4,5
 143.5 -63 143.5 -63 117.75 -88.75 c 0,6,7
 92 -114.5 92 -114.5 63 -134 c 0,8,9
 34 -153.5 34 -153.5 3.25 -165.75 c 0,10,11
 -27.5 -178 -27.5 -178 -56.5 -180 c 0,12,-1
 -47 -130 l 0,13,14
 -18.5 -126 -18.5 -126 6.75 -115 c 0,15,16
 32 -104 32 -104 52 -86.75 c 0,17,18
 72 -69.5 72 -69.5 85.5 -46 c 0,19,20
 99 -22.5 99 -22.5 103.5 7 c 0,21,-1
 41 7 l 0,22,23
 31 16.5 31 16.5 25.75 29 c 0,24,25
 20.5 41.5 20.5 41.5 20.5 55.5 c 0,26,27
 20.5 76 20.5 76 29.25 94.75 c 0,28,29
 38 113.5 38 113.5 52.5 127.75 c 0,30,31
 67 142 67 142 86 150.25 c 0,32,33
 105 158.5 105 158.5 126 158.5 c 0,34,35
 160.5 158.5 160.5 158.5 182.75 140.75 c 0,36,37
 205 123 205 123 205 86 c 0,0,1
EndSplineSet
EndChar

StartChar: hyphen
Encoding: 16 45 16
Width: 356
VWidth: 500
Flags: W
LayerCount: 2
Fore
SplineSet
299 192.5 m 0,0,-1
 30.5 192.5 l 0,1,-1
 52 301 l 0,2,-1
 320.5 301 l 0,3,-1
 299 192.5 l 0,0,-1
EndSplineSet
EndChar

StartChar: period
Encoding: 17 46 17
Width: 325
VWidth: 500
Flags: W
LayerCount: 2
Fore
SplineSet
195.5 72.5 m 0,0,1
 195.5 55 195.5 55 188.75 39.5 c 0,2,3
 182 24 182 24 170.5 12.5 c 0,4,5
 159 1 159 1 143.5 -5.75 c 0,6,7
 128 -12.5 128 -12.5 110.5 -12.5 c 0,8,9
 93 -12.5 93 -12.5 77.25 -5.75 c 0,10,11
 61.5 1 61.5 1 49.75 12.5 c 0,12,13
 38 24 38 24 31.25 39.5 c 0,14,15
 24.5 55 24.5 55 24.5 72.5 c 0,16,17
 24.5 90.5 24.5 90.5 31.25 106 c 0,18,19
 38 121.5 38 121.5 49.75 133.25 c 0,20,21
 61.5 145 61.5 145 77.25 151.75 c 0,22,23
 93 158.5 93 158.5 110.5 158.5 c 0,24,25
 128 158.5 128 158.5 143.5 151.75 c 0,26,27
 159 145 159 145 170.5 133.25 c 0,28,29
 182 121.5 182 121.5 188.75 106 c 0,30,31
 195.5 90.5 195.5 90.5 195.5 72.5 c 0,0,1
EndSplineSet
EndChar

StartChar: slash
Encoding: 18 47 18
Width: 513
VWidth: 500
Flags: W
LayerCount: 2
Fore
SplineSet
80 -95 m 0,0,-1
 0 -95 l 0,1,-1
 432 687 l 0,2,-1
 513 687 l 0,3,-1
 80 -95 l 0,0,-1
EndSplineSet
EndChar

StartChar: zero
Encoding: 19 48 19
Width: 792
VWidth: 500
Flags: W
LayerCount: 2
Fore
SplineSet
702 157 m 0,0,-1
 780 528 l 0,1,2
 784 546 784 546 773.5 557.5 c 0,3,4
 763 569 763 569 744 569 c 0,5,-1
 638 569 l 0,6,7
 623 569 623 569 614 568 c 0,8,9
 605 567 605 567 595.5 559 c 0,10,11
 586 551 586 551 580.5 544 c 0,12,13
 575 537 575 537 574 529 c 0,14,-1
 495 154 l 0,15,16
 491 138 491 138 505.5 127 c 0,17,18
 520 116 520 116 542 116 c 0,19,-1
 648 116 l 0,20,21
 666 116 666 116 682.5 129.5 c 0,22,23
 699 143 699 143 702 157 c 0,0,-1
830 124 m 0,24,25
 825 92 825 92 797 63 c 0,26,27
 782 50 782 50 767.5 38.5 c 0,28,29
 753 27 753 27 737 20 c 0,30,31
 694 2 694 2 659 2 c 0,32,-1
 475 3 l 0,33,34
 412 3 412 3 382 46 c 0,35,36
 356 74 356 74 356 116 c 0,37,38
 356 135 356 135 358 144 c 0,39,-1
 446 562 l 0,40,41
 458 612 458 612 512 648 c 0,42,43
 566 681 566 681 633 681 c 0,44,-1
 795 681 l 0,45,46
 863 681 863 681 895 639 c 0,47,48
 921 613 921 613 921 570 c 0,49,50
 921 552 921 552 917 536 c 0,51,-1
 830 124 l 0,24,25
EndSplineSet
EndChar

StartChar: one
Encoding: 20 49 20
Width: 792
VWidth: 500
Flags: W
LayerCount: 2
Fore
SplineSet
803 0 m 0,0,-1
 409 0 l 0,1,-1
 432 113 l 0,2,-1
 562 113 l 0,3,-1
 651 535 l 0,4,5
 655 551 655 551 651 562 c 0,6,7
 649 564 649 564 642 566 c 0,8,-1
 531 566 l 0,9,-1
 554 679 l 0,10,-1
 687 679 l 0,11,12
 744 679 744 679 770 644 c 0,13,14
 795 616 795 616 795 583 c 0,15,16
 795 568 795 568 793 560 c 0,17,-1
 698 111 l 0,18,-1
 826 111 l 0,19,-1
 803 0 l 0,0,-1
EndSplineSet
EndChar

StartChar: two
Encoding: 21 50 21
Width: 792
VWidth: 500
Flags: W
LayerCount: 2
Fore
SplineSet
803 0 m 0,0,-1
 311 0 l 0,1,-1
 364 250 l 0,2,3
 371 280 371 280 386 301.5 c 0,4,5
 401 323 401 323 431 339 c 0,6,7
 489 376 489 376 554 376 c 0,8,-1
 713 376 l 0,9,10
 722 376 722 376 737 391 c 0,11,12
 749 409 749 409 753 427 c 0,13,-1
 778 544 l 0,14,15
 779 552 779 552 777 560 c 0,16,17
 773 564 773 564 761 564 c 0,18,-1
 603 564 l 0,19,20
 581 564 581 564 567 557 c 0,21,22
 560 555 560 555 558 544 c 0,23,-1
 537 446 l 0,24,-1
 403 446 l 0,25,-1
 431 576 l 0,26,27
 442 623 442 623 486.5 650 c 0,28,29
 531 677 531 677 589 677 c 0,30,-1
 804 677 l 0,31,32
 862 677 862 677 895 644 c 0,33,34
 918 619 918 619 918 583 c 0,35,36
 918 567 918 567 916 559 c 0,37,-1
 887 419 l 0,38,39
 879 377 879 377 850.5 339.5 c 0,40,41
 822 302 822 302 783.5 282 c 0,42,43
 745 262 745 262 708 262 c 0,44,-1
 538 262 l 0,45,46
 513 262 513 262 504 258 c 0,47,-1
 497 256 l 0,48,-1
 467 112 l 0,49,-1
 825 112 l 0,50,-1
 803 0 l 0,0,-1
EndSplineSet
EndChar

StartChar: three
Encoding: 22 51 22
Width: 792
VWidth: 500
Flags: W
LayerCount: 2
Fore
SplineSet
828 116 m 0,0,1
 819 69 819 69 771.5 35 c 0,2,3
 724 1 724 1 673 1 c 0,4,-1
 459 2 l 0,5,6
 402 2 402 2 362 30 c 0,7,8
 333 53 333 53 333 83 c 0,9,10
 333 88 333 88 335 102 c 0,11,-1
 356 204 l 0,12,-1
 490 204 l 0,13,-1
 478 143 l 0,14,15
 476 131 476 131 485 122 c 0,16,17
 494 113 494 113 512 113 c 0,18,-1
 647 113 l 0,19,20
 666 113 666 113 681 123 c 0,21,22
 696 133 696 133 700 151 c 0,23,-1
 723 261 l 0,24,25
 725 275 725 275 717 291 c 0,26,27
 706 302 706 302 685 302 c 0,28,-1
 632 302 l 0,29,-1
 657 415 l 0,30,-1
 701 415 l 0,31,32
 715 415 715 415 721 417 c 0,33,34
 727 419 727 419 741 426 c 0,35,36
 757 430 757 430 758 438 c 0,37,-1
 777 531 l 0,38,39
 779 545 779 545 772 557 c 0,40,41
 765 564 765 564 753 564 c 0,42,-1
 604 564 l 0,43,44
 583 564 583 564 569 557 c 0,45,46
 562 552 562 552 557 537 c 0,47,-1
 546 486 l 0,48,-1
 412 486 l 0,49,-1
 434 591 l 0,50,51
 442 631 442 631 486.5 654.5 c 0,52,53
 531 678 531 678 589 678 c 0,54,-1
 813 678 l 0,55,56
 867 678 867 678 896 643 c 0,57,58
 907 632 907 632 913 617 c 0,59,60
 919 602 919 602 919 584 c 0,61,62
 919 568 919 568 917 560 c 0,63,-1
 896 460 l 0,64,65
 894 445 894 445 884.5 430 c 0,66,67
 875 415 875 415 860 400 c 0,68,69
 851 392 851 392 836.5 383 c 0,70,71
 822 374 822 374 807 366 c 0,72,73
 835 352 835 352 844 331 c 0,74,75
 858 309 858 309 858 284 c 0,76,77
 858 279 858 279 856 260 c 0,78,-1
 828 116 l 0,0,1
EndSplineSet
EndChar

StartChar: four
Encoding: 23 52 23
Width: 792
VWidth: 500
Flags: W
LayerCount: 2
Fore
SplineSet
837 159 m 0,0,-1
 738 159 l 0,1,-1
 705 0 l 0,2,-1
 570 0 l 0,3,-1
 603 159 l 0,4,-1
 420 159 l 0,5,6
 374 159 374 159 344 185 c 0,7,8
 321 204 321 204 321 232 c 0,9,10
 321 243 321 243 322 248 c 0,11,12
 333 289 333 289 365 342 c 0,13,-1
 559 679 l 0,14,-1
 696 679 l 0,15,-1
 488 331 l 0,16,17
 465 289 465 289 463 274 c 0,18,-1
 461 270 l 0,19,-1
 630 270 l 0,20,-1
 718 680 l 0,21,-1
 853 680 l 0,22,-1
 765 270 l 0,23,-1
 864 270 l 0,24,-1
 837 159 l 0,0,-1
EndSplineSet
EndChar

StartChar: five
Encoding: 24 53 24
Width: 792
VWidth: 500
Flags: W
LayerCount: 2
Fore
SplineSet
828 116 m 0,0,1
 817 67 817 67 775 35 c 0,2,3
 733 0 733 0 686 0 c 0,4,-1
 391 0 l 0,5,6
 345 0 345 0 320 29 c 0,7,8
 301 50 301 50 301 77 c 0,9,10
 301 89 301 89 302 96 c 0,11,-1
 327 216 l 0,12,-1
 462 216 l 0,13,-1
 444 138 l 0,14,15
 444 123 444 123 448 121 c 0,16,17
 463 113 463 113 471 113 c 0,18,-1
 671 113 l 0,19,20
 678 113 678 113 686 122.5 c 0,21,22
 694 132 694 132 698 151 c 0,23,-1
 730 300 l 0,24,25
 732 315 732 315 693 315 c 0,26,-1
 345 315 l 0,27,-1
 423 680 l 0,28,-1
 931 680 l 0,29,-1
 908 567 l 0,30,-1
 536 567 l 0,31,-1
 507 430 l 0,32,-1
 754 430 l 0,33,34
 814 430 814 430 844 395 c 0,35,36
 869 370 869 370 869 333 c 0,37,38
 869 326 869 326 867 310 c 0,39,-1
 828 116 l 0,0,1
EndSplineSet
EndChar

StartChar: six
Encoding: 25 54 25
Width: 792
VWidth: 500
Flags: W
LayerCount: 2
Fore
SplineSet
701 156 m 0,0,-1
 729 287 l 0,1,2
 733 299 733 299 720.5 309.5 c 0,3,4
 708 320 708 320 683 320 c 0,5,-1
 499 320 l 0,6,-1
 467 167 l 0,7,8
 462 146 462 146 477 134 c 0,9,10
 492 118 492 118 511 118 c 0,11,-1
 639 118 l 0,12,13
 661 118 661 118 677 130 c 0,14,15
 696 141 696 141 701 156 c 0,0,-1
831 130 m 0,16,17
 817 74 817 74 771 40 c 0,18,19
 746 24 746 24 718 13 c 0,20,21
 690 2 690 2 664 2 c 0,22,-1
 449 3 l 0,23,24
 389 3 389 3 353.5 33 c 0,25,26
 318 63 318 63 318 98 c 0,27,28
 318 103 318 103 320 117 c 0,29,-1
 413 563 l 0,30,31
 428 614 428 614 478 649 c 0,32,33
 531 682 531 682 592 682 c 0,34,-1
 919 682 l 0,35,-1
 896 569 l 0,36,-1
 593 569 l 0,37,38
 571 569 571 569 559.5 560 c 0,39,40
 548 551 548 551 544 536 c 0,41,-1
 523 433 l 0,42,-1
 741 433 l 0,43,44
 808 433 808 433 843 397 c 0,45,46
 871 369 871 369 871 330 c 0,47,48
 871 314 871 314 869 305 c 0,49,-1
 831 130 l 0,16,17
EndSplineSet
EndChar

StartChar: seven
Encoding: 26 55 26
Width: 792
VWidth: 500
Flags: W
LayerCount: 2
Fore
SplineSet
919 553 m 0,0,-1
 548 0 l 0,1,-1
 411 0 l 0,2,-1
 786 558 l 0,3,4
 785 565 785 565 783 567 c 0,5,6
 781 569 781 569 770 569 c 0,7,-1
 546 569 l 0,8,-1
 532 504 l 0,9,-1
 397 504 l 0,10,-1
 434 683 l 0,11,-1
 817 683 l 0,12,13
 873 683 873 683 901 646 c 0,14,15
 922 621 922 621 922 584 c 0,16,17
 922 575 922 575 919 553 c 0,0,-1
EndSplineSet
EndChar

StartChar: eight
Encoding: 27 56 27
Width: 792
VWidth: 500
Flags: W
LayerCount: 2
Fore
SplineSet
700 152 m 0,0,-1
 702 163 l 0,1,2
 707 196 707 196 682 212 c 0,3,-1
 618 269 l 0,4,-1
 513 212 l 0,5,6
 485 194 485 194 484 182 c 0,7,-1
 476 143 l 0,8,9
 475 131 475 131 484.5 122 c 0,10,11
 494 113 494 113 514 113 c 0,12,-1
 644 113 l 0,13,14
 663 113 663 113 678 123 c 0,15,16
 693 133 693 133 700 152 c 0,0,-1
782 541 m 0,17,18
 786 553 786 553 781 562 c 0,19,20
 774 567 774 567 766 567 c 0,21,-1
 598 567 l 0,22,-1
 570 565 l 0,23,-1
 565 561 l 0,24,25
 563 542 563 542 563 538 c 0,26,27
 563 527 563 527 567 523 c 0,28,-1
 653 442 l 0,29,-1
 760 510 l 0,30,31
 778 518 778 518 782 541 c 0,17,18
824 98 m 0,32,33
 816 61 816 61 770 29 c 0,34,35
 723 1 723 1 673 1 c 0,36,-1
 459 2 l 0,37,38
 402 2 402 2 362 30 c 0,39,40
 333 53 333 53 333 83 c 0,41,42
 333 88 333 88 335 102 c 0,43,-1
 360 221 l 0,44,45
 364 244 364 244 415 281 c 0,46,-1
 546 360 l 0,47,-1
 464 435 l 0,48,49
 441 463 441 463 430.5 483 c 0,50,51
 420 503 420 503 422 518 c 0,52,-1
 437 589 l 0,53,54
 445 629 445 629 489.5 652.5 c 0,55,56
 534 676 534 676 592 676 c 0,57,-1
 816 676 l 0,58,59
 872 676 872 676 901 653 c 0,60,61
 929 634 929 634 929 604 c 0,62,63
 929 595 929 595 928 591 c 0,64,-1
 907 492 l 0,65,66
 900 456 900 456 846 426 c 0,67,-1
 713 348 l 0,68,-1
 783 304 l 0,69,70
 854 241 854 241 846 204 c 0,71,-1
 824 98 l 0,32,33
EndSplineSet
EndChar

StartChar: nine
Encoding: 28 57 28
Width: 792
VWidth: 500
Flags: W
LayerCount: 2
Fore
SplineSet
741 365 m 0,0,-1
 777 535 l 0,1,2
 781 549 781 549 769.5 558.5 c 0,3,4
 758 568 758 568 733 568 c 0,5,-1
 595 568 l 0,6,7
 570 568 570 568 557.5 560 c 0,8,9
 545 552 545 552 541 536 c 0,10,-1
 513 404 l 0,11,12
 511 389 511 389 525 382 c 0,13,14
 537 367 537 367 560 367 c 0,15,-1
 741 365 l 0,0,-1
833 138 m 0,16,17
 821 82 821 82 763 41 c 0,18,19
 705 0 705 0 637 0 c 0,20,-1
 325 0 l 0,21,-1
 348 113 l 0,22,-1
 615 113 l 0,23,24
 648 113 648 113 673 126.5 c 0,25,26
 698 140 698 140 700 155 c 0,27,-1
 719 250 l 0,28,-1
 500 250 l 0,29,30
 439 250 439 250 402 285 c 0,31,32
 370 313 370 313 370 349 c 0,33,34
 370 353 370 353 372 367 c 0,35,-1
 415 572 l 0,36,37
 422 601 422 601 450 629 c 0,38,39
 476 652 476 652 515.5 665 c 0,40,41
 555 678 555 678 601 678 c 0,42,-1
 791 678 l 0,43,44
 831 678 831 678 864 662 c 0,45,46
 897 643 897 643 908 617 c 0,47,48
 919 598 919 598 919 575 c 0,49,50
 919 570 919 570 917 554 c 0,51,-1
 833 138 l 0,16,17
EndSplineSet
EndChar

StartChar: colon
Encoding: 29 58 29
Width: 325
VWidth: 500
Flags: W
LayerCount: 2
Fore
SplineSet
265 424 m 0,0,1
 265 406.5 265 406.5 258.5 391 c 0,2,3
 252 375.5 252 375.5 240.5 364 c 0,4,5
 229 352.5 229 352.5 213.5 345.75 c 0,6,7
 198 339 198 339 180 339 c 0,8,9
 162.5 339 162.5 339 146.75 345.75 c 0,10,11
 131 352.5 131 352.5 119.25 364 c 0,12,13
 107.5 375.5 107.5 375.5 100.75 391 c 0,14,15
 94 406.5 94 406.5 94 424 c 0,16,17
 94 441.5 94 441.5 100.75 457.25 c 0,18,19
 107.5 473 107.5 473 119.25 484.75 c 0,20,21
 131 496.5 131 496.5 146.75 503.25 c 0,22,23
 162.5 510 162.5 510 180 510 c 0,24,25
 198 510 198 510 213.5 503.25 c 0,26,27
 229 496.5 229 496.5 240.5 484.75 c 0,28,29
 252 473 252 473 258.5 457.25 c 0,30,31
 265 441.5 265 441.5 265 424 c 0,0,1
195.5 72.5 m 0,32,33
 195.5 55 195.5 55 188.75 39.5 c 0,34,35
 182 24 182 24 170.5 12.5 c 0,36,37
 159 1 159 1 143.5 -5.75 c 0,38,39
 128 -12.5 128 -12.5 110.5 -12.5 c 0,40,41
 93 -12.5 93 -12.5 77.25 -5.75 c 0,42,43
 61.5 1 61.5 1 49.75 12.5 c 0,44,45
 38 24 38 24 31.25 39.5 c 0,46,47
 24.5 55 24.5 55 24.5 72.5 c 0,48,49
 24.5 90.5 24.5 90.5 31.25 106 c 0,50,51
 38 121.5 38 121.5 49.75 133.25 c 0,52,53
 61.5 145 61.5 145 77.25 151.75 c 0,54,55
 93 158.5 93 158.5 110.5 158.5 c 0,56,57
 128 158.5 128 158.5 143.5 151.75 c 0,58,59
 159 145 159 145 170.5 133.25 c 0,60,61
 182 121.5 182 121.5 188.75 106 c 0,62,63
 195.5 90.5 195.5 90.5 195.5 72.5 c 0,32,33
EndSplineSet
EndChar

StartChar: semicolon
Encoding: 30 59 30
Width: 325
VWidth: 500
Flags: W
LayerCount: 2
Fore
SplineSet
265 424 m 0,0,1
 265 406.5 265 406.5 258.5 391 c 0,2,3
 252 375.5 252 375.5 240.5 364 c 0,4,5
 229 352.5 229 352.5 213.5 345.75 c 0,6,7
 198 339 198 339 180 339 c 0,8,9
 162.5 339 162.5 339 146.75 345.75 c 0,10,11
 131 352.5 131 352.5 119.25 364 c 0,12,13
 107.5 375.5 107.5 375.5 100.75 391 c 0,14,15
 94 406.5 94 406.5 94 424 c 0,16,17
 94 441.5 94 441.5 100.75 457.25 c 0,18,19
 107.5 473 107.5 473 119.25 484.75 c 0,20,21
 131 496.5 131 496.5 146.75 503.25 c 0,22,23
 162.5 510 162.5 510 180 510 c 0,24,25
 198 510 198 510 213.5 503.25 c 0,26,27
 229 496.5 229 496.5 240.5 484.75 c 0,28,29
 252 473 252 473 258.5 457.25 c 0,30,31
 265 441.5 265 441.5 265 424 c 0,0,1
205 86 m 0,32,33
 205 56 205 56 193.75 25.5 c 0,34,35
 182.5 -5 182.5 -5 163 -34 c 0,36,37
 143.5 -63 143.5 -63 117.75 -88.75 c 0,38,39
 92 -114.5 92 -114.5 63 -134 c 0,40,41
 34 -153.5 34 -153.5 3.25 -165.75 c 0,42,43
 -27.5 -178 -27.5 -178 -56.5 -180 c 0,44,-1
 -47 -130 l 0,45,46
 -18.5 -126 -18.5 -126 6.75 -115 c 0,47,48
 32 -104 32 -104 52 -86.75 c 0,49,50
 72 -69.5 72 -69.5 85.5 -46 c 0,51,52
 99 -22.5 99 -22.5 103.5 7 c 0,53,-1
 41 7 l 0,54,55
 31 16.5 31 16.5 25.75 29 c 0,56,57
 20.5 41.5 20.5 41.5 20.5 55.5 c 0,58,59
 20.5 76 20.5 76 29.25 94.75 c 0,60,61
 38 113.5 38 113.5 52.5 127.75 c 0,62,63
 67 142 67 142 86 150.25 c 0,64,65
 105 158.5 105 158.5 126 158.5 c 0,66,67
 160.5 158.5 160.5 158.5 182.75 140.75 c 0,68,69
 205 123 205 123 205 86 c 0,32,33
EndSplineSet
EndChar

StartChar: less
Encoding: 31 60 31
Width: 1024
VWidth: 500
Flags: W
LayerCount: 2
Fore
SplineSet
205 275.5 m 0,0,-1
 205 339 l 0,1,-1
 819 574.5 l 0,2,-1
 819 511 l 0,3,-1
 270.5 307 l 0,4,-1
 819 103.5 l 0,5,-1
 819 40 l 0,6,-1
 205 275.5 l 0,0,-1
EndSplineSet
EndChar

StartChar: equal
Encoding: 32 61 32
Width: 1024
VWidth: 500
Flags: W
LayerCount: 2
Fore
SplineSet
205 368.5 m 0,0,-1
 205 432 l 0,1,-1
 819 432 l 0,2,-1
 819 368.5 l 0,3,-1
 205 368.5 l 0,0,-1
205 182.5 m 0,4,-1
 205 246 l 0,5,-1
 819 246 l 0,6,-1
 819 182.5 l 0,7,-1
 205 182.5 l 0,4,-1
EndSplineSet
EndChar

StartChar: greater
Encoding: 33 62 33
Width: 1024
VWidth: 500
Flags: W
LayerCount: 2
Fore
SplineSet
205 40 m 0,0,-1
 205 103.5 l 0,1,-1
 753.5 307 l 0,2,-1
 205 511 l 0,3,-1
 205 574.5 l 0,4,-1
 819 339 l 0,5,-1
 819 275.5 l 0,6,-1
 205 40 l 0,0,-1
EndSplineSet
EndChar

StartChar: question
Encoding: 34 63 34
Width: 548
VWidth: 500
Flags: W
LayerCount: 2
Fore
SplineSet
525.5 547 m 0,0,1
 525.5 512 525.5 512 514.25 481.25 c 0,2,3
 503 450.5 503 450.5 483.25 424 c 0,4,5
 463.5 397.5 463.5 397.5 437.25 375.5 c 0,6,7
 411 353.5 411 353.5 381 336.5 c 0,8,9
 351 319.5 351 319.5 319 307.75 c 0,10,11
 287 296 287 296 256 290 c 0,12,-1
 238.5 203 l 0,13,-1
 169 203 l 0,14,-1
 195.5 339 l 0,15,16
 231.5 346.5 231.5 346.5 265.25 365 c 0,17,18
 299 383.5 299 383.5 325 410.5 c 0,19,20
 351 437.5 351 437.5 366.5 471.25 c 0,21,22
 382 505 382 505 382 543.5 c 0,23,24
 382 569.5 382 569.5 373.25 588 c 0,25,26
 364.5 606.5 364.5 606.5 349.5 618.25 c 0,27,28
 334.5 630 334.5 630 314.25 635.5 c 0,29,30
 294 641 294 641 270.5 641 c 0,31,-1
 210 523.5 l 0,32,33
 209 522.5 209 522.5 205.5 521.25 c 0,34,35
 202 520 202 520 198.25 518.75 c 0,36,37
 194.5 517.5 194.5 517.5 191.25 516.75 c 0,38,39
 188 516 188 516 187.5 516 c 0,40,41
 174.5 516 174.5 516 160.75 517.75 c 0,42,43
 147 519.5 147 519.5 135.75 525 c 0,44,45
 124.5 530.5 124.5 530.5 117 540.5 c 0,46,47
 109.5 550.5 109.5 550.5 109.5 566.5 c 0,48,49
 109.5 591.5 109.5 591.5 120 611.25 c 0,50,51
 130.5 631 130.5 631 148 646.25 c 0,52,53
 165.5 661.5 165.5 661.5 188.25 672.5 c 0,54,55
 211 683.5 211 683.5 235 690.25 c 0,56,57
 259 697 259 697 282.75 700.25 c 0,58,59
 306.5 703.5 306.5 703.5 326.5 703.5 c 0,60,61
 363.5 703.5 363.5 703.5 399.25 694.75 c 0,62,63
 435 686 435 686 463 667 c 0,64,65
 491 648 491 648 508.25 618.5 c 0,66,67
 525.5 589 525.5 589 525.5 547 c 0,0,1
266 66.5 m 0,68,69
 266 49.5 266 49.5 259.25 35 c 0,70,71
 252.5 20.5 252.5 20.5 241 10 c 0,72,73
 229.5 -0.5 229.5 -0.5 214.5 -6.5 c 0,74,75
 199.5 -12.5 199.5 -12.5 182.5 -12.5 c 0,76,77
 165.5 -12.5 165.5 -12.5 151.25 -5.75 c 0,78,79
 137 1 137 1 126.5 12.5 c 0,80,81
 116 24 116 24 110.25 39 c 0,82,83
 104.5 54 104.5 54 104.5 70.5 c 0,84,85
 104.5 87.5 104.5 87.5 110.5 102.25 c 0,86,87
 116.5 117 116.5 117 127 128.25 c 0,88,89
 137.5 139.5 137.5 139.5 152 146 c 0,90,91
 166.5 152.5 166.5 152.5 183.5 152.5 c 0,92,93
 201.5 152.5 201.5 152.5 216.75 145.5 c 0,94,95
 232 138.5 232 138.5 242.75 126.75 c 0,96,97
 253.5 115 253.5 115 259.75 99.25 c 0,98,99
 266 83.5 266 83.5 266 66.5 c 0,68,69
EndSplineSet
EndChar

StartChar: at
Encoding: 35 64 35
Width: 958
VWidth: 500
Flags: W
LayerCount: 2
Fore
SplineSet
583.5 397.5 m 0,0,1
 585 403.5 585 403.5 582.75 412.75 c 0,2,3
 580.5 422 580.5 422 575 430.5 c 0,4,5
 569.5 439 569.5 439 560 445.25 c 0,6,7
 550.5 451.5 550.5 451.5 537.5 451.5 c 0,8,9
 506.5 451.5 506.5 451.5 479.25 435 c 0,10,11
 452 418.5 452 418.5 431.5 389.25 c 0,12,13
 411 360 411 360 399 319.5 c 0,14,15
 387 279 387 279 387 231.5 c 0,16,17
 387 202.5 387 202.5 392.75 182.25 c 0,18,19
 398.5 162 398.5 162 408 149.25 c 0,20,21
 417.5 136.5 417.5 136.5 429 130.75 c 0,22,23
 440.5 125 440.5 125 452.5 125 c 0,24,25
 469 125 469 125 482.25 131.25 c 0,26,27
 495.5 137.5 495.5 137.5 506.25 147 c 0,28,29
 517 156.5 517 156.5 526 167.5 c 0,30,31
 535 178.5 535 178.5 542.5 187.5 c 0,32,-1
 583.5 397.5 l 0,0,1
899 377 m 0,33,34
 899 326 899 326 887.75 282.25 c 0,35,36
 876.5 238.5 876.5 238.5 857.25 202.25 c 0,37,38
 838 166 838 166 812.25 137.75 c 0,39,40
 786.5 109.5 786.5 109.5 757 90.25 c 0,41,42
 727.5 71 727.5 71 696.25 61 c 0,43,44
 665 51 665 51 635 51 c 0,45,46
 611.5 51 611.5 51 595.75 57 c 0,47,48
 580 63 580 63 569.75 72.75 c 0,49,50
 559.5 82.5 559.5 82.5 554.25 95.5 c 0,51,52
 549 108.5 549 108.5 547 123 c 0,53,54
 531 109.5 531 109.5 514.5 96.75 c 0,55,56
 498 84 498 84 480.5 74 c 0,57,58
 463 64 463 64 444.5 58 c 0,59,60
 426 52 426 52 406.5 52 c 0,61,62
 371.5 52 371.5 52 345 64.75 c 0,63,64
 318.5 77.5 318.5 77.5 300.5 100.25 c 0,65,66
 282.5 123 282.5 123 273.25 154 c 0,67,68
 264 185 264 185 264 222 c 0,69,70
 264 279.5 264 279.5 285.25 330.25 c 0,71,72
 306.5 381 306.5 381 343 419.25 c 0,73,74
 379.5 457.5 379.5 457.5 428.75 479.75 c 0,75,76
 478 502 478 502 533.5 502 c 0,77,78
 545.5 502 545.5 502 557.75 499 c 0,79,80
 570 496 570 496 582 491.25 c 0,81,82
 594 486.5 594 486.5 605.25 481 c 0,83,84
 616.5 475.5 616.5 475.5 626.5 471 c 0,85,-1
 640 496.5 l 0,86,-1
 726 496.5 l 0,87,-1
 721 477.5 l 0,88,89
 717.5 462.5 717.5 462.5 712.25 440.5 c 0,90,91
 707 418.5 707 418.5 700.75 391.5 c 0,92,93
 694.5 364.5 694.5 364.5 688 337 c 0,94,95
 673 272.5 673 272.5 654.5 192.5 c 0,96,97
 650.5 175.5 650.5 175.5 648.5 161.5 c 0,98,99
 646.5 147.5 646.5 147.5 648.5 137.5 c 0,100,101
 650.5 127.5 650.5 127.5 657.25 122 c 0,102,103
 664 116.5 664 116.5 678 116.5 c 0,104,105
 688 116.5 688 116.5 702.75 124.25 c 0,106,107
 717.5 132 717.5 132 733.25 147 c 0,108,109
 749 162 749 162 764.5 184.25 c 0,110,111
 780 206.5 780 206.5 792.25 235.25 c 0,112,113
 804.5 264 804.5 264 812.25 299.25 c 0,114,115
 820 334.5 820 334.5 820 376 c 0,116,117
 820 424.5 820 424.5 808.5 463.75 c 0,118,119
 797 503 797 503 777.5 533.5 c 0,120,121
 758 564 758 564 731.25 586.25 c 0,122,123
 704.5 608.5 704.5 608.5 674.5 623 c 0,124,125
 644.5 637.5 644.5 637.5 612 644.5 c 0,126,127
 579.5 651.5 579.5 651.5 548 651.5 c 0,128,129
 494 651.5 494 651.5 444.75 638.25 c 0,130,131
 395.5 625 395.5 625 352.75 600.75 c 0,132,133
 310 576.5 310 576.5 275 541.5 c 0,134,135
 240 506.5 240 506.5 215 462.75 c 0,136,137
 190 419 190 419 176.5 367.75 c 0,138,139
 163 316.5 163 316.5 163 259 c 0,140,141
 163 180 163 180 187.5 113.75 c 0,142,143
 212 47.5 212 47.5 257 -1 c 0,144,145
 302 -49.5 302 -49.5 365.5 -76.5 c 0,146,147
 429 -103.5 429 -103.5 507 -103.5 c 0,148,149
 547.5 -103.5 547.5 -103.5 584 -96.75 c 0,150,151
 620.5 -90 620.5 -90 654.5 -78.5 c 0,152,153
 688.5 -67 688.5 -67 721.25 -51.25 c 0,154,155
 754 -35.5 754 -35.5 786.5 -17.5 c 0,156,-1
 808 -68.5 l 0,157,158
 773.5 -86.5 773.5 -86.5 736.5 -103.25 c 0,159,160
 699.5 -120 699.5 -120 659.5 -132.75 c 0,161,162
 619.5 -145.5 619.5 -145.5 575.25 -153.25 c 0,163,164
 531 -161 531 -161 482.5 -161 c 0,165,166
 422.5 -161 422.5 -161 368 -148.25 c 0,167,168
 313.5 -135.5 313.5 -135.5 266.5 -111 c 0,169,170
 219.5 -86.5 219.5 -86.5 181.25 -51.5 c 0,171,172
 143 -16.5 143 -16.5 116 28.25 c 0,173,174
 89 73 89 73 74.25 126.25 c 0,175,176
 59.5 179.5 59.5 179.5 59.5 240.5 c 0,177,178
 59.5 315 59.5 315 77.5 378.5 c 0,179,180
 95.5 442 95.5 442 127.75 493.5 c 0,181,182
 160 545 160 545 204.5 584.25 c 0,183,184
 249 623.5 249 623.5 301.75 650 c 0,185,186
 354.5 676.5 354.5 676.5 413.75 690 c 0,187,188
 473 703.5 473 703.5 534.5 703.5 c 0,189,190
 617.5 703.5 617.5 703.5 685 681.5 c 0,191,192
 752.5 659.5 752.5 659.5 800 617.75 c 0,193,194
 847.5 576 847.5 576 873.25 515.25 c 0,195,196
 899 454.5 899 454.5 899 377 c 0,33,34
EndSplineSet
EndChar

StartChar: A
Encoding: 36 65 36
Width: 732
VWidth: 500
Flags: W
LayerCount: 2
Fore
SplineSet
400.5 0 m 0,0,-1
 400.5 51 l 0,1,2
 408.5 52 408.5 52 416.75 52.75 c 0,3,4
 425 53.5 425 53.5 432 54.5 c 0,5,6
 440 55.5 440 55.5 447.5 56.5 c 0,7,8
 457.5 57.5 457.5 57.5 463 60 c 0,9,10
 468.5 62.5 468.5 62.5 467 71.5 c 0,11,-1
 437 259 l 0,12,-1
 243.5 259 l 0,13,-1
 142.5 71.5 l 0,14,15
 137.5 64 137.5 64 141.5 60.75 c 0,16,17
 145.5 57.5 145.5 57.5 155.5 56.5 c 0,18,19
 163.5 55.5 163.5 55.5 172.5 54.5 c 0,20,21
 180 53.5 180 53.5 189.5 52.75 c 0,22,23
 199 52 199 52 209 51 c 0,24,-1
 209 0 l 0,25,-1
 -54.5 0 l 0,26,-1
 -54.5 51 l 0,27,-1
 5 57.5 l 0,28,-1
 384 703.5 l 0,29,-1
 505 703.5 l 0,30,-1
 616.5 72.5 l 0,31,32
 618 62.5 618 62.5 621.75 59.75 c 0,33,34
 625.5 57 625.5 57 637 55.5 c 0,35,36
 644 55 644 55 652 54 c 0,37,38
 659 53 659 53 667.25 52.5 c 0,39,40
 675.5 52 675.5 52 684 51 c 0,41,-1
 684 0 l 0,42,-1
 400.5 0 l 0,0,-1
392 516 m 0,43,-1
 277.5 317.5 l 0,44,-1
 426 317.5 l 0,45,-1
 392 516 l 0,43,-1
EndSplineSet
EndChar

StartChar: B
Encoding: 37 66 37
Width: 664
VWidth: 500
Flags: W
LayerCount: 2
Fore
SplineSet
474 546 m 0,0,1
 474 570.5 474 570.5 464.25 587.25 c 0,2,3
 454.5 604 454.5 604 438.25 614 c 0,4,5
 422 624 422 624 400.75 628.5 c 0,6,7
 379.5 633 379.5 633 356.5 633 c 0,8,9
 348 633 348 633 339.75 632.5 c 0,10,11
 331.5 632 331.5 632 324.5 632 c 0,12,-1
 276.5 384 l 0,13,14
 285 383 285 383 292 383 c 0,15,-1
 302 383 l 0,16,17
 340 383 340 383 371.75 395.25 c 0,18,19
 403.5 407.5 403.5 407.5 426.25 429.25 c 0,20,21
 449 451 449 451 461.5 480.75 c 0,22,23
 474 510.5 474 510.5 474 546 c 0,0,1
455.5 221 m 0,24,25
 455.5 252.5 455.5 252.5 444.5 273 c 0,26,27
 433.5 293.5 433.5 293.5 414.75 305.75 c 0,28,29
 396 318 396 318 371.75 322.75 c 0,30,31
 347.5 327.5 347.5 327.5 320.5 327.5 c 0,32,33
 293 327.5 293 327.5 264 324.5 c 0,34,-1
 212 57.5 l 0,35,36
 223 56.5 223 56.5 234 56.5 c 0,37,-1
 253 56.5 l 0,38,39
 298.5 56.5 298.5 56.5 335.75 66.75 c 0,40,41
 373 77 373 77 399.5 97.75 c 0,42,43
 426 118.5 426 118.5 440.75 149.25 c 0,44,45
 455.5 180 455.5 180 455.5 221 c 0,24,25
631 553 m 0,46,47
 631 515.5 631 515.5 618.5 486.5 c 0,48,49
 606 457.5 606 457.5 584.25 435 c 0,50,51
 562.5 412.5 562.5 412.5 533 395.75 c 0,52,53
 503.5 379 503.5 379 469 366.5 c 0,54,55
 502.5 360.5 502.5 360.5 528.75 350 c 0,56,57
 555 339.5 555 339.5 573.25 323.25 c 0,58,59
 591.5 307 591.5 307 601 284.5 c 0,60,61
 610.5 262 610.5 262 610.5 231.5 c 0,62,63
 610.5 170.5 610.5 170.5 587.5 126.5 c 0,64,65
 564.5 82.5 564.5 82.5 522.25 54.5 c 0,66,67
 480 26.5 480 26.5 420.25 13.25 c 0,68,69
 360.5 0 360.5 0 286.5 0 c 0,70,-1
 -15.5 0 l 0,71,-1
 -15.5 51 l 0,72,73
 -3 52 -3 52 8.5 53 c 0,74,75
 20 54 20 54 29 55 c 0,76,77
 39.5 56 39.5 56 49 56.5 c 0,78,79
 57.5 56.5 57.5 56.5 62.25 59.25 c 0,80,81
 67 62 67 62 68.5 72.5 c 0,82,-1
 175 615.5 l 0,83,84
 176.5 624 176.5 624 172.25 627 c 0,85,86
 168 630 168 630 158.5 631 c 0,87,88
 149.5 631.5 149.5 631.5 139.5 632.5 c 0,89,90
 131 633.5 131 633.5 120 634.25 c 0,91,92
 109 635 109 635 97.5 636 c 0,93,-1
 97.5 687 l 0,94,-1
 406.5 687 l 0,95,96
 471.5 687 471.5 687 514.75 676.5 c 0,97,98
 558 666 558 666 584 648 c 0,99,100
 610 630 610 630 620.5 605.5 c 0,101,102
 631 581 631 581 631 553 c 0,46,47
EndSplineSet
EndChar

StartChar: C
Encoding: 38 67 38
Width: 688
VWidth: 500
Flags: W
LayerCount: 2
Fore
SplineSet
671.5 480.5 m 0,0,-1
 596 480.5 l 0,1,-1
 597 595 l 0,2,3
 598 601 598 601 593.75 608.5 c 0,4,5
 589.5 616 589.5 616 581.5 618.5 c 0,6,7
 577.5 620.5 577.5 620.5 566.5 624.5 c 0,8,9
 555.5 628.5 555.5 628.5 541.75 632 c 0,10,11
 528 635.5 528 635.5 513.5 638.25 c 0,12,13
 499 641 499 641 487.5 641 c 0,14,15
 455 641 455 641 421 629.5 c 0,16,17
 387 618 387 618 355.25 595.75 c 0,18,19
 323.5 573.5 323.5 573.5 295.25 541 c 0,20,21
 267 508.5 267 508.5 246 466.5 c 0,22,23
 225 424.5 225 424.5 212.75 373.5 c 0,24,25
 200.5 322.5 200.5 322.5 200.5 263 c 0,26,27
 200.5 204.5 200.5 204.5 217.5 163.5 c 0,28,29
 234.5 122.5 234.5 122.5 261.75 96.25 c 0,30,31
 289 70 289 70 322.5 58 c 0,32,33
 356 46 356 46 389 46 c 0,34,35
 400 46 400 46 413 47.5 c 0,36,37
 426 49 426 49 438 51.5 c 0,38,39
 450 54 450 54 459.75 56.5 c 0,40,41
 469.5 59 469.5 59 474 61.5 c 0,42,43
 482 62.5 482 62.5 486 67.5 c 0,44,45
 490 72.5 490 72.5 492.5 78 c 0,46,-1
 541.5 213 l 0,47,-1
 618.5 213 l 0,48,-1
 587 27.5 l 0,49,50
 567.5 20.5 567.5 20.5 542.25 12.75 c 0,51,52
 517 5 517 5 487.5 -1.5 c 0,53,54
 458 -8 458 -8 424.75 -12.25 c 0,55,56
 391.5 -16.5 391.5 -16.5 355.5 -16.5 c 0,57,58
 298 -16.5 298 -16.5 252.75 -4.75 c 0,59,60
 207.5 7 207.5 7 173.5 27.75 c 0,61,62
 139.5 48.5 139.5 48.5 115.75 76.5 c 0,63,64
 92 104.5 92 104.5 77.25 137 c 0,65,66
 62.5 169.5 62.5 169.5 55.75 204.5 c 0,67,68
 49 239.5 49 239.5 49 274.5 c 0,69,70
 49 327 49 327 62.25 379.5 c 0,71,72
 75.5 432 75.5 432 101 479.5 c 0,73,74
 126.5 527 126.5 527 164 568 c 0,75,76
 201.5 609 201.5 609 249.5 639.25 c 0,77,78
 297.5 669.5 297.5 669.5 356 686.5 c 0,79,80
 414.5 703.5 414.5 703.5 482.5 703.5 c 0,81,82
 512 703.5 512 703.5 538.75 700.25 c 0,83,84
 565.5 697 565.5 697 592 691.5 c 0,85,86
 618.5 686 618.5 686 645.75 678 c 0,87,88
 673 670 673 670 703.5 660.5 c 0,89,-1
 671.5 480.5 l 0,0,-1
EndSplineSet
EndChar

StartChar: D
Encoding: 39 68 39
Width: 730
VWidth: 500
Flags: W
LayerCount: 2
Fore
SplineSet
711.5 424 m 0,0,1
 711.5 332.5 711.5 332.5 679.5 254.75 c 0,2,3
 647.5 177 647.5 177 587.5 120.5 c 0,4,5
 527.5 64 527.5 64 441.25 32 c 0,6,7
 355 0 355 0 247 0 c 0,8,-1
 -15.5 0 l 0,9,-1
 -15.5 51 l 0,10,11
 -4 52 -4 52 7 53 c 0,12,13
 18 54 18 54 26.5 54.5 c 0,14,15
 36.5 55 36.5 55 46 55.5 c 0,16,17
 58.5 56.5 58.5 56.5 62.25 59.25 c 0,18,19
 66 62 66 62 68.5 72.5 c 0,20,-1
 175 615.5 l 0,21,22
 176.5 624.5 176.5 624.5 171.25 627.25 c 0,23,24
 166 630 166 630 156.5 631 c 0,25,26
 147 631.5 147 631.5 137.5 632.5 c 0,27,28
 129 633.5 129 633.5 118.5 634.25 c 0,29,30
 108 635 108 635 97.5 636 c 0,31,-1
 97.5 687 l 0,32,-1
 363.5 687 l 0,33,34
 443 687 443 687 507.25 672.5 c 0,35,36
 571.5 658 571.5 658 617 626.25 c 0,37,38
 662.5 594.5 662.5 594.5 687 544.5 c 0,39,40
 711.5 494.5 711.5 494.5 711.5 424 c 0,0,1
558 433 m 0,41,42
 558 475 558 475 549 505.5 c 0,43,44
 540 536 540 536 524.5 557.25 c 0,45,46
 509 578.5 509 578.5 487.75 591.5 c 0,47,48
 466.5 604.5 466.5 604.5 442 611.75 c 0,49,50
 417.5 619 417.5 619 391 621.75 c 0,51,52
 364.5 624.5 364.5 624.5 338 625.5 c 0,53,-1
 323.5 625.5 l 0,54,-1
 213 63.5 l 0,55,-1
 265 63.5 l 0,56,57
 310 64 310 64 349.25 78 c 0,58,59
 388.5 92 388.5 92 421 116.75 c 0,60,61
 453.5 141.5 453.5 141.5 479 175.75 c 0,62,63
 504.5 210 504.5 210 522 250.75 c 0,64,65
 539.5 291.5 539.5 291.5 548.75 337.75 c 0,66,67
 558 384 558 384 558 433 c 0,41,42
EndSplineSet
EndChar

StartChar: E
Encoding: 40 69 40
Width: 614
VWidth: 500
Flags: W
LayerCount: 2
Fore
SplineSet
605 525.5 m 0,0,-1
 523.5 525.5 l 0,1,-1
 523.5 612.5 l 0,2,3
 523.5 620 523.5 620 515.75 622.75 c 0,4,5
 508 625.5 508 625.5 499.5 625.5 c 0,6,-1
 323.5 625.5 l 0,7,-1
 277.5 388 l 0,8,-1
 393 388 l 0,9,10
 401 388 401 388 410.25 391.75 c 0,11,12
 419.5 395.5 419.5 395.5 422 403.5 c 0,13,-1
 443.5 475 l 0,14,-1
 518 475 l 0,15,-1
 471 234.5 l 0,16,-1
 395.5 234.5 l 0,17,-1
 405.5 311.5 l 0,18,19
 406 314.5 406 314.5 404 317 c 0,20,21
 402 319.5 402 319.5 398.5 321.5 c 0,22,23
 395 323.5 395 323.5 390.75 324.5 c 0,24,25
 386.5 325.5 386.5 325.5 383 325.5 c 0,26,-1
 265 325.5 l 0,27,-1
 214 61.5 l 0,28,-1
 432 61.5 l 0,29,30
 440 61.5 440 61.5 449.25 65.5 c 0,31,32
 458.5 69.5 458.5 69.5 461 76 c 0,33,-1
 493.5 178 l 0,34,-1
 574.5 178 l 0,35,-1
 538.5 0 l 0,36,-1
 -15.5 0 l 0,37,-1
 -15.5 51 l 0,38,39
 -4 52 -4 52 7.25 53 c 0,40,41
 18.5 54 18.5 54 27 55 c 0,42,43
 37 56 37 56 46 56.5 c 0,44,45
 57.5 57.5 57.5 57.5 62.25 60 c 0,46,47
 67 62.5 67 62.5 68.5 72.5 c 0,48,-1
 175 615.5 l 0,49,50
 177.5 624.5 177.5 624.5 172 627.25 c 0,51,52
 166.5 630 166.5 630 156.5 631 c 0,53,54
 147.5 631.5 147.5 631.5 138 632.5 c 0,55,56
 129.5 633.5 129.5 633.5 119 634.25 c 0,57,58
 108.5 635 108.5 635 98.5 636 c 0,59,-1
 98.5 687 l 0,60,-1
 638 687 l 0,61,-1
 605 525.5 l 0,0,-1
EndSplineSet
EndChar

StartChar: F
Encoding: 41 70 41
Width: 569
VWidth: 500
Flags: W
LayerCount: 2
Fore
SplineSet
593 514 m 0,0,-1
 510 514 l 0,1,-1
 510 612.5 l 0,2,3
 510 620 510 620 502.5 622.75 c 0,4,5
 495 625.5 495 625.5 486.5 625.5 c 0,6,-1
 323.5 625.5 l 0,7,-1
 275.5 378 l 0,8,-1
 384 378 l 0,9,10
 391.5 378 391.5 378 400.75 381.25 c 0,11,12
 410 384.5 410 384.5 412.5 392 c 0,13,-1
 433 466 l 0,14,-1
 509 466 l 0,15,-1
 462 224.5 l 0,16,-1
 385 224.5 l 0,17,-1
 396.5 301 l 0,18,19
 397 308 397 308 388.75 311.75 c 0,20,21
 380.5 315.5 380.5 315.5 372.5 315.5 c 0,22,-1
 263 315.5 l 0,23,-1
 215 71.5 l 0,24,25
 213.5 62.5 213.5 62.5 219 60 c 0,26,27
 224.5 57.5 224.5 57.5 234.5 56.5 c 0,28,29
 244 56 244 56 255 55 c 0,30,31
 264.5 54 264.5 54 276.25 53 c 0,32,33
 288 52 288 52 301 51 c 0,34,-1
 301 0 l 0,35,-1
 -15.5 0 l 0,36,-1
 -15.5 51 l 0,37,38
 -5 52 -5 52 5.25 53 c 0,39,40
 15.5 54 15.5 54 24 55 c 0,41,42
 33.5 56 33.5 56 43 56.5 c 0,43,44
 54.5 57.5 54.5 57.5 60.25 60 c 0,45,46
 66 62.5 66 62.5 68.5 72.5 c 0,47,-1
 175 615.5 l 0,48,49
 176.5 624.5 176.5 624.5 171 627.25 c 0,50,51
 165.5 630 165.5 630 155.5 631 c 0,52,53
 146.5 631.5 146.5 631.5 137 632.5 c 0,54,55
 128.5 633.5 128.5 633.5 118 634.25 c 0,56,57
 107.5 635 107.5 635 97.5 636 c 0,58,-1
 97.5 687 l 0,59,-1
 626.5 687 l 0,60,-1
 593 514 l 0,0,-1
EndSplineSet
EndChar

StartChar: G
Encoding: 42 71 42
Width: 747
VWidth: 500
Flags: W
LayerCount: 2
Fore
SplineSet
664.5 280.5 m 0,0,1
 657.5 279.5 657.5 279.5 654.75 275.75 c 0,2,3
 652 272 652 272 650 265 c 0,4,-1
 603 26.5 l 0,5,6
 581.5 20.5 581.5 20.5 553.5 13 c 0,7,8
 525.5 5.5 525.5 5.5 493.5 -1 c 0,9,10
 461.5 -7.5 461.5 -7.5 427.75 -12 c 0,11,12
 394 -16.5 394 -16.5 361.5 -16.5 c 0,13,14
 296 -16.5 296 -16.5 247.5 -2.5 c 0,15,16
 199 11.5 199 11.5 164.5 35 c 0,17,18
 130 58.5 130 58.5 107.5 88.75 c 0,19,20
 85 119 85 119 72 151.5 c 0,21,22
 59 184 59 184 54 216.25 c 0,23,24
 49 248.5 49 248.5 49 275.5 c 0,25,26
 49 339 49 339 66.25 395.5 c 0,27,28
 83.5 452 83.5 452 114.25 499.75 c 0,29,30
 145 547.5 145 547.5 187.75 585.25 c 0,31,32
 230.5 623 230.5 623 282 649.25 c 0,33,34
 333.5 675.5 333.5 675.5 392 689.5 c 0,35,36
 450.5 703.5 450.5 703.5 512 703.5 c 0,37,38
 541 703.5 541 703.5 566.25 701.25 c 0,39,40
 591.5 699 591.5 699 616.25 694.25 c 0,41,42
 641 689.5 641 689.5 667 682.25 c 0,43,44
 693 675 693 675 724 665.5 c 0,45,-1
 686 479 l 0,46,-1
 599 479 l 0,47,-1
 608.5 595 l 0,48,49
 609.5 604 609.5 604 600.75 609.25 c 0,50,51
 592 614.5 592 614.5 581.5 618.5 c 0,52,53
 576.5 620 576.5 620 567.75 623.25 c 0,54,55
 559 626.5 559 626.5 547.75 629.75 c 0,56,57
 536.5 633 536.5 633 524 635.5 c 0,58,59
 511.5 638 511.5 638 499.5 638 c 0,60,61
 468 638 468 638 434 626.5 c 0,62,63
 400 615 400 615 367.25 592.75 c 0,64,65
 334.5 570.5 334.5 570.5 305 537.75 c 0,66,67
 275.5 505 275.5 505 253.25 463 c 0,68,69
 231 421 231 421 218 370 c 0,70,71
 205 319 205 319 205 260 c 0,72,73
 205 218.5 205 218.5 214.75 186.75 c 0,74,75
 224.5 155 224.5 155 240.25 131.25 c 0,76,77
 256 107.5 256 107.5 275.75 91.75 c 0,78,79
 295.5 76 295.5 76 315.25 66.25 c 0,80,81
 335 56.5 335 56.5 352.5 52.25 c 0,82,83
 370 48 370 48 382 48 c 0,84,85
 392 48 392 48 403.5 49.5 c 0,86,87
 415 51 415 51 426 53.25 c 0,88,89
 437 55.5 437 55.5 447 58 c 0,90,91
 457 60.5 457 60.5 464 62.5 c 0,92,-1
 504 265 l 0,93,94
 505.5 274.5 505.5 274.5 501 277.5 c 0,95,96
 496.5 280.5 496.5 280.5 484.5 281.5 c 0,97,98
 475.5 281.5 475.5 281.5 466 282.5 c 0,99,100
 457.5 283 457.5 283 447.25 283.75 c 0,101,102
 437 284.5 437 284.5 427 285.5 c 0,103,-1
 427 338 l 0,104,-1
 734 338 l 0,105,-1
 734 285.5 l 0,106,-1
 664.5 280.5 l 0,0,1
EndSplineSet
EndChar

StartChar: H
Encoding: 43 72 43
Width: 785
VWidth: 500
Flags: W
LayerCount: 2
Fore
SplineSet
763 630 m 0,0,1
 753.5 629 753.5 629 749.75 625.25 c 0,2,3
 746 621.5 746 621.5 744.5 614.5 c 0,4,-1
 638 71.5 l 0,5,6
 636.5 63 636.5 63 641 60.25 c 0,7,8
 645.5 57.5 645.5 57.5 655.5 56.5 c 0,9,10
 664.5 56 664.5 56 674.5 55 c 0,11,12
 683 54 683 54 693.75 53 c 0,13,14
 704.5 52 704.5 52 716 51 c 0,15,-1
 716 0 l 0,16,-1
 405.5 0 l 0,17,-1
 405.5 51 l 0,18,-1
 428.5 53 l 0,19,20
 440 54 440 54 449 55 c 0,21,22
 459.5 56 459.5 56 469 56.5 c 0,23,24
 478.5 57.5 478.5 57.5 484.25 60.5 c 0,25,26
 490 63.5 490 63.5 491.5 72.5 c 0,27,-1
 541.5 328.5 l 0,28,-1
 265 328.5 l 0,29,-1
 215 71.5 l 0,30,31
 213.5 62.5 213.5 62.5 217 60 c 0,32,33
 220.5 57.5 220.5 57.5 233.5 56.5 c 0,34,35
 242.5 56 242.5 56 252.5 55 c 0,36,37
 261 54 261 54 271.75 53 c 0,38,39
 282.5 52 282.5 52 294 51 c 0,40,-1
 294 0 l 0,41,-1
 -15.5 0 l 0,42,-1
 -15.5 51 l 0,43,44
 -4 52 -4 52 7.25 53 c 0,45,46
 18.5 54 18.5 54 27 55 c 0,47,48
 37 56 37 56 46 56.5 c 0,49,50
 57 57.5 57 57.5 62 60.5 c 0,51,52
 67 63.5 67 63.5 68.5 72.5 c 0,53,-1
 175 615.5 l 0,54,55
 176.5 624.5 176.5 624.5 171.5 627.25 c 0,56,57
 166.5 630 166.5 630 155.5 631 c 0,58,59
 146.5 631.5 146.5 631.5 137 632.5 c 0,60,61
 128.5 633.5 128.5 633.5 118.25 634.25 c 0,62,63
 108 635 108 635 97.5 636 c 0,64,-1
 97.5 687 l 0,65,-1
 406.5 687 l 0,66,-1
 406.5 636 l 0,67,68
 394.5 635 394.5 635 383.25 634.25 c 0,69,70
 372 633.5 372 633.5 363 632.5 c 0,71,72
 352.5 631.5 352.5 631.5 343 631 c 0,73,74
 333 630 333 630 328 626.75 c 0,75,76
 323 623.5 323 623.5 321.5 614.5 c 0,77,-1
 277.5 390 l 0,78,-1
 554 390 l 0,79,-1
 598 615.5 l 0,80,81
 599.5 624.5 599.5 624.5 594.25 627.75 c 0,82,83
 589 631 589 631 576.5 632 c 0,84,85
 567.5 632.5 567.5 632.5 558 633 c 0,86,87
 549.5 633.5 549.5 633.5 539.25 634.25 c 0,88,89
 529 635 529 635 519 636 c 0,90,-1
 519 687 l 0,91,-1
 828.5 687 l 0,92,-1
 828.5 636 l 0,93,-1
 763 630 l 0,0,1
EndSplineSet
EndChar

StartChar: I
Encoding: 44 73 44
Width: 364
VWidth: 500
Flags: W
LayerCount: 2
Fore
SplineSet
337 631 m 0,0,1
 329 630 329 630 326 625.75 c 0,2,3
 323 621.5 323 621.5 321.5 614.5 c 0,4,-1
 215 71.5 l 0,5,6
 213.5 63 213.5 63 217 60.25 c 0,7,8
 220.5 57.5 220.5 57.5 230.5 56.5 c 0,9,10
 240 56 240 56 250.5 55 c 0,11,12
 259.5 54 259.5 54 271 53 c 0,13,14
 282.5 52 282.5 52 295 51 c 0,15,-1
 295 0 l 0,16,-1
 -15.5 0 l 0,17,-1
 -15.5 51 l 0,18,19
 -4 52 -4 52 6.75 52.5 c 0,20,21
 17.5 53 17.5 53 26 54 c 0,22,23
 36 55 36 55 45 55.5 c 0,24,25
 56.5 56.5 56.5 56.5 61.75 59.25 c 0,26,27
 67 62 67 62 68.5 72.5 c 0,28,-1
 175 615.5 l 0,29,30
 177.5 624.5 177.5 624.5 172 627.25 c 0,31,32
 166.5 630 166.5 630 156.5 631 c 0,33,34
 147.5 631.5 147.5 631.5 138 632.5 c 0,35,36
 129.5 633.5 129.5 633.5 119 634.25 c 0,37,38
 108.5 635 108.5 635 98.5 636 c 0,39,-1
 98.5 687 l 0,40,-1
 407.5 687 l 0,41,-1
 407.5 636 l 0,42,-1
 337 631 l 0,0,1
EndSplineSet
EndChar

StartChar: J
Encoding: 45 74 45
Width: 522
VWidth: 500
Flags: W
LayerCount: 2
Fore
SplineSet
492.5 630 m 0,0,1
 485.5 630 485.5 630 482.75 625.75 c 0,2,3
 480 621.5 480 621.5 478 614.5 c 0,4,-1
 412.5 263 l 0,5,6
 401.5 202.5 401.5 202.5 385.25 151.25 c 0,7,8
 369 100 369 100 339 62.75 c 0,9,10
 309 25.5 309 25.5 260.25 4.5 c 0,11,12
 211.5 -16.5 211.5 -16.5 136 -16.5 c 0,13,14
 102 -16.5 102 -16.5 75.25 -12 c 0,15,16
 48.5 -7.5 48.5 -7.5 29 -1.5 c 0,17,18
 9.5 4.5 9.5 4.5 -2.75 10.25 c 0,19,20
 -15 16 -15 16 -20.5 18.5 c 0,21,-1
 14.5 196.5 l 0,22,-1
 98.5 196.5 l 0,23,-1
 98.5 67.5 l 0,24,25
 98.5 63.5 98.5 63.5 103.25 59.75 c 0,26,27
 108 56 108 56 115 53.25 c 0,28,29
 122 50.5 122 50.5 129.75 48.75 c 0,30,31
 137.5 47 137.5 47 143.5 47 c 0,32,33
 188 47 188 47 216.5 98.25 c 0,34,35
 245 149.5 245 149.5 264 255 c 0,36,-1
 332 615.5 l 0,37,38
 333.5 624.5 333.5 624.5 328.5 627.25 c 0,39,40
 323.5 630 323.5 630 313.5 631 c 0,41,42
 304 631.5 304 631.5 294 632.5 c 0,43,44
 285.5 633.5 285.5 633.5 274.5 634.25 c 0,45,46
 263.5 635 263.5 635 253 636 c 0,47,-1
 253 687 l 0,48,-1
 562 687 l 0,49,-1
 562 636 l 0,50,-1
 492.5 630 l 0,0,1
EndSplineSet
EndChar

StartChar: K
Encoding: 46 75 46
Width: 715
VWidth: 500
Flags: W
LayerCount: 2
Fore
SplineSet
661.5 627.5 m 0,0,-1
 397.5 376 l 0,1,-1
 539.5 105.5 l 0,2,3
 548.5 88.5 548.5 88.5 554.25 78 c 0,4,5
 560 67.5 560 67.5 566 61.25 c 0,6,7
 572 55 572 55 579.5 52.75 c 0,8,9
 587 50.5 587 50.5 599 50 c 0,10,11
 603 50 603 50 613 50.75 c 0,12,13
 623 51.5 623 51.5 634 52.25 c 0,14,15
 645 53 645 53 653.75 53.75 c 0,16,17
 662.5 54.5 662.5 54.5 663.5 54.5 c 0,18,-1
 663.5 3 l 0,19,20
 635.5 -5.5 635.5 -5.5 605 -11 c 0,21,22
 574.5 -16.5 574.5 -16.5 546 -16.5 c 0,23,24
 515 -16.5 515 -16.5 493.25 -12 c 0,25,26
 471.5 -7.5 471.5 -7.5 455.75 2.25 c 0,27,28
 440 12 440 12 428.25 27.25 c 0,29,30
 416.5 42.5 416.5 42.5 405.5 63.5 c 0,31,-1
 282.5 298 l 0,32,-1
 259 298 l 0,33,-1
 214 71.5 l 0,34,35
 212.5 61.5 212.5 61.5 217.25 59 c 0,36,37
 222 56.5 222 56.5 230.5 55.5 c 0,38,39
 239 55 239 55 248 54 c 0,40,41
 255.5 53 255.5 53 264.75 52.5 c 0,42,43
 274 52 274 52 283.5 51 c 0,44,-1
 283.5 0 l 0,45,-1
 -16.5 0 l 0,46,-1
 -16.5 51 l 0,47,48
 -6.5 52 -6.5 52 4.5 52.5 c 0,49,50
 15.5 53 15.5 53 25.5 54 c 0,51,52
 37 55 37 55 48 55.5 c 0,53,54
 56 55.5 56 55.5 61 59 c 0,55,56
 66 62.5 66 62.5 67.5 72.5 c 0,57,-1
 175 615.5 l 0,58,59
 177.5 624.5 177.5 624.5 173.5 627.75 c 0,60,61
 169.5 631 169.5 631 162 632 c 0,62,63
 153.5 632.5 153.5 632.5 144.5 633 c 0,64,65
 136.5 633.5 136.5 633.5 127 634.25 c 0,66,67
 117.5 635 117.5 635 107.5 636 c 0,68,-1
 107.5 687 l 0,69,-1
 397.5 687 l 0,70,-1
 397.5 636 l 0,71,72
 387 635 387 635 376.75 634.25 c 0,73,74
 366.5 633.5 366.5 633.5 358.5 633 c 0,75,76
 349.5 632.5 349.5 632.5 341 632 c 0,77,78
 333.5 631 333.5 631 328.75 627.75 c 0,79,80
 324 624.5 324 624.5 321.5 614.5 c 0,81,-1
 277.5 392 l 0,82,-1
 285.5 392 l 0,83,-1
 516 616.5 l 0,84,85
 524 623.5 524 623.5 520.75 627.25 c 0,86,87
 517.5 631 517.5 631 507 632 c 0,88,89
 498 632 498 632 489 633 c 0,90,91
 481 633.5 481 633.5 471.5 634.25 c 0,92,93
 462 635 462 635 453.5 636 c 0,94,-1
 453.5 687 l 0,95,-1
 751.5 687 l 0,96,-1
 751.5 636 l 0,97,-1
 661.5 627.5 l 0,0,-1
EndSplineSet
EndChar

StartChar: L
Encoding: 47 76 47
Width: 573
VWidth: 500
Flags: W
LayerCount: 2
Fore
SplineSet
499.5 0 m 0,0,-1
 -15.5 0 l 0,1,-1
 -15.5 51 l 0,2,3
 -5 52 -5 52 5.25 53 c 0,4,5
 15.5 54 15.5 54 24 54.5 c 0,6,-1
 43 55.5 l 0,7,8
 57.5 57 57.5 57 62.25 59.75 c 0,9,10
 67 62.5 67 62.5 68.5 72.5 c 0,11,-1
 175 615.5 l 0,12,13
 177.5 624 177.5 624 172.25 627 c 0,14,15
 167 630 167 630 158.5 631 c 0,16,17
 149.5 631.5 149.5 631.5 139.5 632.5 c 0,18,19
 131 633.5 131 633.5 120.25 634.25 c 0,20,21
 109.5 635 109.5 635 98.5 636 c 0,22,-1
 98.5 687 l 0,23,-1
 407.5 687 l 0,24,-1
 407.5 636 l 0,25,26
 394.5 635 394.5 635 382.75 634.25 c 0,27,28
 371 633.5 371 633.5 361.5 632.5 c 0,29,30
 350.5 631.5 350.5 631.5 341 631 c 0,31,32
 334 630 334 630 329 626.75 c 0,33,34
 324 623.5 324 623.5 321.5 614.5 c 0,35,-1
 213 61.5 l 0,36,-1
 393 61.5 l 0,37,38
 401 61.5 401 61.5 410.25 65.5 c 0,39,40
 419.5 69.5 419.5 69.5 422 76 c 0,41,-1
 464 207 l 0,42,-1
 540.5 207 l 0,43,-1
 499.5 0 l 0,0,-1
EndSplineSet
EndChar

StartChar: M
Encoding: 48 77 48
Width: 925
VWidth: 500
Flags: W
LayerCount: 2
Fore
SplineSet
898 628.5 m 0,0,1
 891 627.5 891 627.5 888.25 624.5 c 0,2,3
 885.5 621.5 885.5 621.5 883.5 614.5 c 0,4,-1
 778 71.5 l 0,5,6
 776.5 62.5 776.5 62.5 781.5 60 c 0,7,8
 786.5 57.5 786.5 57.5 796.5 56.5 c 0,9,10
 805.5 56 805.5 56 815.5 55 c 0,11,12
 824 54 824 54 834.5 53 c 0,13,14
 845 52 845 52 856 51 c 0,15,-1
 856 0 l 0,16,-1
 547 0 l 0,17,-1
 547 51 l 0,18,19
 558.5 52 558.5 52 569.5 53 c 0,20,21
 580.5 54 580.5 54 589.5 55 c 0,22,23
 600 56 600 56 609.5 56.5 c 0,24,25
 618 56.5 618 56.5 624.25 60 c 0,26,27
 630.5 63.5 630.5 63.5 632 72.5 c 0,28,-1
 708.5 468 l 0,29,-1
 442.5 0 l 0,30,-1
 342 0 l 0,31,-1
 259 461 l 0,32,-1
 186.5 71.5 l 0,33,34
 184 63 184 63 188.75 60.25 c 0,35,36
 193.5 57.5 193.5 57.5 200.5 56.5 c 0,37,38
 210 56 210 56 220 55 c 0,39,40
 228.5 54 228.5 54 239.75 53 c 0,41,42
 251 52 251 52 263 51 c 0,43,-1
 263 0 l 0,44,-1
 -14.5 0 l 0,45,-1
 -14.5 51 l 0,46,47
 -4 52 -4 52 6 53 c 0,48,49
 16 54 16 54 24.5 55 c 0,50,51
 34 56 34 56 43 56.5 c 0,52,53
 54 57.5 54 57.5 60.5 60 c 0,54,55
 67 62.5 67 62.5 69.5 72.5 c 0,56,-1
 175 615.5 l 0,57,58
 176.5 624.5 176.5 624.5 171.5 627.25 c 0,59,60
 166.5 630 166.5 630 156.5 631 c 0,61,62
 147 631.5 147 631.5 137.5 632.5 c 0,63,64
 129 633.5 129 633.5 118.5 634.25 c 0,65,66
 108 635 108 635 97.5 636 c 0,67,-1
 97.5 687 l 0,68,-1
 369.5 687 l 0,69,-1
 369.5 653.5 l 0,70,-1
 447.5 223 l 0,71,-1
 688 649 l 0,72,-1
 688 687 l 0,73,-1
 967.5 687 l 0,74,-1
 967.5 636 l 0,75,-1
 898 628.5 l 0,0,1
EndSplineSet
EndChar

StartChar: N
Encoding: 49 78 49
Width: 771
VWidth: 500
Flags: W
LayerCount: 2
Fore
SplineSet
749.5 630 m 0,0,1
 735 627.5 735 627.5 732 614.5 c 0,2,-1
 610.5 0 l 0,3,-1
 496.5 0 l 0,4,-1
 267.5 476 l 0,5,-1
 188.5 71.5 l 0,6,7
 187 62.5 187 62.5 191.5 60 c 0,8,9
 196 57.5 196 57.5 207 56.5 c 0,10,11
 216 56 216 56 225.5 55 c 0,12,13
 234 54 234 54 244.25 53 c 0,14,15
 254.5 52 254.5 52 266 51 c 0,16,-1
 266 0 l 0,17,-1
 -14.5 0 l 0,18,-1
 -14.5 51 l 0,19,20
 -3.5 52 -3.5 52 6.75 53 c 0,21,22
 17 54 17 54 25.5 55 c 0,23,24
 35 56 35 56 44 56.5 c 0,25,26
 55 57.5 55 57.5 61 60 c 0,27,28
 67 62.5 67 62.5 69.5 72.5 c 0,29,-1
 175 615.5 l 0,30,31
 177.5 624.5 177.5 624.5 172 627.25 c 0,32,33
 166.5 630 166.5 630 156.5 631 c 0,34,35
 147.5 631.5 147.5 631.5 138 632.5 c 0,36,37
 129.5 633.5 129.5 633.5 119.25 634.25 c 0,38,39
 109 635 109 635 98.5 636 c 0,40,-1
 98.5 687 l 0,41,-1
 339 687 l 0,42,-1
 339 655.5 l 0,43,-1
 538.5 238.5 l 0,44,-1
 613.5 615.5 l 0,45,46
 616 624.5 616 624.5 609.5 627.25 c 0,47,48
 603 630 603 630 594 631 c 0,49,50
 584.5 631.5 584.5 631.5 575 632.5 c 0,51,52
 566.5 633.5 566.5 633.5 556 634.25 c 0,53,54
 545.5 635 545.5 635 535.5 636 c 0,55,-1
 535.5 687 l 0,56,-1
 816 687 l 0,57,-1
 816 636 l 0,58,-1
 749.5 630 l 0,0,1
EndSplineSet
EndChar

StartChar: O
Encoding: 50 79 50
Width: 770
VWidth: 500
Flags: W
LayerCount: 2
Fore
SplineSet
750.5 427 m 0,0,1
 750.5 374.5 750.5 374.5 739.5 321.25 c 0,2,3
 728.5 268 728.5 268 706.25 218.75 c 0,4,5
 684 169.5 684 169.5 650.5 126.5 c 0,6,7
 617 83.5 617 83.5 572.5 51.75 c 0,8,9
 528 20 528 20 472 1.75 c 0,10,11
 416 -16.5 416 -16.5 349 -16.5 c 0,12,13
 277.5 -16.5 277.5 -16.5 221.75 4.75 c 0,14,15
 166 26 166 26 127.5 64.25 c 0,16,17
 89 102.5 89 102.5 69 154.75 c 0,18,19
 49 207 49 207 49 269.5 c 0,20,21
 49 322.5 49 322.5 61.25 375.5 c 0,22,23
 73.5 428.5 73.5 428.5 97.25 476.75 c 0,24,25
 121 525 121 525 155.5 566.5 c 0,26,27
 190 608 190 608 234.75 638.5 c 0,28,29
 279.5 669 279.5 669 334 686.25 c 0,30,31
 388.5 703.5 388.5 703.5 451.5 703.5 c 0,32,33
 525.5 703.5 525.5 703.5 581.5 680.75 c 0,34,35
 637.5 658 637.5 658 675 619.75 c 0,36,37
 712.5 581.5 712.5 581.5 731.5 531.5 c 0,38,39
 750.5 481.5 750.5 481.5 750.5 427 c 0,0,1
591 427 m 0,40,41
 591 478.5 591 478.5 577.75 518.5 c 0,42,43
 564.5 558.5 564.5 558.5 543.25 586 c 0,44,45
 522 613.5 522 613.5 495.5 627.75 c 0,46,47
 469 642 469 642 442.5 642 c 0,48,49
 412 642 412 642 382.75 626.5 c 0,50,51
 353.5 611 353.5 611 327.5 584.25 c 0,52,53
 301.5 557.5 301.5 557.5 279.5 520.75 c 0,54,55
 257.5 484 257.5 484 241.75 441.75 c 0,56,57
 226 399.5 226 399.5 217 353.25 c 0,58,59
 208 307 208 307 208 261 c 0,60,61
 208 208 208 208 221.75 168 c 0,62,63
 235.5 128 235.5 128 257 101 c 0,64,65
 278.5 74 278.5 74 304.75 60.5 c 0,66,67
 331 47 331 47 356.5 47 c 0,68,69
 386.5 47 386.5 47 415.75 62.75 c 0,70,71
 445 78.5 445 78.5 471 106 c 0,72,73
 497 133.5 497 133.5 519 170.25 c 0,74,75
 541 207 541 207 557 249.25 c 0,76,77
 573 291.5 573 291.5 582 337 c 0,78,79
 591 382.5 591 382.5 591 427 c 0,40,41
EndSplineSet
EndChar

StartChar: P
Encoding: 51 80 51
Width: 622
VWidth: 500
Flags: W
LayerCount: 2
Fore
SplineSet
478 504 m 0,0,1
 478 564.5 478 564.5 443.5 596.5 c 0,2,3
 409 628.5 409 628.5 341 628.5 c 0,4,-1
 323.5 628.5 l 0,5,-1
 261 315.5 l 0,6,7
 291 314.5 291 314.5 324.75 320.75 c 0,8,9
 358.5 327 358.5 327 390 346 c 0,10,11
 408.5 357 408.5 357 424.5 372 c 0,12,13
 440.5 387 440.5 387 452.5 406.5 c 0,14,15
 464.5 426 464.5 426 471.25 450.25 c 0,16,17
 478 474.5 478 474.5 478 504 c 0,0,1
627.5 520 m 0,18,19
 627.5 460 627.5 460 604.25 411 c 0,20,21
 581 362 581 362 537.5 326.75 c 0,22,23
 494 291.5 494 291.5 432.25 272.25 c 0,24,25
 370.5 253 370.5 253 294 253 c 0,26,-1
 273 253 l 0,27,28
 260.5 253 260.5 253 250 254 c 0,29,-1
 213 71.5 l 0,30,31
 211.5 62.5 211.5 62.5 216 60 c 0,32,33
 220.5 57.5 220.5 57.5 231.5 56.5 c 0,34,35
 240.5 56 240.5 56 250.5 55 c 0,36,37
 259 54 259 54 269.75 53 c 0,38,39
 280.5 52 280.5 52 292 51 c 0,40,-1
 292 0 l 0,41,-1
 -17.5 0 l 0,42,-1
 -17.5 51 l 0,43,44
 -6.5 52 -6.5 52 4 53 c 0,45,46
 14.5 54 14.5 54 23 55 c 0,47,48
 32.5 56 32.5 56 42 56.5 c 0,49,50
 52 57.5 52 57.5 58 60 c 0,51,52
 64 62.5 64 62.5 66.5 72.5 c 0,53,-1
 174 615.5 l 0,54,55
 175.5 624.5 175.5 624.5 169.75 627.25 c 0,56,57
 164 630 164 630 154.5 631 c 0,58,59
 145.5 631.5 145.5 631.5 136 632.5 c 0,60,61
 127.5 633.5 127.5 633.5 117 634.25 c 0,62,63
 106.5 635 106.5 635 96.5 636 c 0,64,-1
 96.5 687 l 0,65,-1
 372.5 687 l 0,66,67
 445 687 445 687 494 673.75 c 0,68,69
 543 660.5 543 660.5 572.75 637.75 c 0,70,71
 602.5 615 602.5 615 615 584.75 c 0,72,73
 627.5 554.5 627.5 554.5 627.5 520 c 0,18,19
EndSplineSet
EndChar

StartChar: Q
Encoding: 52 81 52
Width: 770
VWidth: 500
Flags: W
LayerCount: 2
Fore
SplineSet
782.5 -110.5 m 0,0,1
 775.5 -114 775.5 -114 755 -122.75 c 0,2,3
 734.5 -131.5 734.5 -131.5 707 -140.75 c 0,4,5
 679.5 -150 679.5 -150 648 -157 c 0,6,7
 616.5 -164 616.5 -164 588 -164 c 0,8,9
 540.5 -164 540.5 -164 506.75 -151.75 c 0,10,11
 473 -139.5 473 -139.5 449 -119.25 c 0,12,13
 425 -99 425 -99 408.75 -72.25 c 0,14,15
 392.5 -45.5 392.5 -45.5 379 -16.5 c 0,16,17
 372 -17.5 372 -17.5 363.75 -18 c 0,18,19
 355.5 -18.5 355.5 -18.5 346 -18.5 c 0,20,21
 279.5 -18.5 279.5 -18.5 224.5 1.25 c 0,22,23
 169.5 21 169.5 21 130 58 c 0,24,25
 90.5 95 90.5 95 68.75 147.25 c 0,26,27
 47 199.5 47 199.5 47 265 c 0,28,29
 47 316 47 316 59.25 368.5 c 0,30,31
 71.5 421 71.5 421 95.5 469.75 c 0,32,33
 119.5 518.5 119.5 518.5 154.25 561 c 0,34,35
 189 603.5 189 603.5 234 635.25 c 0,36,37
 279 667 279 667 333.75 685.25 c 0,38,39
 388.5 703.5 388.5 703.5 452.5 703.5 c 0,40,41
 525.5 703.5 525.5 703.5 581 681.5 c 0,42,43
 636.5 659.5 636.5 659.5 674 621.5 c 0,44,45
 711.5 583.5 711.5 583.5 730.5 533.25 c 0,46,47
 749.5 483 749.5 483 749.5 426 c 0,48,49
 749.5 399 749.5 399 746.25 366 c 0,50,51
 743 333 743 333 733.75 297.25 c 0,52,53
 724.5 261.5 724.5 261.5 708.75 224.25 c 0,54,55
 693 187 693 187 668.25 151.25 c 0,56,57
 643.5 115.5 643.5 115.5 608.25 82.5 c 0,58,59
 573 49.5 573 49.5 525.5 22.5 c 0,60,61
 540 -3.5 540 -3.5 551 -25 c 0,62,63
 562 -46.5 562 -46.5 574.5 -61.75 c 0,64,65
 587 -77 587 -77 603 -85.5 c 0,66,67
 619 -94 619 -94 643 -94 c 0,68,69
 656.5 -94 656.5 -94 670.5 -90.75 c 0,70,71
 684.5 -87.5 684.5 -87.5 701 -81.5 c 0,72,73
 717.5 -75.5 717.5 -75.5 737.25 -66.5 c 0,74,75
 757 -57.5 757 -57.5 782.5 -46 c 0,76,-1
 782.5 -110.5 l 0,0,1
591 426 m 0,77,78
 591 475.5 591 475.5 578.5 515.25 c 0,79,80
 566 555 566 555 545.75 583 c 0,81,82
 525.5 611 525.5 611 499.75 626 c 0,83,84
 474 641 474 641 447.5 641 c 0,85,86
 416.5 641 416.5 641 386.5 626.25 c 0,87,88
 356.5 611.5 356.5 611.5 329.5 585.25 c 0,89,90
 302.5 559 302.5 559 279.75 523 c 0,91,92
 257 487 257 487 240.25 444.75 c 0,93,94
 223.5 402.5 223.5 402.5 214.25 355.5 c 0,95,96
 205 308.5 205 308.5 205 260 c 0,97,98
 205 211 205 211 217.5 171.25 c 0,99,100
 230 131.5 230 131.5 250.75 103.5 c 0,101,102
 271.5 75.5 271.5 75.5 298.75 60.25 c 0,103,104
 326 45 326 45 355.5 45 c 0,105,106
 385 45 385 45 414 60.5 c 0,107,108
 443 76 443 76 469.25 103.25 c 0,109,110
 495.5 130.5 495.5 130.5 517.75 167.25 c 0,111,112
 540 204 540 204 556.25 246.5 c 0,113,114
 572.5 289 572.5 289 581.75 334.75 c 0,115,116
 591 380.5 591 380.5 591 426 c 0,77,78
EndSplineSet
EndChar

StartChar: R
Encoding: 53 82 53
Width: 699
VWidth: 500
Flags: W
LayerCount: 2
Fore
SplineSet
479 518 m 0,0,1
 479 543 479 543 471.5 561 c 0,2,3
 464 579 464 579 452.25 591.25 c 0,4,5
 440.5 603.5 440.5 603.5 426 611 c 0,6,7
 411.5 618.5 411.5 618.5 397 622.25 c 0,8,9
 382.5 626 382.5 626 369.75 627 c 0,10,11
 357 628 357 628 349 627.5 c 0,12,-1
 323.5 625.5 l 0,13,-1
 273.5 360.5 l 0,14,-1
 280.5 360.5 l 0,15,16
 285 360.5 285 360.5 289 361 c 0,17,18
 294 361 294 361 299 361.5 c 0,19,20
 318.5 362 318.5 362 339.5 366 c 0,21,22
 360.5 370 360.5 370 380.5 377.5 c 0,23,24
 400.5 385 400.5 385 418.25 397 c 0,25,26
 436 409 436 409 449.5 426.25 c 0,27,28
 463 443.5 463 443.5 471 466.25 c 0,29,30
 479 489 479 489 479 518 c 0,0,1
673 3 m 0,31,32
 649.5 -7 649.5 -7 627 -11.75 c 0,33,34
 604.5 -16.5 604.5 -16.5 576.5 -16.5 c 0,35,36
 529 -16.5 529 -16.5 498.5 -5.5 c 0,37,38
 468 5.5 468 5.5 448.5 26.75 c 0,39,40
 429 48 429 48 418 79 c 0,41,42
 407 110 407 110 398.5 150.5 c 0,43,44
 395 165.5 395 165.5 391.25 182.25 c 0,45,46
 387.5 199 387.5 199 382.25 215.5 c 0,47,48
 377 232 377 232 369.75 247 c 0,49,50
 362.5 262 362.5 262 351.75 273.75 c 0,51,52
 341 285.5 341 285.5 326.75 292.25 c 0,53,54
 312.5 299 312.5 299 293 299 c 0,55,56
 286.5 299 286.5 299 277.5 298.5 c 0,57,58
 268.5 298 268.5 298 260 298 c 0,59,-1
 217 71.5 l 0,60,61
 215.5 63 215.5 63 219.5 60.25 c 0,62,63
 223.5 57.5 223.5 57.5 233.5 56.5 c 0,64,65
 242.5 55.5 242.5 55.5 253 54.5 c 0,66,67
 261.5 53.5 261.5 53.5 273 52.75 c 0,68,69
 284.5 52 284.5 52 296 51 c 0,70,-1
 296 0 l 0,71,-1
 -13.5 0 l 0,72,-1
 -13.5 51 l 0,73,74
 -2 52 -2 52 8.75 52.5 c 0,75,76
 19.5 53 19.5 53 28 54 c 0,77,78
 38 55 38 55 47 55.5 c 0,79,80
 56.5 56.5 56.5 56.5 62.25 59.5 c 0,81,82
 68 62.5 68 62.5 70.5 72.5 c 0,83,-1
 175 615.5 l 0,84,85
 177.5 624 177.5 624 172.5 627 c 0,86,87
 167.5 630 167.5 630 157.5 631 c 0,88,89
 148 631.5 148 631.5 138.5 632.5 c 0,90,91
 130 633.5 130 633.5 119.5 634.25 c 0,92,93
 109 635 109 635 98.5 636 c 0,94,-1
 98.5 687 l 0,95,-1
 394 687 l 0,96,97
 445.5 687 445.5 687 490 679 c 0,98,99
 534.5 671 534.5 671 567.5 652.75 c 0,100,101
 600.5 634.5 600.5 634.5 619.25 605.25 c 0,102,103
 638 576 638 576 638 533.5 c 0,104,105
 638 493 638 493 622.25 460.25 c 0,106,107
 606.5 427.5 606.5 427.5 579 401.5 c 0,108,109
 551.5 375.5 551.5 375.5 514 356.25 c 0,110,111
 476.5 337 476.5 337 433 324.5 c 0,112,113
 462.5 311 462.5 311 480.5 294.75 c 0,114,115
 498.5 278.5 498.5 278.5 509.5 258.25 c 0,116,117
 520.5 238 520.5 238 527.25 213.75 c 0,118,119
 534 189.5 534 189.5 541.5 161 c 0,120,121
 548.5 134 548.5 134 555.25 113.5 c 0,122,123
 562 93 562 93 575.25 79 c 0,124,125
 588.5 65 588.5 65 611.25 58 c 0,126,127
 634 51 634 51 673 51 c 0,128,-1
 673 3 l 0,31,32
EndSplineSet
EndChar

StartChar: S
Encoding: 54 83 54
Width: 576
VWidth: 500
Flags: W
LayerCount: 2
Fore
SplineSet
534.5 503 m 0,0,-1
 456.5 503 l 0,1,-1
 461 609.5 l 0,2,3
 461 612 461 612 451.5 617.5 c 0,4,5
 442 623 442 623 427.5 628.75 c 0,6,7
 413 634.5 413 634.5 396.25 638.75 c 0,8,9
 379.5 643 379.5 643 365.5 643 c 0,10,11
 345.5 643 345.5 643 322.5 634 c 0,12,13
 299.5 625 299.5 625 279.75 608 c 0,14,15
 260 591 260 591 246.75 566.5 c 0,16,17
 233.5 542 233.5 542 233.5 511 c 0,18,19
 233.5 484 233.5 484 248.25 463.75 c 0,20,21
 263 443.5 263 443.5 284.75 428.25 c 0,22,23
 306.5 413 306.5 413 331.25 401.25 c 0,24,25
 356 389.5 356 389.5 376 380 c 0,26,27
 403.5 366 403.5 366 429.75 350.5 c 0,28,29
 456 335 456 335 476.25 315.5 c 0,30,31
 496.5 296 496.5 296 508.75 270.75 c 0,32,33
 521 245.5 521 245.5 521 212 c 0,34,35
 521 188.5 521 188.5 514.5 162.75 c 0,36,37
 508 137 508 137 493.5 111.5 c 0,38,39
 479 86 479 86 455.5 62.75 c 0,40,41
 432 39.5 432 39.5 397.75 22 c 0,42,43
 363.5 4.5 363.5 4.5 317.75 -6 c 0,44,45
 272 -16.5 272 -16.5 213 -16.5 c 0,46,47
 171 -16.5 171 -16.5 134.25 -9.25 c 0,48,49
 97.5 -2 97.5 -2 68.75 7.75 c 0,50,51
 40 17.5 40 17.5 21 27 c 0,52,53
 2 36.5 2 36.5 -5 41 c 0,54,-1
 30.5 209 l 0,55,-1
 118 209 l 0,56,-1
 106.5 87 l 0,57,58
 106 84 106 84 120 77.25 c 0,59,60
 134 70.5 134 70.5 153.5 63.75 c 0,61,62
 173 57 173 57 193.75 52 c 0,63,64
 214.5 47 214.5 47 227.5 47 c 0,65,66
 250.5 47 250.5 47 276 55.75 c 0,67,68
 301.5 64.5 301.5 64.5 322.75 82.25 c 0,69,70
 344 100 344 100 357.75 126.75 c 0,71,72
 371.5 153.5 371.5 153.5 371.5 189.5 c 0,73,74
 371.5 214.5 371.5 214.5 356.25 234 c 0,75,76
 341 253.5 341 253.5 319.25 268.75 c 0,77,78
 297.5 284 297.5 284 272.75 296 c 0,79,80
 248 308 248 308 229.5 317.5 c 0,81,82
 202 331.5 202 331.5 176.25 346.75 c 0,83,84
 150.5 362 150.5 362 130.5 380.75 c 0,85,86
 110.5 399.5 110.5 399.5 98.25 423 c 0,87,88
 86 446.5 86 446.5 86 477 c 0,89,90
 86 526.5 86 526.5 105.75 568 c 0,91,92
 125.5 609.5 125.5 609.5 162.75 639.5 c 0,93,94
 200 669.5 200 669.5 253.25 686.5 c 0,95,96
 306.5 703.5 306.5 703.5 374 703.5 c 0,97,98
 408.5 703.5 408.5 703.5 437.5 699.75 c 0,99,100
 466.5 696 466.5 696 490.75 690 c 0,101,102
 515 684 515 684 534.5 676.75 c 0,103,104
 554 669.5 554 669.5 569.5 662.5 c 0,105,-1
 534.5 503 l 0,0,-1
EndSplineSet
EndChar

StartChar: T
Encoding: 55 84 55
Width: 643
VWidth: 500
Flags: W
LayerCount: 2
Fore
SplineSet
671.5 508 m 0,0,-1
 592 508 l 0,1,-1
 597 617.5 l 0,2,3
 597.5 624 597.5 624 589.75 627.5 c 0,4,5
 582 631 582 631 574.5 631 c 0,6,-1
 463 631 l 0,7,-1
 357.5 71.5 l 0,8,9
 356 62.5 356 62.5 361.75 60 c 0,10,11
 367.5 57.5 367.5 57.5 377 56.5 c 0,12,13
 386 56 386 56 396 55 c 0,14,15
 404.5 54 404.5 54 415 53 c 0,16,-1
 436 51 l 0,17,-1
 436 0 l 0,18,-1
 127 0 l 0,19,-1
 127 51 l 0,20,21
 137 52 137 52 146.75 52.5 c 0,22,23
 156.5 53 156.5 53 165 54 c 0,24,25
 174.5 55 174.5 55 183.5 55.5 c 0,26,27
 194 56.5 194 56.5 201.75 59.5 c 0,28,29
 209.5 62.5 209.5 62.5 211 72.5 c 0,30,-1
 316.5 631 l 0,31,-1
 211 631 l 0,32,33
 207.5 631 207.5 631 203 630 c 0,34,35
 198.5 629 198.5 629 194.25 627 c 0,36,37
 190 625 190 625 186.75 622.5 c 0,38,39
 183.5 620 183.5 620 182.5 616.5 c 0,40,-1
 143.5 508 l 0,41,-1
 63.5 508 l 0,42,-1
 98.5 687 l 0,43,-1
 708.5 687 l 0,44,-1
 671.5 508 l 0,0,-1
EndSplineSet
EndChar

StartChar: U
Encoding: 56 85 56
Width: 767
VWidth: 500
Flags: W
LayerCount: 2
Fore
SplineSet
742.5 631 m 0,0,1
 735.5 630 735.5 630 731.5 625.75 c 0,2,3
 727.5 621.5 727.5 621.5 726 614.5 c 0,4,-1
 647 220 l 0,5,6
 636.5 166.5 636.5 166.5 613.75 123 c 0,7,8
 591 79.5 591 79.5 553.75 48.5 c 0,9,10
 516.5 17.5 516.5 17.5 463.5 0.5 c 0,11,12
 410.5 -16.5 410.5 -16.5 340 -16.5 c 0,13,14
 283 -16.5 283 -16.5 237.5 -5.75 c 0,15,16
 192 5 192 5 160.25 27.25 c 0,17,18
 128.5 49.5 128.5 49.5 111.25 84 c 0,19,20
 94 118.5 94 118.5 94 166 c 0,21,22
 94 180.5 94 180.5 97.25 208.75 c 0,23,24
 100.5 237 100.5 237 107.5 271.5 c 0,25,-1
 179 615.5 l 0,26,27
 180.5 624.5 180.5 624.5 175 627.25 c 0,28,29
 169.5 630 169.5 630 158.5 631 c 0,30,31
 150 631.5 150 631.5 140.5 632.5 c 0,32,33
 132 633.5 132 633.5 121.75 634.25 c 0,34,35
 111.5 635 111.5 635 101.5 636 c 0,36,-1
 101.5 687 l 0,37,-1
 410.5 687 l 0,38,-1
 410.5 636 l 0,39,40
 398.5 635 398.5 635 387.25 634.25 c 0,41,42
 376 633.5 376 633.5 367 632.5 c 0,43,44
 356.5 631.5 356.5 631.5 347 631 c 0,45,46
 338 630 338 630 332.5 626.75 c 0,47,48
 327 623.5 327 623.5 325.5 614.5 c 0,49,-1
 255 271.5 l 0,50,51
 249 242 249 242 246.25 218.5 c 0,52,53
 243.5 195 243.5 195 243.5 181 c 0,54,55
 243.5 148.5 243.5 148.5 254 125.5 c 0,56,57
 264.5 102.5 264.5 102.5 281.75 88 c 0,58,59
 299 73.5 299 73.5 321.25 67 c 0,60,61
 343.5 60.5 343.5 60.5 366.5 60.5 c 0,62,63
 406.5 60.5 406.5 60.5 435.75 75.25 c 0,64,65
 465 90 465 90 485.5 116 c 0,66,67
 506 142 506 142 519.5 178 c 0,68,69
 533 214 533 214 541.5 256 c 0,70,-1
 613.5 615.5 l 0,71,72
 615 624.5 615 624.5 610.75 627.25 c 0,73,74
 606.5 630 606.5 630 594 631 c 0,75,76
 584.5 631.5 584.5 631.5 575 632.5 c 0,77,78
 566.5 633.5 566.5 633.5 556 634.25 c 0,79,80
 545.5 635 545.5 635 535.5 636 c 0,81,-1
 535.5 687 l 0,82,-1
 810 687 l 0,83,-1
 810 636 l 0,84,-1
 742.5 631 l 0,0,1
EndSplineSet
EndChar

StartChar: V
Encoding: 57 86 57
Width: 701
VWidth: 500
Flags: W
LayerCount: 2
Fore
SplineSet
720 630 m 0,0,-1
 366.5 -16.5 l 0,1,-1
 249 -16.5 l 0,2,-1
 148.5 617.5 l 0,3,4
 147 627.5 147 627.5 140.25 630.25 c 0,5,6
 133.5 633 133.5 633 125 633 c 0,7,8
 118.5 633 118.5 633 111.5 633.5 c 0,9,10
 105.5 634 105.5 634 98.5 634.25 c 0,11,12
 91.5 634.5 91.5 634.5 85 635 c 0,13,-1
 85 687 l 0,14,-1
 360.5 687 l 0,15,-1
 360.5 635 l 0,16,17
 352 634.5 352 634.5 344.25 634.25 c 0,18,19
 336.5 634 336.5 634 329.5 634 c 0,20,-1
 314.5 634 l 0,21,22
 306 634 306 634 300.25 631 c 0,23,24
 294.5 628 294.5 628 296 618.5 c 0,25,-1
 362.5 191.5 l 0,26,-1
 590 618.5 l 0,27,28
 592 623.5 592 623.5 591.25 626.5 c 0,29,30
 590.5 629.5 590.5 629.5 588 631 c 0,31,32
 585.5 632.5 585.5 632.5 582 633 c 0,33,34
 578.5 633.5 578.5 633.5 575.5 634 c 0,35,-1
 559 634 l 0,36,37
 551.5 634 551.5 634 542.25 634.25 c 0,38,39
 533 634.5 533 634.5 524.5 635 c 0,40,-1
 524.5 687 l 0,41,-1
 776 687 l 0,42,-1
 776 636 l 0,43,-1
 720 630 l 0,0,-1
EndSplineSet
EndChar

StartChar: W
Encoding: 58 87 58
Width: 992
VWidth: 500
Flags: W
LayerCount: 2
Fore
SplineSet
1004.5 630 m 0,0,-1
 696.5 -16.5 l 0,1,-1
 592 -16.5 l 0,2,-1
 539.5 453.5 l 0,3,-1
 316.5 -16.5 l 0,4,-1
 205 -16.5 l 0,5,-1
 152.5 617.5 l 0,6,7
 151.5 627.5 151.5 627.5 146.25 629.75 c 0,8,9
 141 632 141 632 128 633 c 0,10,11
 121.5 633 121.5 633 114 633.5 c 0,12,13
 107.5 634 107.5 634 99.75 634.25 c 0,14,15
 92 634.5 92 634.5 85 635 c 0,16,-1
 85 687 l 0,17,-1
 364.5 687 l 0,18,-1
 364.5 635 l 0,19,20
 355.5 634.5 355.5 634.5 346.75 634.25 c 0,21,22
 338 634 338 634 331 633.5 c 0,23,24
 322.5 633 322.5 633 315.5 633 c 0,25,26
 309 633 309 633 303.5 630.5 c 0,27,28
 298 628 298 628 299 618.5 c 0,29,-1
 328.5 257 l 0,30,-1
 534.5 687 l 0,31,-1
 657.5 687 l 0,32,-1
 702.5 248 l 0,33,-1
 875.5 618.5 l 0,34,35
 877.5 623.5 877.5 623.5 877 626.5 c 0,36,37
 876.5 629.5 876.5 629.5 873.75 631 c 0,38,39
 871 632.5 871 632.5 866.5 633 c 0,40,41
 862 633.5 862 633.5 856 634 c 0,42,-1
 840.5 634 l 0,43,44
 833.5 634 833.5 634 825.5 634.25 c 0,45,46
 817.5 634.5 817.5 634.5 810 635 c 0,47,-1
 810 687 l 0,48,-1
 1067 687 l 0,49,-1
 1067 636 l 0,50,-1
 1004.5 630 l 0,0,-1
EndSplineSet
EndChar

StartChar: X
Encoding: 59 88 59
Width: 691
VWidth: 500
Flags: W
LayerCount: 2
Fore
SplineSet
674 631 m 0,0,1
 663 630 663 630 657.75 625.75 c 0,2,3
 652.5 621.5 652.5 621.5 650 618.5 c 0,4,-1
 426 367.5 l 0,5,-1
 560 67.5 l 0,6,7
 564 60 564 60 568.25 58.25 c 0,8,9
 572.5 56.5 572.5 56.5 578.5 55.5 c 0,10,11
 587 55 587 55 596 54.5 c 0,12,13
 604 54 604 54 614.25 53 c 0,14,15
 624.5 52 624.5 52 636 51 c 0,16,-1
 636 0 l 0,17,-1
 328.5 0 l 0,18,-1
 328.5 51 l 0,19,20
 338.5 52 338.5 52 349 52.5 c 0,21,22
 359.5 53 359.5 53 368 54 c 0,23,24
 377.5 55 377.5 55 387 55.5 c 0,25,26
 393 56 393 56 397.75 56.5 c 0,27,28
 402.5 57 402.5 57 405.75 58.5 c 0,29,30
 409 60 409 60 409.75 62.75 c 0,31,32
 410.5 65.5 410.5 65.5 408.5 70.5 c 0,33,-1
 329.5 251 l 0,34,-1
 165 70.5 l 0,35,36
 161 66.5 161 66.5 162.25 61.5 c 0,37,38
 163.5 56.5 163.5 56.5 172 55.5 c 0,39,-1
 236.5 51 l 0,40,-1
 236.5 0 l 0,41,-1
 -45 0 l 0,42,-1
 -45 51 l 0,43,44
 -38 52 -38 52 -30.25 52.5 c 0,45,46
 -22.5 53 -22.5 53 -16.5 54 c 0,47,48
 -9.5 55 -9.5 55 -3 55.5 c 0,49,50
 3.5 56 3.5 56 8 56.25 c 0,51,52
 12.5 56.5 12.5 56.5 16 57.75 c 0,53,54
 19.5 59 19.5 59 22.5 61.25 c 0,55,56
 25.5 63.5 25.5 63.5 29.5 67.5 c 0,57,-1
 283.5 348 l 0,58,-1
 161 619.5 l 0,59,60
 157 628 157 628 152.25 629.5 c 0,61,62
 147.5 631 147.5 631 136 632 c 0,63,64
 128 632 128 632 119.5 633 c 0,65,66
 112.5 633.5 112.5 633.5 103.25 634.25 c 0,67,68
 94 635 94 635 85 636 c 0,69,-1
 85 687 l 0,70,-1
 394 687 l 0,71,-1
 394 636 l 0,72,73
 381.5 635 381.5 635 369.75 634.25 c 0,74,75
 358 633.5 358 633.5 348 633 c 0,76,77
 336.5 632.5 336.5 632.5 326.5 632 c 0,78,79
 319.5 632 319.5 632 314 628.75 c 0,80,81
 308.5 625.5 308.5 625.5 312.5 616.5 c 0,82,-1
 382 460 l 0,83,-1
 522 616.5 l 0,84,85
 526 620.5 526 620.5 527 625.25 c 0,86,87
 528 630 528 630 518 631 c 0,88,-1
 463 636 l 0,89,-1
 463 687 l 0,90,-1
 737.5 687 l 0,91,-1
 737.5 636 l 0,92,-1
 674 631 l 0,0,1
EndSplineSet
EndChar

StartChar: Y
Encoding: 60 89 60
Width: 697
VWidth: 500
Flags: W
LayerCount: 2
Fore
SplineSet
705.5 631 m 0,0,1
 700 630 700 630 694.75 625.75 c 0,2,3
 689.5 621.5 689.5 621.5 687 618.5 c 0,4,-1
 427 287.5 l 0,5,-1
 384 71.5 l 0,6,7
 381.5 62.5 381.5 62.5 386.5 60 c 0,8,9
 391.5 57.5 391.5 57.5 402.5 56.5 c 0,10,11
 411.5 56 411.5 56 421 55 c 0,12,13
 429.5 54 429.5 54 439.75 53 c 0,14,15
 450 52 450 52 461 51 c 0,16,-1
 461 0 l 0,17,-1
 151.5 0 l 0,18,-1
 151.5 51 l 0,19,20
 161.5 52 161.5 52 172 53 c 0,21,22
 182.5 54 182.5 54 191 55 c 0,23,24
 200.5 56 200.5 56 210 56.5 c 0,25,26
 220 57.5 220 57.5 226.5 60 c 0,27,28
 233 62.5 233 62.5 235.5 72.5 c 0,29,-1
 277.5 279.5 l 0,30,-1
 163 619.5 l 0,31,32
 160.5 628 160.5 628 153.5 629.5 c 0,33,34
 146.5 631 146.5 631 137 632 c 0,35,36
 129.5 632 129.5 632 120.5 633 c 0,37,38
 113 633.5 113 633.5 103.75 634.25 c 0,39,40
 94.5 635 94.5 635 86 636 c 0,41,-1
 86 687 l 0,42,-1
 394 687 l 0,43,-1
 394 636 l 0,44,45
 382.5 635 382.5 635 371.25 634.25 c 0,46,47
 360 633.5 360 633.5 351 633 c 0,48,49
 340.5 632 340.5 632 331 632 c 0,50,51
 322.5 632 322.5 632 316.5 628.75 c 0,52,53
 310.5 625.5 310.5 625.5 314.5 615.5 c 0,54,-1
 385 393 l 0,55,-1
 554 616.5 l 0,56,57
 557 620.5 557 620.5 555 625.75 c 0,58,59
 553 631 553 631 541.5 632 c 0,60,-1
 481.5 636 l 0,61,-1
 481.5 687 l 0,62,-1
 771 687 l 0,63,-1
 771 636 l 0,64,-1
 705.5 631 l 0,0,1
EndSplineSet
EndChar

StartChar: Z
Encoding: 61 90 61
Width: 618
VWidth: 500
Flags: W
LayerCount: 2
Fore
SplineSet
643 636 m 0,0,-1
 166 63.5 l 0,1,-1
 418 63.5 l 0,2,3
 425.5 63.5 425.5 63.5 434.75 67.75 c 0,4,5
 444 72 444 72 446.5 79 c 0,6,-1
 483.5 212 l 0,7,-1
 569.5 212 l 0,8,-1
 528.5 0 l 0,9,-1
 -21.5 0 l 0,10,-1
 -11.5 50 l 0,11,-1
 464 623.5 l 0,12,-1
 251 623.5 l 0,13,14
 243 623.5 243 623.5 233.75 620.25 c 0,15,16
 224.5 617 224.5 617 222 609.5 c 0,17,-1
 189.5 500.5 l 0,18,-1
 103.5 500.5 l 0,19,-1
 140.5 687 l 0,20,-1
 653.5 687 l 0,21,-1
 643 636 l 0,0,-1
EndSplineSet
EndChar

StartChar: bracketleft
Encoding: 62 91 62
Width: 459
VWidth: 500
Flags: W
LayerCount: 2
Fore
SplineSet
497.5 663.5 m 0,0,-1
 341 663.5 l 0,1,-1
 193.5 -76 l 0,2,-1
 351 -76 l 0,3,-1
 339 -135 l 0,4,-1
 55.5 -135 l 0,5,-1
 225.5 725 l 0,6,-1
 510 725 l 0,7,-1
 497.5 663.5 l 0,0,-1
EndSplineSet
EndChar

StartChar: backslash
Encoding: 63 92 63
Width: 506
VWidth: 500
Flags: W
LayerCount: 2
Fore
SplineSet
426 -95 m 0,0,-1
 0 687 l 0,1,-1
 80 687 l 0,2,-1
 506 -95 l 0,3,-1
 426 -95 l 0,0,-1
EndSplineSet
EndChar

StartChar: bracketright
Encoding: 64 93 64
Width: 459
VWidth: 500
Flags: W
LayerCount: 2
Fore
SplineSet
242.5 -135 m 0,0,-1
 -42 -135 l 0,1,-1
 -29.5 -76 l 0,2,-1
 128 -76 l 0,3,-1
 274.5 663.5 l 0,4,-1
 116.5 663.5 l 0,5,-1
 129 725 l 0,6,-1
 412.5 725 l 0,7,-1
 242.5 -135 l 0,0,-1
EndSplineSet
EndChar

StartChar: underscore
Encoding: 66 95 66
Width: 350
VWidth: 500
Flags: W
LayerCount: 2
Fore
SplineSet
268.5 -170 m 0,0,-1
 -81.5 -170 l 0,1,-1
 -65 -87.5 l 0,2,-1
 285 -87.5 l 0,3,-1
 268.5 -170 l 0,0,-1
EndSplineSet
EndChar

StartChar: a
Encoding: 68 97 68
Width: 581
VWidth: 500
Flags: W
LayerCount: 2
Fore
SplineSet
578.5 30.5 m 0,0,1
 561 23.5 561 23.5 541.75 16 c 0,2,3
 522.5 8.5 522.5 8.5 502.5 2.25 c 0,4,5
 482.5 -4 482.5 -4 462.5 -8.25 c 0,6,7
 442.5 -12.5 442.5 -12.5 423 -12.5 c 0,8,9
 390.5 -12.5 390.5 -12.5 368.75 -0.5 c 0,10,11
 347 11.5 347 11.5 337 34 c 0,12,13
 323.5 25 323.5 25 308 16.5 c 0,14,15
 292.5 8 292.5 8 275.5 1.75 c 0,16,17
 258.5 -4.5 258.5 -4.5 240.5 -8.5 c 0,18,19
 222.5 -12.5 222.5 -12.5 204 -12.5 c 0,20,21
 172.5 -12.5 172.5 -12.5 147.5 -4 c 0,22,23
 122.5 4.5 122.5 4.5 103.5 19 c 0,24,25
 84.5 33.5 84.5 33.5 71.25 52.5 c 0,26,27
 58 71.5 58 71.5 49.5 92.25 c 0,28,29
 41 113 41 113 37 134.5 c 0,30,31
 33 156 33 156 33 175 c 0,32,33
 33 213 33 213 41.25 252.75 c 0,34,35
 49.5 292.5 49.5 292.5 66.75 330 c 0,36,37
 84 367.5 84 367.5 110 400.75 c 0,38,39
 136 434 136 434 171.5 458.75 c 0,40,41
 207 483.5 207 483.5 252.25 497.75 c 0,42,43
 297.5 512 297.5 512 352.5 512 c 0,44,45
 375 512 375 512 397.25 506 c 0,46,47
 419.5 500 419.5 500 437 490.5 c 0,48,-1
 444.5 499.5 l 0,49,-1
 554 499.5 l 0,50,51
 551.5 492 551.5 492 547.5 482.5 c 0,52,53
 543.5 473 543.5 473 539.5 464 c 0,54,55
 535.5 455 535.5 455 532.25 447.75 c 0,56,57
 529 440.5 529 440.5 528.5 437 c 0,58,-1
 462 99.5 l 0,59,60
 462 88 462 88 462.75 80 c 0,61,62
 463.5 72 463.5 72 466.5 67.25 c 0,63,64
 469.5 62.5 469.5 62.5 475 60.5 c 0,65,66
 480.5 58.5 480.5 58.5 489.5 58.5 c 0,67,68
 491.5 58.5 491.5 58.5 504.25 61.5 c 0,69,70
 517 64.5 517 64.5 532.25 68.5 c 0,71,72
 547.5 72.5 547.5 72.5 561 75.75 c 0,73,74
 574.5 79 574.5 79 578.5 80 c 0,75,-1
 578.5 30.5 l 0,0,1
384 403.5 m 0,76,77
 384.5 405.5 384.5 405.5 383.75 413.5 c 0,78,79
 383 421.5 383 421.5 380.75 430.25 c 0,80,81
 378.5 439 378.5 439 375.25 445.75 c 0,82,83
 372 452.5 372 452.5 367.5 452.5 c 0,84,85
 334.5 452.5 334.5 452.5 307.75 440.5 c 0,86,87
 281 428.5 281 428.5 259.75 408 c 0,88,89
 238.5 387.5 238.5 387.5 223 360.5 c 0,90,91
 207.5 333.5 207.5 333.5 197.25 303.25 c 0,92,93
 187 273 187 273 182 241.5 c 0,94,95
 177 210 177 210 177 181 c 0,96,97
 177 160.5 177 160.5 177.75 140 c 0,98,99
 178.5 119.5 178.5 119.5 183.75 102.5 c 0,100,101
 189 85.5 189 85.5 201.25 75 c 0,102,103
 213.5 64.5 213.5 64.5 236.5 64.5 c 0,104,105
 253 64.5 253 64.5 267.75 72 c 0,106,107
 282.5 79.5 282.5 79.5 294.75 89.25 c 0,108,109
 307 99 307 99 316.25 109 c 0,110,111
 325.5 119 325.5 119 331 124 c 0,112,113
 334.5 144.5 334.5 144.5 336.75 155.75 c 0,114,115
 339 167 339 167 340.75 177.25 c 0,116,117
 342.5 187.5 342.5 187.5 345 200.5 c 0,118,119
 347.5 213.5 347.5 213.5 352.25 237.75 c 0,120,121
 357 262 357 262 364.5 301.25 c 0,122,123
 372 340.5 372 340.5 384 403.5 c 0,76,77
EndSplineSet
EndChar

StartChar: b
Encoding: 69 98 69
Width: 545
VWidth: 500
Flags: W
LayerCount: 2
Fore
SplineSet
513 318.5 m 0,0,1
 513 288 513 288 506.5 251.5 c 0,2,3
 500 215 500 215 485 178.25 c 0,4,5
 470 141.5 470 141.5 446.25 107.25 c 0,6,7
 422.5 73 422.5 73 388.25 46.25 c 0,8,9
 354 19.5 354 19.5 308.25 3.5 c 0,10,11
 262.5 -12.5 262.5 -12.5 204 -12.5 c 0,12,13
 148 -12.5 148 -12.5 101.75 1.25 c 0,14,15
 55.5 15 55.5 15 18.5 39 c 0,16,-1
 138 677 l 0,17,-1
 48 685 l 0,18,-1
 48 722 l 0,19,-1
 221 754.5 l 0,20,-1
 291 754.5 l 0,21,-1
 237.5 479 l 0,22,23
 265.5 493.5 265.5 493.5 294.75 502.75 c 0,24,25
 324 512 324 512 351 512 c 0,26,27
 392 512 392 512 422.5 493.75 c 0,28,29
 453 475.5 453 475.5 473.25 447.5 c 0,30,31
 493.5 419.5 493.5 419.5 503.25 385 c 0,32,33
 513 350.5 513 350.5 513 318.5 c 0,0,1
370.5 314.5 m 0,34,35
 370.5 346.5 370.5 346.5 365.5 369.25 c 0,36,37
 360.5 392 360.5 392 352.75 406.5 c 0,38,39
 345 421 345 421 335.75 427.5 c 0,40,41
 326.5 434 326.5 434 317.5 434 c 0,42,43
 296 434 296 434 269.75 420.5 c 0,44,45
 243.5 407 243.5 407 220 387 c 0,46,-1
 163 81 l 0,47,48
 171 68 171 68 186.25 56.5 c 0,49,50
 201.5 45 201.5 45 225.5 45 c 0,51,52
 242.5 45 242.5 45 259.75 56.25 c 0,53,54
 277 67.5 277 67.5 293 86.75 c 0,55,56
 309 106 309 106 323.25 132 c 0,57,58
 337.5 158 337.5 158 348 188 c 0,59,60
 358.5 218 358.5 218 364.5 250.25 c 0,61,62
 370.5 282.5 370.5 282.5 370.5 314.5 c 0,34,35
EndSplineSet
EndChar

StartChar: c
Encoding: 70 99 70
Width: 492
VWidth: 500
Flags: W
LayerCount: 2
Fore
SplineSet
461 436 m 0,0,1
 461 427 461 427 456.5 413.5 c 0,2,3
 452 400 452 400 440.75 387.5 c 0,4,5
 429.5 375 429.5 375 410.5 366.25 c 0,6,7
 391.5 357.5 391.5 357.5 362.5 357.5 c 0,8,-1
 306 437 l 0,9,10
 277 430.5 277 430.5 256 413 c 0,11,12
 235 395.5 235 395.5 220.5 372 c 0,13,14
 206 348.5 206 348.5 196.75 321.5 c 0,15,16
 187.5 294.5 187.5 294.5 182.5 269.5 c 0,17,18
 177.5 244.5 177.5 244.5 175.75 224.25 c 0,19,20
 174 204 174 204 174 193.5 c 0,21,22
 174 170 174 170 176 146.75 c 0,23,24
 178 123.5 178 123.5 185.25 105 c 0,25,26
 192.5 86.5 192.5 86.5 206.75 75 c 0,27,28
 221 63.5 221 63.5 246 63.5 c 0,29,30
 265 63.5 265 63.5 284.5 69 c 0,31,32
 304 74.5 304 74.5 326.75 89.5 c 0,33,34
 349.5 104.5 349.5 104.5 376.75 130.75 c 0,35,36
 404 157 404 157 438.5 198.5 c 0,37,-1
 438.5 96.5 l 0,38,39
 417.5 71.5 417.5 71.5 393.5 51.5 c 0,40,41
 369.5 31.5 369.5 31.5 341.75 17.25 c 0,42,43
 314 3 314 3 282.25 -4.75 c 0,44,45
 250.5 -12.5 250.5 -12.5 214 -12.5 c 0,46,47
 167 -12.5 167 -12.5 133 1.5 c 0,48,49
 99 15.5 99 15.5 77 41 c 0,50,51
 55 66.5 55 66.5 44.5 102.5 c 0,52,53
 34 138.5 34 138.5 34 182.5 c 0,54,55
 34 249 34 249 54.75 308.75 c 0,56,57
 75.5 368.5 75.5 368.5 115.25 413.75 c 0,58,59
 155 459 155 459 212.25 485.5 c 0,60,61
 269.5 512 269.5 512 343 512 c 0,62,63
 373.5 512 373.5 512 395.75 504.75 c 0,64,65
 418 497.5 418 497.5 432.5 486.25 c 0,66,67
 447 475 447 475 454 461.75 c 0,68,69
 461 448.5 461 448.5 461 436 c 0,0,1
EndSplineSet
EndChar

StartChar: d
Encoding: 71 100 71
Width: 579
VWidth: 500
Flags: W
LayerCount: 2
Fore
SplineSet
466 92 m 0,0,1
 463.5 79.5 463.5 79.5 464.75 71.25 c 0,2,3
 466 63 466 63 468.75 58.25 c 0,4,5
 471.5 53.5 471.5 53.5 475.5 51.75 c 0,6,7
 479.5 50 479.5 50 482.5 50 c 0,8,9
 493 50 493 50 506 53.25 c 0,10,11
 519 56.5 519 56.5 532.25 61.25 c 0,12,13
 545.5 66 545.5 66 557.25 71.25 c 0,14,15
 569 76.5 569 76.5 577.5 81 c 0,16,-1
 577.5 30.5 l 0,17,18
 564.5 23 564.5 23 546 15.25 c 0,19,20
 527.5 7.5 527.5 7.5 506.5 1.25 c 0,21,22
 485.5 -5 485.5 -5 463.75 -8.75 c 0,23,24
 442 -12.5 442 -12.5 422 -12.5 c 0,25,26
 383 -12.5 383 -12.5 360.5 0.5 c 0,27,28
 338 13.5 338 13.5 329.5 37 c 0,29,30
 316 26.5 316 26.5 300.25 17.5 c 0,31,32
 284.5 8.5 284.5 8.5 267.75 1.75 c 0,33,34
 251 -5 251 -5 234 -8.75 c 0,35,36
 217 -12.5 217 -12.5 200.5 -12.5 c 0,37,38
 156 -12.5 156 -12.5 124.25 4 c 0,39,40
 92.5 20.5 92.5 20.5 72.25 47.25 c 0,41,42
 52 74 52 74 42.5 107 c 0,43,44
 33 140 33 140 33 173 c 0,45,46
 33 212 33 212 41.5 252.5 c 0,47,48
 50 293 50 293 67.25 330.5 c 0,49,50
 84.5 368 84.5 368 110.25 401.25 c 0,51,52
 136 434.5 136 434.5 170.5 459 c 0,53,54
 205 483.5 205 483.5 248.25 497.75 c 0,55,56
 291.5 512 291.5 512 343 512 c 0,57,58
 362 512 362 512 377.25 507.5 c 0,59,60
 392.5 503 392.5 503 402.5 499.5 c 0,61,-1
 433 677 l 0,62,-1
 341 685 l 0,63,-1
 341 722 l 0,64,-1
 514 754.5 l 0,65,-1
 583.5 754.5 l 0,66,-1
 466 92 l 0,0,1
385 403.5 m 0,67,68
 385.5 405.5 385.5 405.5 382 413.5 c 0,69,70
 378.5 421.5 378.5 421.5 372.5 430.5 c 0,71,72
 366.5 439.5 366.5 439.5 358.25 446.5 c 0,73,74
 350 453.5 350 453.5 341 453.5 c 0,75,76
 314 453.5 314 453.5 284.75 433.5 c 0,77,78
 255.5 413.5 255.5 413.5 230.75 377.25 c 0,79,80
 206 341 206 341 190 290.5 c 0,81,82
 174 240 174 240 174 179 c 0,83,84
 174 117 174 117 189 88.75 c 0,85,86
 204 60.5 204 60.5 232.5 60.5 c 0,87,88
 245.5 60.5 245.5 60.5 258.75 67 c 0,89,90
 272 73.5 272 73.5 285.25 84.5 c 0,91,92
 298.5 95.5 298.5 95.5 311.75 109.25 c 0,93,94
 325 123 325 123 338 138 c 0,95,-1
 385 403.5 l 0,67,68
EndSplineSet
EndChar

StartChar: e
Encoding: 72 101 72
Width: 491
VWidth: 500
Flags: W
LayerCount: 2
Fore
SplineSet
474 404.5 m 0,0,1
 474 377.5 474 377.5 461.75 354.5 c 0,2,3
 449.5 331.5 449.5 331.5 428 312.5 c 0,4,5
 406.5 293.5 406.5 293.5 377.75 278.25 c 0,6,7
 349 263 349 263 316.25 252 c 0,8,9
 283.5 241 283.5 241 248.25 234 c 0,10,11
 213 227 213 227 179 224.5 c 0,12,13
 178 215 178 215 177 203 c 0,14,15
 176 191 176 191 176 182.5 c 0,16,17
 176 156 176 156 180 133.5 c 0,18,19
 184 111 184 111 193 94.5 c 0,20,21
 202 78 202 78 216.75 68.75 c 0,22,23
 231.5 59.5 231.5 59.5 253 59.5 c 0,24,25
 269.5 59.5 269.5 59.5 286.5 66 c 0,26,27
 303.5 72.5 303.5 72.5 326 87.75 c 0,28,29
 348.5 103 348.5 103 378.5 128 c 0,30,31
 408.5 153 408.5 153 450.5 189.5 c 0,32,-1
 450.5 92 l 0,33,34
 435.5 77.5 435.5 77.5 411.5 59.25 c 0,35,36
 387.5 41 387.5 41 357 25 c 0,37,38
 326.5 9 326.5 9 291.5 -1.75 c 0,39,40
 256.5 -12.5 256.5 -12.5 219 -12.5 c 0,41,42
 185.5 -12.5 185.5 -12.5 152.5 -4 c 0,43,44
 119.5 4.5 119.5 4.5 93.25 26 c 0,45,46
 67 47.5 67 47.5 50.5 84.25 c 0,47,48
 34 121 34 121 34 178 c 0,49,50
 34 217 34 217 43.75 257 c 0,51,52
 53.5 297 53.5 297 71.5 334 c 0,53,54
 89.5 371 89.5 371 115.5 403.5 c 0,55,56
 141.5 436 141.5 436 174.25 460 c 0,57,58
 207 484 207 484 246 498 c 0,59,60
 285 512 285 512 328.5 512 c 0,61,62
 366 512 366 512 393.5 499.5 c 0,63,64
 421 487 421 487 439 469.75 c 0,65,66
 457 452.5 457 452.5 465.5 434.25 c 0,67,68
 474 416 474 416 474 404.5 c 0,0,1
341 405.5 m 0,69,70
 341 414.5 341 414.5 339.75 423.25 c 0,71,72
 338.5 432 338.5 432 334.75 439 c 0,73,74
 331 446 331 446 323.75 450.25 c 0,75,76
 316.5 454.5 316.5 454.5 305 454.5 c 0,77,78
 281 454.5 281 454.5 262.25 437.5 c 0,79,80
 243.5 420.5 243.5 420.5 229 394.25 c 0,81,82
 214.5 368 214.5 368 204 336.75 c 0,83,84
 193.5 305.5 193.5 305.5 186.5 277.5 c 0,85,86
 213 283.5 213 283.5 240.5 295.5 c 0,87,88
 268 307.5 268 307.5 290.25 324.25 c 0,89,90
 312.5 341 312.5 341 326.75 361.5 c 0,91,92
 341 382 341 382 341 405.5 c 0,69,70
EndSplineSet
EndChar

StartChar: f
Encoding: 73 102 73
Width: 370
VWidth: 500
Flags: W
LayerCount: 2
Fore
SplineSet
493.5 686 m 0,0,1
 493.5 674.5 493.5 674.5 490 663.25 c 0,2,3
 486.5 652 486.5 652 476.75 642.5 c 0,4,5
 467 633 467 633 449.75 625.5 c 0,6,7
 432.5 618 432.5 618 405.5 614.5 c 0,8,-1
 342 675 l 0,9,10
 321 656.5 321 656.5 308.25 629 c 0,11,12
 295.5 601.5 295.5 601.5 288 572.25 c 0,13,14
 280.5 543 280.5 543 277 515.75 c 0,15,16
 273.5 488.5 273.5 488.5 270.5 470 c 0,17,-1
 395.5 470 l 0,18,-1
 395.5 409.5 l 0,19,-1
 260 409.5 l 0,20,21
 258 395 258 395 254 366.25 c 0,22,23
 250 337.5 250 337.5 244.75 300.75 c 0,24,25
 239.5 264 239.5 264 233.25 223 c 0,26,27
 227 182 227 182 221 144 c 0,28,29
 215 106 215 106 209.5 74.25 c 0,30,31
 204 42.5 204 42.5 199.5 24.5 c 0,32,33
 193 -2.5 193 -2.5 181 -32.25 c 0,34,35
 169 -62 169 -62 152 -90.75 c 0,36,37
 135 -119.5 135 -119.5 113.75 -145.5 c 0,38,39
 92.5 -171.5 92.5 -171.5 67.25 -191.25 c 0,40,41
 42 -211 42 -211 13 -222.75 c 0,42,43
 -16 -234.5 -16 -234.5 -48 -234.5 c 0,44,45
 -70 -234.5 -70 -234.5 -86 -226.75 c 0,46,47
 -102 -219 -102 -219 -112.5 -208 c 0,48,49
 -123 -197 -123 -197 -128 -184.5 c 0,50,51
 -133 -172 -133 -172 -133 -163 c 0,52,53
 -133 -142.5 -133 -142.5 -120 -122 c 0,54,55
 -107 -101.5 -107 -101.5 -86 -87 c 0,56,-1
 6 -145.5 l 0,57,58
 18 -128.5 18 -128.5 28 -105.75 c 0,59,60
 38 -83 38 -83 46.25 -55.75 c 0,61,62
 54.5 -28.5 54.5 -28.5 61.75 2.25 c 0,63,64
 69 33 69 33 75 65.5 c 0,65,66
 88 136.5 88 136.5 98.25 222.5 c 0,67,68
 108.5 308.5 108.5 308.5 123 406.5 c 0,69,-1
 45 398.5 l 0,70,-1
 47 446.5 l 0,71,-1
 135 477 l 0,72,73
 140 502.5 140 502.5 148.5 532.75 c 0,74,75
 157 563 157 563 170.5 594 c 0,76,77
 184 625 184 625 202.5 653.75 c 0,78,79
 221 682.5 221 682.5 246.5 705 c 0,80,81
 272 727.5 272 727.5 304.75 741 c 0,82,83
 337.5 754.5 337.5 754.5 379 754.5 c 0,84,85
 407.5 754.5 407.5 754.5 428.75 747.5 c 0,86,87
 450 740.5 450 740.5 464.5 730.25 c 0,88,89
 479 720 479 720 486.25 708 c 0,90,91
 493.5 696 493.5 696 493.5 686 c 0,0,1
EndSplineSet
EndChar

StartChar: g
Encoding: 74 103 74
Width: 497
VWidth: 500
Flags: W
LayerCount: 2
Fore
SplineSet
451.5 427 m 0,0,1
 456 415.5 456 415.5 459.5 398.75 c 0,2,3
 463 382 463 382 463 363.5 c 0,4,5
 463 325.5 463 325.5 448.25 289.5 c 0,6,7
 433.5 253.5 433.5 253.5 404.75 225.5 c 0,8,9
 376 197.5 376 197.5 333.5 180.5 c 0,10,11
 291 163.5 291 163.5 235.5 163 c 0,12,13
 230 148.5 230 148.5 227.5 133.75 c 0,14,15
 225 119 225 119 226.5 110.5 c 0,16,-1
 362.5 49 l 0,17,18
 387 38.5 387 38.5 407 27.75 c 0,19,20
 427 17 427 17 441.25 4 c 0,21,22
 455.5 -9 455.5 -9 463.25 -25.5 c 0,23,24
 471 -42 471 -42 471 -64.5 c 0,25,26
 471 -97 471 -97 448.5 -127.5 c 0,27,28
 426 -158 426 -158 387.5 -181.75 c 0,29,30
 349 -205.5 349 -205.5 297.75 -220 c 0,31,32
 246.5 -234.5 246.5 -234.5 188.5 -234.5 c 0,33,34
 127.5 -234.5 127.5 -234.5 85.75 -220.75 c 0,35,36
 44 -207 44 -207 17.75 -185.25 c 0,37,38
 -8.5 -163.5 -8.5 -163.5 -20 -136 c 0,39,40
 -31.5 -108.5 -31.5 -108.5 -31.5 -81 c 0,41,42
 -31.5 -55 -31.5 -55 -21 -33 c 0,43,44
 -10.5 -11 -10.5 -11 8 7 c 0,45,46
 26.5 25 26.5 25 51.5 38.75 c 0,47,48
 76.5 52.5 76.5 52.5 105.5 62.5 c 0,49,50
 103.5 74.5 103.5 74.5 105.75 89.75 c 0,51,52
 108 105 108 105 113.25 120.75 c 0,53,54
 118.5 136.5 118.5 136.5 126.5 151 c 0,55,56
 134.5 165.5 134.5 165.5 144.5 176 c 0,57,58
 124 185.5 124 185.5 106.75 197.75 c 0,59,60
 89.5 210 89.5 210 76.75 225.5 c 0,61,62
 64 241 64 241 57 260.5 c 0,63,64
 50 280 50 280 50 304 c 0,65,66
 50 328 50 328 56 352.75 c 0,67,68
 62 377.5 62 377.5 74.5 400.5 c 0,69,70
 87 423.5 87 423.5 105.75 443.75 c 0,71,72
 124.5 464 124.5 464 150.25 479.25 c 0,73,74
 176 494.5 176 494.5 208.5 503.25 c 0,75,76
 241 512 241 512 280.5 512 c 0,77,78
 300 512 300 512 317.75 509.25 c 0,79,80
 335.5 506.5 335.5 506.5 350.5 502.25 c 0,81,82
 365.5 498 365.5 498 377.25 493.75 c 0,83,84
 389 489.5 389 489.5 396.5 486.5 c 0,85,-1
 546 486.5 l 0,86,-1
 546 427 l 0,87,-1
 451.5 427 l 0,0,1
321.5 368.5 m 0,88,89
 321.5 386.5 321.5 386.5 321 403 c 0,90,91
 320.5 419.5 320.5 419.5 316.75 432 c 0,92,93
 313 444.5 313 444.5 305 451.75 c 0,94,95
 297 459 297 459 282.5 459 c 0,96,97
 274 459 274 459 258.75 447 c 0,98,99
 243.5 435 243.5 435 228.5 413 c 0,100,101
 213.5 391 213.5 391 202.5 360.25 c 0,102,103
 191.5 329.5 191.5 329.5 191.5 292 c 0,104,105
 191.5 274 191.5 274 192.75 259.25 c 0,106,107
 194 244.5 194 244.5 197.75 233.75 c 0,108,109
 201.5 223 201.5 223 209 217 c 0,110,111
 216.5 211 216.5 211 229.5 211 c 0,112,113
 255 211 255 211 272.5 226.75 c 0,114,115
 290 242.5 290 242.5 300.75 266.25 c 0,116,117
 311.5 290 311.5 290 316.5 317.5 c 0,118,119
 321.5 345 321.5 345 321.5 368.5 c 0,88,89
333 -85 m 0,120,121
 333 -67.5 333 -67.5 322 -52 c 0,122,123
 311 -36.5 311 -36.5 282.5 -23.5 c 0,124,-1
 168 26.5 l 0,125,126
 151 20 151 20 139.5 10.5 c 0,127,128
 128 1 128 1 120.75 -10.75 c 0,129,130
 113.5 -22.5 113.5 -22.5 110.5 -36 c 0,131,132
 107.5 -49.5 107.5 -49.5 107.5 -63.5 c 0,133,134
 107.5 -80 107.5 -80 112.5 -99.75 c 0,135,136
 117.5 -119.5 117.5 -119.5 129.75 -136.75 c 0,137,138
 142 -154 142 -154 162.75 -165.5 c 0,139,140
 183.5 -177 183.5 -177 215 -177 c 0,141,142
 250 -177 250 -177 272.75 -167 c 0,143,144
 295.5 -157 295.5 -157 309 -142.75 c 0,145,146
 322.5 -128.5 322.5 -128.5 327.75 -112.75 c 0,147,148
 333 -97 333 -97 333 -85 c 0,120,121
EndSplineSet
EndChar

StartChar: h
Encoding: 75 104 75
Width: 578
VWidth: 500
Flags: W
LayerCount: 2
Fore
SplineSet
576.5 28.5 m 0,0,1
 538 10 538 10 498.75 -1.25 c 0,2,3
 459.5 -12.5 459.5 -12.5 419 -12.5 c 0,4,5
 401 -12.5 401 -12.5 382.25 -8.75 c 0,6,7
 363.5 -5 363.5 -5 349 3.5 c 0,8,9
 334.5 12 334.5 12 327 25.75 c 0,10,11
 319.5 39.5 319.5 39.5 323.5 59.5 c 0,12,-1
 385 357.5 l 0,13,14
 389 376 389 376 386.75 390.25 c 0,15,16
 384.5 404.5 384.5 404.5 379 414.25 c 0,17,18
 373.5 424 373.5 424 365.5 429 c 0,19,20
 357.5 434 357.5 434 350 434 c 0,21,22
 338.5 434 338.5 434 324 428.25 c 0,23,24
 309.5 422.5 309.5 422.5 293.5 412.25 c 0,25,26
 277.5 402 277.5 402 260.75 388.25 c 0,27,28
 244 374.5 244 374.5 228.5 358.5 c 0,29,-1
 153.5 0 l 0,30,-1
 17.5 0 l 0,31,-1
 158.5 677 l 0,32,-1
 68.5 685 l 0,33,-1
 68.5 722 l 0,34,-1
 241.5 754.5 l 0,35,-1
 312.5 754.5 l 0,36,-1
 251 465 l 0,37,38
 282 484 282 484 321.5 498 c 0,39,40
 361 512 361 512 406.5 512 c 0,41,42
 445 512 445 512 470.5 501.5 c 0,43,44
 496 491 496 491 510.25 472 c 0,45,46
 524.5 453 524.5 453 527.75 426.25 c 0,47,48
 531 399.5 531 399.5 524.5 367.5 c 0,49,-1
 467 96.5 l 0,50,51
 464.5 83.5 464.5 83.5 466.25 75 c 0,52,53
 468 66.5 468 66.5 472 61 c 0,54,55
 476 55.5 476 55.5 481 53.25 c 0,56,57
 486 51 486 51 490.5 51 c 0,58,59
 513 51 513 51 532.75 59 c 0,60,61
 552.5 67 552.5 67 575.5 80 c 0,62,-1
 576.5 28.5 l 0,0,1
EndSplineSet
EndChar

StartChar: i
Encoding: 76 105 76
Width: 317
VWidth: 500
Flags: W
LayerCount: 2
Fore
SplineSet
302 679 m 0,0,1
 302 662.5 302 662.5 295.75 648 c 0,2,3
 289.5 633.5 289.5 633.5 278.5 622.5 c 0,4,5
 267.5 611.5 267.5 611.5 253 605.25 c 0,6,7
 238.5 599 238.5 599 222 599 c 0,8,9
 205.5 599 205.5 599 191.25 605.25 c 0,10,11
 177 611.5 177 611.5 166.25 622.5 c 0,12,13
 155.5 633.5 155.5 633.5 149.5 648 c 0,14,15
 143.5 662.5 143.5 662.5 143.5 679 c 0,16,17
 143.5 695.5 143.5 695.5 149.5 710 c 0,18,19
 155.5 724.5 155.5 724.5 166.25 735 c 0,20,21
 177 745.5 177 745.5 191.25 751.75 c 0,22,23
 205.5 758 205.5 758 222 758 c 0,24,25
 238.5 758 238.5 758 253 751.75 c 0,26,27
 267.5 745.5 267.5 745.5 278.5 735 c 0,28,29
 289.5 724.5 289.5 724.5 295.75 710 c 0,30,31
 302 695.5 302 695.5 302 679 c 0,0,1
315.5 33 m 0,32,33
 269.5 8 269.5 8 228 -2.25 c 0,34,35
 186.5 -12.5 186.5 -12.5 142.5 -12.5 c 0,36,37
 114.5 -12.5 114.5 -12.5 95.25 -3 c 0,38,39
 76 6.5 76 6.5 65 21.5 c 0,40,41
 54 36.5 54 36.5 50.5 55.25 c 0,42,43
 47 74 47 74 51 93 c 0,44,-1
 115.5 433 l 0,45,-1
 27.5 442.5 l 0,46,-1
 27.5 478 l 0,47,-1
 196.5 512 l 0,48,-1
 268.5 512 l 0,49,-1
 189.5 101.5 l 0,50,51
 187.5 92.5 187.5 92.5 187 84 c 0,52,53
 186.5 75.5 186.5 75.5 188.25 69 c 0,54,55
 190 62.5 190 62.5 195 58.5 c 0,56,57
 200 54.5 200 54.5 209 54.5 c 0,58,59
 213 54.5 213 54.5 224.75 57 c 0,60,61
 236.5 59.5 236.5 59.5 252 64 c 0,62,63
 267.5 68.5 267.5 68.5 284.25 75 c 0,64,65
 301 81.5 301 81.5 315.5 89 c 0,66,-1
 315.5 33 l 0,32,33
EndSplineSet
EndChar

StartChar: j
Encoding: 77 106 77
Width: 325
VWidth: 500
Flags: W
LayerCount: 2
Fore
SplineSet
318.5 679 m 0,0,1
 318.5 662.5 318.5 662.5 312 648 c 0,2,3
 305.5 633.5 305.5 633.5 294.5 622.5 c 0,4,5
 283.5 611.5 283.5 611.5 268.75 605.25 c 0,6,7
 254 599 254 599 237.5 599 c 0,8,9
 221 599 221 599 206.5 605.25 c 0,10,11
 192 611.5 192 611.5 181.5 622.5 c 0,12,13
 171 633.5 171 633.5 164.75 648 c 0,14,15
 158.5 662.5 158.5 662.5 158.5 679 c 0,16,17
 158.5 695.5 158.5 695.5 164.75 710 c 0,18,19
 171 724.5 171 724.5 181.5 735 c 0,20,21
 192 745.5 192 745.5 206.5 751.75 c 0,22,23
 221 758 221 758 237.5 758 c 0,24,25
 254 758 254 758 268.75 751.75 c 0,26,27
 283.5 745.5 283.5 745.5 294.5 735 c 0,28,29
 305.5 724.5 305.5 724.5 312 710 c 0,30,31
 318.5 695.5 318.5 695.5 318.5 679 c 0,0,1
209 86 m 0,32,33
 204.5 60 204.5 60 193.75 26.25 c 0,34,35
 183 -7.5 183 -7.5 166.75 -43 c 0,36,37
 150.5 -78.5 150.5 -78.5 129 -113 c 0,38,39
 107.5 -147.5 107.5 -147.5 81 -174.5 c 0,40,41
 54.5 -201.5 54.5 -201.5 23.5 -218 c 0,42,43
 -7.5 -234.5 -7.5 -234.5 -43 -234.5 c 0,44,45
 -61 -234.5 -61 -234.5 -77.25 -230 c 0,46,47
 -93.5 -225.5 -93.5 -225.5 -105.5 -217.5 c 0,48,49
 -117.5 -209.5 -117.5 -209.5 -124.75 -198.75 c 0,50,51
 -132 -188 -132 -188 -132 -175 c 0,52,53
 -132 -165.5 -132 -165.5 -128.75 -157.75 c 0,54,55
 -125.5 -150 -125.5 -150 -119.75 -143.5 c 0,56,57
 -114 -137 -114 -137 -106.5 -131.25 c 0,58,59
 -99 -125.5 -99 -125.5 -90 -120 c 0,60,-1
 7 -145.5 l 0,61,62
 14 -134.5 14 -134.5 21.25 -118.5 c 0,63,64
 28.5 -102.5 28.5 -102.5 35.25 -83.75 c 0,65,66
 42 -65 42 -65 47.5 -45 c 0,67,68
 53 -25 53 -25 56.5 -6 c 0,69,-1
 132 432 l 0,70,-1
 44 441.5 l 0,71,-1
 44 478 l 0,72,-1
 214 512 l 0,73,-1
 281.5 512 l 0,74,-1
 209 86 l 0,32,33
EndSplineSet
EndChar

StartChar: k
Encoding: 78 107 78
Width: 563
VWidth: 500
Flags: W
LayerCount: 2
Fore
SplineSet
551 26.5 m 0,0,1
 538 20 538 20 520 13 c 0,2,3
 502 6 502 6 482 0.5 c 0,4,5
 462 -5 462 -5 441.5 -8.75 c 0,6,7
 421 -12.5 421 -12.5 403.5 -12.5 c 0,8,9
 389.5 -12.5 389.5 -12.5 375 -7.5 c 0,10,11
 360.5 -2.5 360.5 -2.5 347 5.5 c 0,12,13
 333.5 13.5 333.5 13.5 322.25 23.5 c 0,14,15
 311 33.5 311 33.5 304 44 c 0,16,17
 295.5 57 295.5 57 283.75 80 c 0,18,19
 272 103 272 103 259.5 129.25 c 0,20,21
 247 155.5 247 155.5 234.75 182 c 0,22,23
 222.5 208.5 222.5 208.5 213 229.5 c 0,24,-1
 191.5 210 l 0,25,-1
 148.5 0 l 0,26,-1
 12.5 0 l 0,27,-1
 149.5 677 l 0,28,-1
 59.5 685 l 0,29,-1
 59.5 722 l 0,30,-1
 232.5 754.5 l 0,31,-1
 302 754.5 l 0,32,-1
 216 334 l 0,33,-1
 331 451.5 l 0,34,35
 362.5 484.5 362.5 484.5 390.5 498.25 c 0,36,37
 418.5 512 418.5 512 448.5 512 c 0,38,39
 467 512 467 512 483 506.75 c 0,40,41
 499 501.5 499 501.5 510.75 492.75 c 0,42,43
 522.5 484 522.5 484 529 473.5 c 0,44,45
 535.5 463 535.5 463 535.5 452.5 c 0,46,47
 535.5 443.5 535.5 443.5 533.25 430.5 c 0,48,49
 531 417.5 531 417.5 522.5 403.75 c 0,50,51
 514 390 514 390 497 376.75 c 0,52,53
 480 363.5 480 363.5 450.5 353.5 c 0,54,-1
 409.5 420 l 0,55,56
 397.5 409.5 397.5 409.5 383.5 396.25 c 0,57,58
 369.5 383 369.5 383 355.75 369.75 c 0,59,60
 342 356.5 342 356.5 329.25 344.25 c 0,61,62
 316.5 332 316.5 332 307 323.5 c 0,63,64
 314 310.5 314 310.5 322.25 290.5 c 0,65,66
 330.5 270.5 330.5 270.5 339.75 247.5 c 0,67,68
 349 224.5 349 224.5 359.25 200.5 c 0,69,70
 369.5 176.5 369.5 176.5 381 155.5 c 0,71,72
 392 135.5 392 135.5 402 117 c 0,73,74
 412 98.5 412 98.5 422 84 c 0,75,76
 432 69.5 432 69.5 443 60.75 c 0,77,78
 454 52 454 52 467 52 c 0,79,80
 468 52 468 52 487.75 57.75 c 0,81,82
 507.5 63.5 507.5 63.5 551 81 c 0,83,-1
 551 26.5 l 0,0,1
EndSplineSet
EndChar

StartChar: l
Encoding: 79 108 79
Width: 313
VWidth: 500
Flags: W
LayerCount: 2
Fore
SplineSet
311.5 29.5 m 0,0,1
 274 10.5 274 10.5 230.75 -1 c 0,2,3
 187.5 -12.5 187.5 -12.5 147.5 -12.5 c 0,4,5
 96.5 -12.5 96.5 -12.5 68.25 8.75 c 0,6,7
 40 30 40 30 40 65.5 c 0,8,9
 40 74 40 74 40.75 83.25 c 0,10,11
 41.5 92.5 41.5 92.5 44 102.5 c 0,12,-1
 155.5 677 l 0,13,-1
 65.5 685 l 0,14,-1
 65.5 722 l 0,15,-1
 238.5 754.5 l 0,16,-1
 306 754.5 l 0,17,-1
 180 104.5 l 0,18,19
 178.5 95.5 178.5 95.5 178.75 86.75 c 0,20,21
 179 78 179 78 182 70.75 c 0,22,23
 185 63.5 185 63.5 191 59 c 0,24,25
 197 54.5 197 54.5 207 54.5 c 0,26,27
 219 54.5 219 54.5 247 61.75 c 0,28,29
 275 69 275 69 311.5 85 c 0,30,-1
 311.5 29.5 l 0,0,1
EndSplineSet
EndChar

StartChar: m
Encoding: 80 109 80
Width: 846
VWidth: 500
Flags: W
LayerCount: 2
Fore
SplineSet
843 29.5 m 0,0,1
 804 9.5 804 9.5 767.75 -1.5 c 0,2,3
 731.5 -12.5 731.5 -12.5 692 -12.5 c 0,4,5
 668.5 -12.5 668.5 -12.5 648.25 -7.75 c 0,6,7
 628 -3 628 -3 613.5 6.75 c 0,8,9
 599 16.5 599 16.5 592 30.5 c 0,10,11
 585 44.5 585 44.5 589 63.5 c 0,12,-1
 645 336 l 0,13,14
 665.5 432 665.5 432 625.5 432 c 0,15,16
 603 432 603 432 583.25 422.25 c 0,17,18
 563.5 412.5 563.5 412.5 548.25 399 c 0,19,20
 533 385.5 533 385.5 522 371.5 c 0,21,22
 511 357.5 511 357.5 506 349 c 0,23,-1
 432 0 l 0,24,-1
 297 0 l 0,25,-1
 367.5 337 l 0,26,27
 370.5 352 370.5 352 373.25 368.75 c 0,28,29
 376 385.5 376 385.5 374.75 399.5 c 0,30,31
 373.5 413.5 373.5 413.5 366.5 422.75 c 0,32,33
 359.5 432 359.5 432 343 432 c 0,34,35
 327 432 327 432 310.5 423.25 c 0,36,37
 294 414.5 294 414.5 279 401.5 c 0,38,39
 264 388.5 264 388.5 250.75 373.75 c 0,40,41
 237.5 359 237.5 359 227.5 347 c 0,42,-1
 154.5 0 l 0,43,-1
 18.5 0 l 0,44,-1
 108.5 435 l 0,45,-1
 22.5 443.5 l 0,46,-1
 22.5 478 l 0,47,-1
 191.5 512 l 0,48,-1
 262 512 l 0,49,-1
 250 453.5 l 0,50,51
 287 479 287 479 326 495.5 c 0,52,53
 365 512 365 512 400.5 512 c 0,54,55
 421.5 512 421.5 512 438.25 506 c 0,56,57
 455 500 455 500 468 490.25 c 0,58,59
 481 480.5 481 480.5 490 468 c 0,60,61
 499 455.5 499 455.5 505 442.5 c 0,62,63
 525 457.5 525 457.5 547.5 470.25 c 0,64,65
 570 483 570 483 593 492.25 c 0,66,67
 616 501.5 616 501.5 638.5 506.75 c 0,68,69
 661 512 661 512 681 512 c 0,70,71
 708 512 708 512 731 502.5 c 0,72,73
 754 493 754 493 769.5 475.5 c 0,74,75
 785 458 785 458 791 433.25 c 0,76,77
 797 408.5 797 408.5 790.5 378 c 0,78,-1
 732 102.5 l 0,79,80
 727.5 80.5 727.5 80.5 733 65.75 c 0,81,82
 738.5 51 738.5 51 758 51 c 0,83,84
 763 51 763 51 773 53 c 0,85,86
 783 55 783 55 795 58.5 c 0,87,88
 807 62 807 62 819.5 66.75 c 0,89,90
 832 71.5 832 71.5 843 77 c 0,91,-1
 843 29.5 l 0,0,1
EndSplineSet
EndChar

StartChar: n
Encoding: 81 110 81
Width: 592
VWidth: 500
Flags: W
LayerCount: 2
Fore
SplineSet
588 23.5 m 0,0,1
 574.5 17 574.5 17 554.5 10.5 c 0,2,3
 534.5 4 534.5 4 512.25 -1 c 0,4,5
 490 -6 490 -6 467.75 -9.25 c 0,6,7
 445.5 -12.5 445.5 -12.5 428 -12.5 c 0,8,9
 411 -12.5 411 -12.5 391.25 -10 c 0,10,11
 371.5 -7.5 371.5 -7.5 355.25 -0.5 c 0,12,13
 339 6.5 339 6.5 329.75 19 c 0,14,15
 320.5 31.5 320.5 31.5 324.5 52 c 0,16,-1
 387 364.5 l 0,17,18
 391 383 391 383 390.75 395.75 c 0,19,20
 390.5 408.5 390.5 408.5 386.75 416.5 c 0,21,22
 383 424.5 383 424.5 376.75 427.75 c 0,23,24
 370.5 431 370.5 431 362.5 431 c 0,25,26
 350.5 431 350.5 431 335 424 c 0,27,28
 319.5 417 319.5 417 302.25 405.5 c 0,29,30
 285 394 285 394 267.25 378.75 c 0,31,32
 249.5 363.5 249.5 363.5 233.5 347 c 0,33,-1
 161 0 l 0,34,-1
 24.5 0 l 0,35,-1
 114.5 435 l 0,36,-1
 28.5 443.5 l 0,37,-1
 28.5 478 l 0,38,-1
 196.5 512 l 0,39,-1
 267.5 512 l 0,40,-1
 255 452.5 l 0,41,42
 273.5 465 273.5 465 294.25 476 c 0,43,44
 315 487 315 487 336.25 495 c 0,45,46
 357.5 503 357.5 503 378.75 507.5 c 0,47,48
 400 512 400 512 420 512 c 0,49,50
 458 512 458 512 482.75 503.25 c 0,51,52
 507.5 494.5 507.5 494.5 520.25 477.5 c 0,53,54
 533 460.5 533 460.5 535.25 435.5 c 0,55,56
 537.5 410.5 537.5 410.5 531.5 378 c 0,57,-1
 476 90 l 0,58,59
 473.5 77.5 473.5 77.5 475.75 69.75 c 0,60,61
 478 62 478 62 482.25 57.5 c 0,62,63
 486.5 53 486.5 53 491.5 51.5 c 0,64,65
 496.5 50 496.5 50 500.5 50 c 0,66,67
 516.5 50 516.5 50 539.5 56.25 c 0,68,69
 562.5 62.5 562.5 62.5 585.5 72.5 c 0,70,-1
 588 23.5 l 0,0,1
EndSplineSet
EndChar

StartChar: o
Encoding: 82 111 82
Width: 566
VWidth: 500
Flags: W
LayerCount: 2
Fore
SplineSet
534.5 310.5 m 0,0,1
 534.5 270 534.5 270 525.5 230.5 c 0,2,3
 516.5 191 516.5 191 499 155.25 c 0,4,5
 481.5 119.5 481.5 119.5 456 88.75 c 0,6,7
 430.5 58 430.5 58 397.5 35.5 c 0,8,9
 364.5 13 364.5 13 324.25 0.25 c 0,10,11
 284 -12.5 284 -12.5 237.5 -12.5 c 0,12,13
 185 -12.5 185 -12.5 146.5 2.5 c 0,14,15
 108 17.5 108 17.5 82.75 43.75 c 0,16,17
 57.5 70 57.5 70 45.25 106.25 c 0,18,19
 33 142.5 33 142.5 33 185.5 c 0,20,21
 33 225.5 33 225.5 41.75 265.25 c 0,22,23
 50.5 305 50.5 305 67.25 341.5 c 0,24,25
 84 378 84 378 109 409 c 0,26,27
 134 440 134 440 166.75 463 c 0,28,29
 199.5 486 199.5 486 239.75 499 c 0,30,31
 280 512 280 512 327.5 512 c 0,32,33
 374.5 512 374.5 512 412.75 499.25 c 0,34,35
 451 486.5 451 486.5 478 461.25 c 0,36,37
 505 436 505 436 519.75 398.25 c 0,38,39
 534.5 360.5 534.5 360.5 534.5 310.5 c 0,0,1
387 314.5 m 0,40,41
 387 352 387 352 379.5 379 c 0,42,43
 372 406 372 406 361.25 423.5 c 0,44,45
 350.5 441 350.5 441 338.25 449.25 c 0,46,47
 326 457.5 326 457.5 316.5 457.5 c 0,48,49
 301 457.5 301 457.5 284.75 447.25 c 0,50,51
 268.5 437 268.5 437 253.25 418.75 c 0,52,53
 238 400.5 238 400.5 224.5 375.25 c 0,54,55
 211 350 211 350 200.75 320.25 c 0,56,57
 190.5 290.5 190.5 290.5 184.75 257.25 c 0,58,59
 179 224 179 224 179 189.5 c 0,60,61
 179 150 179 150 186.75 122.25 c 0,62,63
 194.5 94.5 194.5 94.5 205.75 77.25 c 0,64,65
 217 60 217 60 229 52 c 0,66,67
 241 44 241 44 250 44 c 0,68,69
 277 44 277 44 301.75 68.5 c 0,70,71
 326.5 93 326.5 93 345.5 132 c 0,72,73
 364.5 171 364.5 171 375.75 219 c 0,74,75
 387 267 387 267 387 314.5 c 0,40,41
EndSplineSet
EndChar

StartChar: p
Encoding: 83 112 83
Width: 554
VWidth: 500
Flags: W
LayerCount: 2
Fore
SplineSet
521 318.5 m 0,0,1
 521 277.5 521 277.5 511 237 c 0,2,3
 501 196.5 501 196.5 482.25 159.75 c 0,4,5
 463.5 123 463.5 123 436 91.5 c 0,6,7
 408.5 60 408.5 60 373.5 37 c 0,8,9
 338.5 14 338.5 14 296 0.75 c 0,10,11
 253.5 -12.5 253.5 -12.5 205 -12.5 c 0,12,13
 186 -12.5 186 -12.5 171.75 -9.75 c 0,14,15
 157.5 -7 157.5 -7 147.5 -4 c 0,16,-1
 116.5 -155.5 l 0,17,18
 115 -162.5 115 -162.5 119.25 -167.25 c 0,19,20
 123.5 -172 123.5 -172 132 -172 c 0,21,22
 139 -172.5 139 -172.5 149.5 -173.5 c 0,23,24
 158.5 -174.5 158.5 -174.5 171.75 -175.5 c 0,25,26
 185 -176.5 185 -176.5 203 -178 c 0,27,-1
 203 -224.5 l 0,28,-1
 -98.5 -224.5 l 0,29,-1
 -98.5 -178 l 0,30,31
 -90.5 -177 -90.5 -177 -79.75 -176.5 c 0,32,33
 -69 -176 -69 -176 -59.5 -175 c 0,34,35
 -48.5 -174 -48.5 -174 -37 -173 c 0,36,37
 -29 -172 -29 -172 -25 -167.25 c 0,38,39
 -21 -162.5 -21 -162.5 -19.5 -155.5 c 0,40,-1
 96.5 434 l 0,41,-1
 11.5 443.5 l 0,42,-1
 11.5 478 l 0,43,-1
 180 512 l 0,44,-1
 249 512 l 0,45,-1
 241.5 474 l 0,46,47
 249.5 478.5 249.5 478.5 262.25 485 c 0,48,49
 275 491.5 275 491.5 291 497.5 c 0,50,51
 307 503.5 307 503.5 325.5 507.75 c 0,52,53
 344 512 344 512 364.5 512 c 0,54,55
 405 512 405 512 434.5 494.75 c 0,56,57
 464 477.5 464 477.5 483.25 450 c 0,58,59
 502.5 422.5 502.5 422.5 511.75 388 c 0,60,61
 521 353.5 521 353.5 521 318.5 c 0,0,1
378 314.5 m 0,62,63
 378 336 378 336 376 358.25 c 0,64,65
 374 380.5 374 380.5 367.5 398.75 c 0,66,67
 361 417 361 417 348.75 428.75 c 0,68,69
 336.5 440.5 336.5 440.5 316.5 440.5 c 0,70,71
 305.5 440.5 305.5 440.5 292.75 434.5 c 0,72,73
 280 428.5 280 428.5 267.25 419.75 c 0,74,75
 254.5 411 254.5 411 243.25 401.5 c 0,76,77
 232 392 232 392 224.5 385 c 0,78,-1
 162 69.5 l 0,79,80
 168 65.5 168 65.5 176 60.75 c 0,81,82
 184 56 184 56 192.5 52 c 0,83,84
 201 48 201 48 209.25 45 c 0,85,86
 217.5 42 217.5 42 224.5 42 c 0,87,88
 246 42 246 42 265.75 53.75 c 0,89,90
 285.5 65.5 285.5 65.5 302.5 86 c 0,91,92
 319.5 106.5 319.5 106.5 333.5 133.25 c 0,93,94
 347.5 160 347.5 160 357.25 190.5 c 0,95,96
 367 221 367 221 372.5 252.75 c 0,97,98
 378 284.5 378 284.5 378 314.5 c 0,62,63
EndSplineSet
EndChar

StartChar: q
Encoding: 84 113 84
Width: 583
VWidth: 500
Flags: W
LayerCount: 2
Fore
SplineSet
418 -155.5 m 0,0,1
 416 -162.5 416 -162.5 418.25 -167.25 c 0,2,3
 420.5 -172 420.5 -172 429 -172 c 0,4,5
 437.5 -172.5 437.5 -172.5 448.5 -173.5 c 0,6,7
 458 -174.5 458 -174.5 471.75 -175.5 c 0,8,9
 485.5 -176.5 485.5 -176.5 503 -178 c 0,10,-1
 503 -224.5 l 0,11,-1
 201.5 -224.5 l 0,12,-1
 201.5 -178 l 0,13,14
 208.5 -177.5 208.5 -177.5 219 -176.5 c 0,15,16
 229.5 -175.5 229.5 -175.5 239.5 -174.5 c 0,17,18
 251.5 -173 251.5 -173 264 -172 c 0,19,20
 278.5 -170.5 278.5 -170.5 281.5 -155.5 c 0,21,-1
 317.5 22.5 l 0,22,23
 286.5 5 286.5 5 256 -4.75 c 0,24,25
 225.5 -14.5 225.5 -14.5 197.5 -14.5 c 0,26,27
 156.5 -14.5 156.5 -14.5 126 -1.5 c 0,28,29
 95.5 11.5 95.5 11.5 75.25 36 c 0,30,31
 55 60.5 55 60.5 45 95.75 c 0,32,33
 35 131 35 131 35 175 c 0,34,35
 35 213.5 35 213.5 44 253.25 c 0,36,37
 53 293 53 293 71 330.5 c 0,38,39
 89 368 89 368 115.25 401 c 0,40,41
 141.5 434 141.5 434 176.25 458.75 c 0,42,43
 211 483.5 211 483.5 253.5 497.75 c 0,44,45
 296 512 296 512 346 512 c 0,46,47
 371.5 512 371.5 512 394.5 506.75 c 0,48,49
 417.5 501.5 417.5 501.5 435 493.5 c 0,50,-1
 451.5 512 l 0,51,-1
 551 512 l 0,52,-1
 418 -155.5 l 0,0,1
392 399.5 m 0,53,54
 393.5 404.5 393.5 404.5 390.5 414 c 0,55,56
 387.5 423.5 387.5 423.5 382.5 432.75 c 0,57,58
 377.5 442 377.5 442 371.25 448.75 c 0,59,60
 365 455.5 365 455.5 359.5 455.5 c 0,61,62
 327 455.5 327 455.5 294 435.25 c 0,63,64
 261 415 261 415 234.5 378.75 c 0,65,66
 208 342.5 208 342.5 191.5 291.5 c 0,67,68
 175 240.5 175 240.5 175 179 c 0,69,70
 175 151.5 175 151.5 178 129 c 0,71,72
 181 106.5 181 106.5 188 90.75 c 0,73,74
 195 75 195 75 207.25 66.25 c 0,75,76
 219.5 57.5 219.5 57.5 238.5 57.5 c 0,77,78
 254 57.5 254 57.5 267.25 63.5 c 0,79,80
 280.5 69.5 280.5 69.5 292.25 78.5 c 0,81,82
 304 87.5 304 87.5 314.75 98 c 0,83,84
 325.5 108.5 325.5 108.5 336 118 c 0,85,-1
 392 399.5 l 0,53,54
EndSplineSet
EndChar

StartChar: r
Encoding: 85 114 85
Width: 429
VWidth: 500
Flags: W
LayerCount: 2
Fore
SplineSet
467 439.5 m 0,0,1
 467 404 467 404 444.5 386.25 c 0,2,3
 422 368.5 422 368.5 369.5 368.5 c 0,4,-1
 342 424 l 0,5,6
 318 412 318 412 296.25 395.25 c 0,7,8
 274.5 378.5 274.5 378.5 257.5 358.5 c 0,9,10
 240.5 338.5 240.5 338.5 228.5 316 c 0,11,12
 216.5 293.5 216.5 293.5 212 270.5 c 0,13,-1
 154.5 0 l 0,14,-1
 18.5 0 l 0,15,-1
 108.5 433 l 0,16,-1
 22.5 442.5 l 0,17,-1
 22.5 478 l 0,18,-1
 192.5 512 l 0,19,-1
 263 512 l 0,20,-1
 250 443.5 l 0,21,22
 263.5 457.5 263.5 457.5 279.75 470 c 0,23,24
 296 482.5 296 482.5 314 492 c 0,25,26
 332 501.5 332 501.5 351 506.75 c 0,27,28
 370 512 370 512 389 512 c 0,29,30
 409 512 409 512 423.75 504.75 c 0,31,32
 438.5 497.5 438.5 497.5 448 486.75 c 0,33,34
 457.5 476 457.5 476 462.25 463.25 c 0,35,36
 467 450.5 467 450.5 467 439.5 c 0,0,1
EndSplineSet
EndChar

StartChar: s
Encoding: 86 115 86
Width: 425
VWidth: 500
Flags: W
LayerCount: 2
Fore
SplineSet
403.5 433 m 0,0,1
 403.5 398.5 403.5 398.5 384 382 c 0,2,3
 364.5 365.5 364.5 365.5 317.5 362.5 c 0,4,-1
 265 451.5 l 0,5,6
 261.5 452.5 261.5 452.5 257.5 453.5 c 0,7,8
 254 454.5 254 454.5 249 455 c 0,9,10
 244 455.5 244 455.5 238.5 455.5 c 0,11,12
 223 455.5 223 455.5 214.5 449.25 c 0,13,14
 206 443 206 443 201.75 433.5 c 0,15,16
 197.5 424 197.5 424 196.5 412.75 c 0,17,18
 195.5 401.5 195.5 401.5 195.5 392 c 0,19,20
 195.5 376 195.5 376 203.5 361 c 0,21,22
 211.5 346 211.5 346 224.5 331.75 c 0,23,24
 237.5 317.5 237.5 317.5 253.75 303.75 c 0,25,26
 270 290 270 290 286.5 277.5 c 0,27,28
 304 264 304 264 320.25 249.75 c 0,29,30
 336.5 235.5 336.5 235.5 349.25 219.75 c 0,31,32
 362 204 362 204 369.5 187 c 0,33,34
 377 170 377 170 377 151.5 c 0,35,36
 377 122 377 122 363 92.5 c 0,37,38
 349 63 349 63 320.5 39.75 c 0,39,40
 292 16.5 292 16.5 249 2 c 0,41,42
 206 -12.5 206 -12.5 148.5 -12.5 c 0,43,44
 108 -12.5 108 -12.5 78.75 -4.25 c 0,45,46
 49.5 4 49.5 4 30.5 17.75 c 0,47,48
 11.5 31.5 11.5 31.5 2.25 49 c 0,49,50
 -7 66.5 -7 66.5 -7 85 c 0,51,52
 -7 98.5 -7 98.5 -2 111 c 0,53,54
 3 123.5 3 123.5 11.25 133.25 c 0,55,56
 19.5 143 19.5 143 29.5 148.75 c 0,57,58
 39.5 154.5 39.5 154.5 50 154.5 c 0,59,60
 72.5 154.5 72.5 154.5 88 147.75 c 0,61,62
 103.5 141 103.5 141 113.5 130 c 0,63,-1
 95 69.5 l 0,64,65
 100.5 62 100.5 62 110.5 56 c 0,66,67
 120.5 50 120.5 50 132.25 46 c 0,68,69
 144 42 144 42 156.25 40 c 0,70,71
 168.5 38 168.5 38 179 38 c 0,72,73
 210 38 210 38 225.25 59.25 c 0,74,75
 240.5 80.5 240.5 80.5 240.5 116.5 c 0,76,77
 240.5 132 240.5 132 234.5 145.75 c 0,78,79
 228.5 159.5 228.5 159.5 217.5 172.5 c 0,80,81
 206.5 185.5 206.5 185.5 191 198.25 c 0,82,83
 175.5 211 175.5 211 156.5 225.5 c 0,84,85
 140.5 237.5 140.5 237.5 125.25 252 c 0,86,87
 110 266.5 110 266.5 98 282.75 c 0,88,89
 86 299 86 299 78.75 317 c 0,90,91
 71.5 335 71.5 335 71.5 354.5 c 0,92,93
 71.5 390.5 71.5 390.5 88.5 419.5 c 0,94,95
 105.5 448.5 105.5 448.5 134 469.25 c 0,96,97
 162.5 490 162.5 490 200 501 c 0,98,99
 237.5 512 237.5 512 278.5 512 c 0,100,101
 310.5 512 310.5 512 334 503.25 c 0,102,103
 357.5 494.5 357.5 494.5 373 482.25 c 0,104,105
 388.5 470 388.5 470 396 456.25 c 0,106,107
 403.5 442.5 403.5 442.5 403.5 433 c 0,0,1
EndSplineSet
EndChar

StartChar: t
Encoding: 87 116 87
Width: 352
VWidth: 500
Flags: W
LayerCount: 2
Fore
SplineSet
250 428 m 0,0,-1
 185.5 111.5 l 0,1,2
 180 87.5 180 87.5 190.75 73 c 0,3,4
 201.5 58.5 201.5 58.5 225.5 58.5 c 0,5,6
 237.5 58.5 237.5 58.5 254.25 62.5 c 0,7,8
 271 66.5 271 66.5 289 72 c 0,9,10
 307 77.5 307 77.5 324 83.75 c 0,11,12
 341 90 341 90 353.5 94 c 0,13,-1
 353.5 38 l 0,14,15
 345 34 345 34 323.5 25.75 c 0,16,17
 302 17.5 302 17.5 274.5 9 c 0,18,19
 247 0.5 247 0.5 217.5 -6 c 0,20,21
 188 -12.5 188 -12.5 164 -12.5 c 0,22,23
 134.5 -12.5 134.5 -12.5 112.5 -5.5 c 0,24,25
 90.5 1.5 90.5 1.5 76 13.75 c 0,26,27
 61.5 26 61.5 26 54.25 43 c 0,28,29
 47 60 47 60 47 80 c 0,30,31
 47 90 47 90 47.75 100 c 0,32,33
 48.5 110 48.5 110 51 121 c 0,34,-1
 113.5 426 l 0,35,-1
 40 418 l 0,36,-1
 40 460 l 0,37,-1
 127 494.5 l 0,38,-1
 179 600 l 0,39,-1
 281.5 600 l 0,40,-1
 260 484.5 l 0,41,-1
 402.5 484.5 l 0,42,-1
 402.5 428 l 0,43,-1
 250 428 l 0,0,-1
EndSplineSet
EndChar

StartChar: u
Encoding: 88 117 88
Width: 588
VWidth: 500
Flags: W
LayerCount: 2
Fore
SplineSet
585.5 28.5 m 0,0,1
 575 23 575 23 556.75 15.75 c 0,2,3
 538.5 8.5 538.5 8.5 516.25 2.25 c 0,4,5
 494 -4 494 -4 470 -8.25 c 0,6,7
 446 -12.5 446 -12.5 424 -12.5 c 0,8,9
 397.5 -12.5 397.5 -12.5 381 -7 c 0,10,11
 364.5 -1.5 364.5 -1.5 355.25 6.25 c 0,12,13
 346 14 346 14 342 22.25 c 0,14,15
 338 30.5 338 30.5 337 36 c 0,16,17
 303 12.5 303 12.5 263.5 0 c 0,18,19
 224 -12.5 224 -12.5 174 -12.5 c 0,20,21
 136 -12.5 136 -12.5 109.75 0.5 c 0,22,23
 83.5 13.5 83.5 13.5 68.25 33 c 0,24,25
 53 52.5 53 52.5 48.25 75.75 c 0,26,27
 43.5 99 43.5 99 48 120 c 0,28,-1
 114.5 434 l 0,29,-1
 28.5 443.5 l 0,30,-1
 28.5 478 l 0,31,-1
 197.5 512 l 0,32,-1
 268.5 512 l 0,33,-1
 184.5 120 l 0,34,35
 182 108 182 108 183.25 97 c 0,36,37
 184.5 86 184.5 86 189 77.75 c 0,38,39
 193.5 69.5 193.5 69.5 201 64.5 c 0,40,41
 208.5 59.5 208.5 59.5 218 59.5 c 0,42,43
 235 59.5 235 59.5 251.25 64.25 c 0,44,45
 267.5 69 267.5 69 282.75 77.5 c 0,46,47
 298 86 298 86 312.5 97 c 0,48,49
 327 108 327 108 341 121 c 0,50,-1
 421 499.5 l 0,51,-1
 557 499.5 l 0,52,-1
 473 102.5 l 0,53,54
 467 74 467 74 475.25 61.5 c 0,55,56
 483.5 49 483.5 49 499.5 49 c 0,57,58
 503.5 49 503.5 49 508.75 50.25 c 0,59,60
 514 51.5 514 51.5 523.25 55.25 c 0,61,62
 532.5 59 532.5 59 547.25 66.25 c 0,63,64
 562 73.5 562 73.5 585.5 86 c 0,65,-1
 585.5 28.5 l 0,0,1
EndSplineSet
EndChar

StartChar: v
Encoding: 89 118 89
Width: 521
VWidth: 500
Flags: W
LayerCount: 2
Fore
SplineSet
526.5 446.5 m 0,0,1
 526.5 433.5 526.5 433.5 524 421.5 c 0,2,3
 521.5 409.5 521.5 409.5 518 399.5 c 0,4,5
 514.5 389.5 514.5 389.5 510.5 381.75 c 0,6,7
 506.5 374 506.5 374 504 369.5 c 0,8,9
 469.5 306.5 469.5 306.5 430 249.25 c 0,10,11
 390.5 192 390.5 192 351.75 143 c 0,12,13
 313 94 313 94 278.5 54.5 c 0,14,15
 244 15 244 15 219 -12.5 c 0,16,-1
 119 -12.5 l 0,17,18
 132 14 132 14 137.75 33.75 c 0,19,20
 143.5 53.5 143.5 53.5 142.5 70.5 c 0,21,22
 142.5 72 142.5 72 141.5 85.75 c 0,23,24
 140.5 99.5 140.5 99.5 138.75 121 c 0,25,26
 137 142.5 137 142.5 134.5 170.25 c 0,27,28
 132 198 132 198 129 227.5 c 0,29,30
 126 257 126 257 122.5 287 c 0,31,32
 119 317 119 317 115.25 342.75 c 0,33,34
 111.5 368.5 111.5 368.5 107.5 388.75 c 0,35,36
 103.5 409 103.5 409 99.5 419 c 0,37,38
 97 424.5 97 424.5 95.25 428 c 0,39,40
 93.5 431.5 93.5 431.5 91 433.25 c 0,41,42
 88.5 435 88.5 435 84.5 435.5 c 0,43,44
 80.5 436 80.5 436 73.5 436 c 0,45,46
 63 436.5 63 436.5 51.5 437.5 c 0,47,48
 41.5 438 41.5 438 28.75 438.5 c 0,49,50
 16 439 16 439 3 439.5 c 0,51,-1
 3 476 l 0,52,-1
 125 512 l 0,53,54
 178 511 178 511 206.75 492.5 c 0,55,56
 235.5 474 235.5 474 239.5 435 c 0,57,-1
 267.5 171 l 0,58,59
 286 196.5 286 196.5 303.75 219.25 c 0,60,61
 321.5 242 321.5 242 337 264.25 c 0,62,63
 352.5 286.5 352.5 286.5 365.75 309 c 0,64,65
 379 331.5 379 331.5 389 355.5 c 0,66,-1
 360.5 485.5 l 0,67,68
 373.5 498 373.5 498 395.5 505 c 0,69,70
 417.5 512 417.5 512 441.5 512 c 0,71,72
 459.5 512 459.5 512 475 507.5 c 0,73,74
 490.5 503 490.5 503 502 494.25 c 0,75,76
 513.5 485.5 513.5 485.5 520 473.5 c 0,77,78
 526.5 461.5 526.5 461.5 526.5 446.5 c 0,0,1
EndSplineSet
EndChar

StartChar: w
Encoding: 90 119 90
Width: 769
VWidth: 500
Flags: W
LayerCount: 2
Fore
SplineSet
773 447.5 m 0,0,1
 773 426 773 426 762 396.25 c 0,2,3
 751 366.5 751 366.5 732.75 332 c 0,4,5
 714.5 297.5 714.5 297.5 691 260.25 c 0,6,7
 667.5 223 667.5 223 642.25 186.5 c 0,8,9
 617 150 617 150 592.25 116.75 c 0,10,11
 567.5 83.5 567.5 83.5 547 56.5 c 0,12,13
 526.5 29.5 526.5 29.5 512 11.5 c 0,14,15
 497.5 -6.5 497.5 -6.5 492.5 -12.5 c 0,16,-1
 391 -12.5 l 0,17,-1
 370.5 280.5 l 0,18,19
 350.5 241 350.5 241 329 200.75 c 0,20,21
 307.5 160.5 307.5 160.5 285.75 122.5 c 0,22,23
 264 84.5 264 84.5 243.25 50 c 0,24,25
 222.5 15.5 222.5 15.5 204 -12.5 c 0,26,-1
 98.5 -12.5 l 0,27,-1
 109.5 15.5 l 0,28,-1
 82 434 l 0,29,-1
 4 442.5 l 0,30,-1
 4 475 l 0,31,-1
 141.5 512 l 0,32,-1
 215 499.5 l 0,33,-1
 234.5 190.5 l 0,34,35
 252 224.5 252 224.5 270 261.5 c 0,36,37
 288 298.5 288 298.5 305.75 336.25 c 0,38,39
 323.5 374 323.5 374 340.75 412.25 c 0,40,41
 358 450.5 358 450.5 374 487.5 c 0,42,-1
 490.5 499.5 l 0,43,-1
 515 139.5 l 0,44,45
 532.5 165 532.5 165 552.75 194.25 c 0,46,47
 573 223.5 573 223.5 592.75 253.75 c 0,48,49
 612.5 284 612.5 284 630 314.5 c 0,50,51
 647.5 345 647.5 345 660.5 372.5 c 0,52,-1
 621.5 481.5 l 0,53,54
 623.5 484.5 623.5 484.5 628.75 489.75 c 0,55,56
 634 495 634 495 642.25 499.75 c 0,57,58
 650.5 504.5 650.5 504.5 662.25 508.25 c 0,59,60
 674 512 674 512 690 512 c 0,61,62
 711 512 711 512 726.5 504.5 c 0,63,64
 742 497 742 497 752.25 486.5 c 0,65,66
 762.5 476 762.5 476 767.75 465 c 0,67,68
 773 454 773 454 773 447.5 c 0,0,1
EndSplineSet
EndChar

StartChar: x
Encoding: 91 120 91
Width: 590
VWidth: 500
Flags: W
LayerCount: 2
Fore
SplineSet
600 447.5 m 0,0,1
 600 437.5 600 437.5 598.5 424 c 0,2,3
 597 410.5 597 410.5 590.25 398.5 c 0,4,5
 583.5 386.5 583.5 386.5 569 378 c 0,6,7
 554.5 369.5 554.5 369.5 528.5 369.5 c 0,8,-1
 483.5 423 l 0,9,10
 471 414 471 414 454.5 398.5 c 0,11,12
 438 383 438 383 420.75 362.25 c 0,13,14
 403.5 341.5 403.5 341.5 387.5 316.25 c 0,15,16
 371.5 291 371.5 291 359.5 262 c 0,17,18
 362 253 362 253 367.5 236.75 c 0,19,20
 373 220.5 373 220.5 379.75 201.5 c 0,21,22
 386.5 182.5 386.5 182.5 394 163 c 0,23,24
 401.5 143.5 401.5 143.5 408.5 128 c 0,25,26
 415.5 112.5 415.5 112.5 420.75 98.75 c 0,27,28
 426 85 426 85 431.5 74.5 c 0,29,30
 437 64 437 64 443.5 58 c 0,31,32
 450 52 450 52 459 52 c 0,33,34
 463 52 463 52 469.75 52.5 c 0,35,36
 476.5 53 476.5 53 486 56 c 0,37,38
 495.5 59 495.5 59 508.5 65.25 c 0,39,40
 521.5 71.5 521.5 71.5 538.5 83 c 0,41,-1
 538.5 23.5 l 0,42,43
 521 13 521 13 504 6.25 c 0,44,45
 487 -0.5 487 -0.5 469.5 -4.75 c 0,46,47
 452 -9 452 -9 432.75 -10.75 c 0,48,49
 413.5 -12.5 413.5 -12.5 391 -12.5 c 0,50,51
 366 -12.5 366 -12.5 345 4.25 c 0,52,53
 324 21 324 21 307 46.5 c 0,54,55
 290 72 290 72 277.5 102 c 0,56,57
 265 132 265 132 257 158.5 c 0,58,59
 253 152 253 152 244.5 137 c 0,60,61
 236 122 236 122 223.25 103 c 0,62,63
 210.5 84 210.5 84 194.5 63.5 c 0,64,65
 178.5 43 178.5 43 159.5 26.25 c 0,66,67
 140.5 9.5 140.5 9.5 119.5 -1.5 c 0,68,69
 98.5 -12.5 98.5 -12.5 76 -12.5 c 0,70,71
 58 -12.5 58 -12.5 41 -8.5 c 0,72,73
 24 -4.5 24 -4.5 10.75 3.25 c 0,74,75
 -2.5 11 -2.5 11 -10.5 22.5 c 0,76,77
 -18.5 34 -18.5 34 -18.5 49 c 0,78,79
 -18.5 61 -18.5 61 -15.5 75 c 0,80,81
 -12.5 89 -12.5 89 -3.25 101 c 0,82,83
 6 113 6 113 23.5 121 c 0,84,85
 41 129 41 129 69.5 129 c 0,86,-1
 108.5 68.5 l 0,87,88
 122 80 122 80 138 97 c 0,89,90
 154 114 154 114 170.5 135.75 c 0,91,92
 187 157.5 187 157.5 202.25 183.5 c 0,93,94
 217.5 209.5 217.5 209.5 229.5 239.5 c 0,95,96
 227 249.5 227 249.5 221.75 267.25 c 0,97,98
 216.5 285 216.5 285 209.5 305.5 c 0,99,100
 202.5 326 202.5 326 194.75 347.5 c 0,101,102
 187 369 187 369 179.5 386.5 c 0,103,104
 172 404 172 404 165.75 415.25 c 0,105,106
 159.5 426.5 159.5 426.5 155.5 427 c 0,107,-1
 54.5 439.5 l 0,108,-1
 54.5 471 l 0,109,110
 60.5 473.5 60.5 473.5 72.75 477.5 c 0,111,112
 85 481.5 85 481.5 100 486 c 0,113,114
 115 490.5 115 490.5 131 495 c 0,115,116
 147 499.5 147 499.5 161 503.25 c 0,117,118
 175 507 175 507 185.5 509.5 c 0,119,120
 196 512 196 512 199.5 512 c 0,121,122
 223.5 512 223.5 512 242.25 500.5 c 0,123,124
 261 489 261 489 276.25 467.75 c 0,125,126
 291.5 446.5 291.5 446.5 304 416.5 c 0,127,128
 316.5 386.5 316.5 386.5 327.5 349 c 0,129,130
 345.5 376 345.5 376 367 404.75 c 0,131,132
 388.5 433.5 388.5 433.5 412.75 457.5 c 0,133,134
 437 481.5 437 481.5 463 496.75 c 0,135,136
 489 512 489 512 516 512 c 0,137,138
 531.5 512 531.5 512 546.75 507.25 c 0,139,140
 562 502.5 562 502.5 573.75 494 c 0,141,142
 585.5 485.5 585.5 485.5 592.75 473.5 c 0,143,144
 600 461.5 600 461.5 600 447.5 c 0,0,1
EndSplineSet
EndChar

StartChar: y
Encoding: 92 121 92
Width: 556
VWidth: 500
Flags: W
LayerCount: 2
Fore
SplineSet
532.5 422 m 0,0,1
 526.5 416 526.5 416 515 400.25 c 0,2,3
 503.5 384.5 503.5 384.5 491.25 364.75 c 0,4,5
 479 345 479 345 467.25 324 c 0,6,7
 455.5 303 455.5 303 448.5 287.5 c 0,8,9
 437.5 263 437.5 263 422.25 228.25 c 0,10,11
 407 193.5 407 193.5 388.25 153.5 c 0,12,13
 369.5 113.5 369.5 113.5 347.75 70.25 c 0,14,15
 326 27 326 27 302 -14.5 c 0,16,17
 276.5 -59 276.5 -59 247.25 -99 c 0,18,19
 218 -139 218 -139 184 -169 c 0,20,21
 150 -199 150 -199 110.5 -216.75 c 0,22,23
 71 -234.5 71 -234.5 24.5 -234.5 c 0,24,25
 -6.5 -234.5 -6.5 -234.5 -27.25 -226.5 c 0,26,27
 -48 -218.5 -48 -218.5 -60.5 -206.5 c 0,28,29
 -73 -194.5 -73 -194.5 -78 -181 c 0,30,31
 -83 -167.5 -83 -167.5 -83 -156.5 c 0,32,33
 -83 -144 -83 -144 -79 -129.5 c 0,34,35
 -75 -115 -75 -115 -65.25 -102.25 c 0,36,37
 -55.5 -89.5 -55.5 -89.5 -39.75 -81 c 0,38,39
 -24 -72.5 -24 -72.5 0 -71.5 c 0,40,-1
 44 -149.5 l 0,41,42
 113.5 -134.5 113.5 -134.5 198.5 21.5 c 0,43,44
 197.5 27.5 197.5 27.5 193.5 48 c 0,45,46
 189.5 68.5 189.5 68.5 183.75 98 c 0,47,48
 178 127.5 178 127.5 170.75 163.25 c 0,49,50
 163.5 199 163.5 199 155.5 235.5 c 0,51,52
 148 270.5 148 270.5 141.5 306 c 0,53,54
 135 341.5 135 341.5 129.5 370 c 0,55,56
 124 398.5 124 398.5 119.5 416.25 c 0,57,58
 115 434 115 434 111.5 434 c 0,59,-1
 3 442.5 l 0,60,-1
 3 474 l 0,61,62
 9 476 9 476 20.5 479.75 c 0,63,64
 32 483.5 32 483.5 46.5 487.75 c 0,65,66
 61 492 61 492 76.5 496.25 c 0,67,68
 92 500.5 92 500.5 106.25 504 c 0,69,70
 120.5 507.5 120.5 507.5 131.75 509.75 c 0,71,72
 143 512 143 512 148.5 512 c 0,73,74
 165.5 512 165.5 512 179.75 509.75 c 0,75,76
 194 507.5 194 507.5 206.25 497.75 c 0,77,78
 218.5 488 218.5 488 229.25 467.75 c 0,79,80
 240 447.5 240 447.5 251 411.5 c 0,81,82
 256 394 256 394 262 370.25 c 0,83,84
 268 346.5 268 346.5 274 319.25 c 0,85,86
 280 292 280 292 286.5 262.5 c 0,87,88
 293 233 293 233 299 203 c 0,89,-1
 439.5 512 l 0,90,-1
 488.5 512 l 0,91,-1
 585.5 481.5 l 0,92,-1
 585.5 454.5 l 0,93,-1
 532.5 422 l 0,0,1
EndSplineSet
EndChar

StartChar: z
Encoding: 93 122 93
Width: 503
VWidth: 500
Flags: W
LayerCount: 2
Fore
SplineSet
172 94 m 0,0,-1
 236.5 107.5 l 0,1,2
 264 93 264 93 282 84 c 0,3,4
 300 75 300 75 317.5 75 c 0,5,6
 323 75 323 75 332.5 77.5 c 0,7,8
 342 80 342 80 352.25 84 c 0,9,10
 362.5 88 362.5 88 371 93.25 c 0,11,12
 379.5 98.5 379.5 98.5 383 104.5 c 0,13,-1
 321.5 170 l 0,14,15
 324 173.5 324 173.5 332 180.25 c 0,16,17
 340 187 340 187 351 193.25 c 0,18,19
 362 199.5 362 199.5 374.75 204.25 c 0,20,21
 387.5 209 387.5 209 400.5 209 c 0,22,23
 417 209 417 209 429 201 c 0,24,25
 441 193 441 193 448.75 181.5 c 0,26,27
 456.5 170 456.5 170 460.25 156.75 c 0,28,29
 464 143.5 464 143.5 464 133 c 0,30,31
 464 108.5 464 108.5 449.75 82.75 c 0,32,33
 435.5 57 435.5 57 411 36 c 0,34,35
 386.5 15 386.5 15 354.5 1.75 c 0,36,37
 322.5 -11.5 322.5 -11.5 286.5 -11.5 c 0,38,39
 260.5 -11.5 260.5 -11.5 237.25 -4.75 c 0,40,41
 214 2 214 2 195.5 10 c 0,42,43
 177 18 177 18 164.25 24.75 c 0,44,45
 151.5 31.5 151.5 31.5 146.5 31.5 c 0,46,47
 139.5 31.5 139.5 31.5 133.75 30.75 c 0,48,49
 128 30 128 30 125 25.5 c 0,50,-1
 87 -40 l 0,51,-1
 -16.5 16.5 l 0,52,-1
 321.5 405.5 l 0,53,-1
 257 392 l 0,54,55
 230 406.5 230 406.5 212.25 415.75 c 0,56,57
 194.5 425 194.5 425 177 425 c 0,58,59
 171.5 425 171.5 425 162 422.5 c 0,60,61
 152.5 420 152.5 420 142.5 415.75 c 0,62,63
 132.5 411.5 132.5 411.5 123.75 406.25 c 0,64,65
 115 401 115 401 111.5 395.5 c 0,66,-1
 172 331 l 0,67,68
 169.5 326.5 169.5 326.5 162 319.75 c 0,69,70
 154.5 313 154.5 313 143.5 306.75 c 0,71,72
 132.5 300.5 132.5 300.5 119.5 295.75 c 0,73,74
 106.5 291 106.5 291 94 291 c 0,75,76
 77.5 291 77.5 291 65.5 299 c 0,77,78
 53.5 307 53.5 307 45.75 318.5 c 0,79,80
 38 330 38 330 34.25 343 c 0,81,82
 30.5 356 30.5 356 30.5 366.5 c 0,83,84
 30.5 391 30.5 391 44.75 416.75 c 0,85,86
 59 442.5 59 442.5 83.5 463.75 c 0,87,88
 108 485 108 485 140 498.5 c 0,89,90
 172 512 172 512 208 512 c 0,91,92
 234 512 234 512 257.25 505 c 0,93,94
 280.5 498 280.5 498 299 489.75 c 0,95,96
 317.5 481.5 317.5 481.5 330.25 474.75 c 0,97,98
 343 468 343 468 348 468 c 0,99,100
 355 468 355 468 360.25 469 c 0,101,102
 365.5 470 365.5 470 369.5 474 c 0,103,-1
 397.5 538.5 l 0,104,-1
 510 481.5 l 0,105,-1
 172 94 l 0,0,-1
EndSplineSet
EndChar

StartChar: braceleft
Encoding: 94 123 94
Width: 507
VWidth: 500
Flags: W
LayerCount: 2
Fore
SplineSet
511 666.5 m 0,0,1
 492 666.5 492 666.5 473.5 664 c 0,2,3
 457.5 661.5 457.5 661.5 439.75 656 c 0,4,5
 422 650.5 422 650.5 407.5 639 c 0,6,7
 389.5 624 389.5 624 379.5 601.75 c 0,8,9
 369.5 579.5 369.5 579.5 363.25 553.25 c 0,10,11
 357 527 357 527 352 498.5 c 0,12,13
 347 470 347 470 338.5 442.25 c 0,14,15
 330 414.5 330 414.5 315.75 389 c 0,16,17
 301.5 363.5 301.5 363.5 276.5 344 c 0,18,19
 257 328.5 257 328.5 237.75 319.5 c 0,20,21
 218.5 310.5 218.5 310.5 202.5 306 c 0,22,23
 186.5 301.5 186.5 301.5 174.5 300 c 0,24,25
 166 299 166 299 161.5 299 c 0,26,27
 166 298.5 166 298.5 174 297.5 c 0,28,29
 185 296 185 296 199.25 291.25 c 0,30,31
 213.5 286.5 213.5 286.5 229.25 277.5 c 0,32,33
 245 268.5 245 268.5 258 253 c 0,34,35
 275 233 275 233 279.25 207.75 c 0,36,37
 283.5 182.5 283.5 182.5 281.25 154.75 c 0,38,39
 279 127 279 127 272.5 98.75 c 0,40,41
 266 70.5 266 70.5 262.25 44.5 c 0,42,43
 258.5 18.5 258.5 18.5 259.75 -3.75 c 0,44,45
 261 -26 261 -26 273.5 -41 c 0,46,47
 283 -52.5 283 -52.5 298.5 -58 c 0,48,49
 314 -63.5 314 -63.5 328.5 -66 c 0,50,51
 345.5 -68.5 345.5 -68.5 364.5 -68.5 c 0,52,-1
 353.5 -125 l 0,53,-1
 333.5 -125 l 0,54,55
 320 -125 320 -125 302 -124.25 c 0,56,57
 284 -123.5 284 -123.5 263.25 -121.25 c 0,58,59
 242.5 -119 242.5 -119 223 -114.25 c 0,60,61
 203.5 -109.5 203.5 -109.5 186.75 -102 c 0,62,63
 170 -94.5 170 -94.5 159.5 -83 c 0,64,65
 140.5 -62.5 140.5 -62.5 135.5 -34.5 c 0,66,67
 130.5 -6.5 130.5 -6.5 133.25 24.25 c 0,68,69
 136 55 136 55 143.25 86.75 c 0,70,71
 150.5 118.5 150.5 118.5 155.75 147.5 c 0,72,73
 161 176.5 161 176.5 160.75 200.5 c 0,74,75
 160.5 224.5 160.5 224.5 148.5 239.5 c 0,76,77
 136.5 254.5 136.5 254.5 118.25 260.75 c 0,78,79
 100 267 100 267 83 269 c 0,80,81
 63 271 63 271 42 268.5 c 0,82,-1
 53 329.5 l 0,83,84
 74 326.5 74 326.5 94.5 328.5 c 0,85,86
 112 330 112 330 132.75 336.25 c 0,87,88
 153.5 342.5 153.5 342.5 171 357.5 c 0,89,90
 189 372.5 189 372.5 198.75 396.75 c 0,91,92
 208.5 421 208.5 421 214.75 450 c 0,93,94
 221 479 221 479 226.75 511 c 0,95,96
 232.5 543 232.5 543 242 573.75 c 0,97,98
 251.5 604.5 251.5 604.5 267.75 632.5 c 0,99,100
 284 660.5 284 660.5 311.5 681 c 0,101,102
 326.5 692.5 326.5 692.5 346.25 700 c 0,103,104
 366 707.5 366 707.5 387.25 712.25 c 0,105,106
 408.5 717 408.5 717 430 719.25 c 0,107,108
 451.5 721.5 451.5 721.5 469.75 722.25 c 0,109,110
 488 723 488 723 501.5 723 c 0,111,-1
 521 723 l 0,112,-1
 511 666.5 l 0,0,1
EndSplineSet
EndChar

StartChar: bar
Encoding: 95 124 95
Width: 407
VWidth: 500
Flags: W
LayerCount: 2
Fore
SplineSet
160 -264 m 0,0,-1
 160 815 l 0,1,-1
 247.5 815 l 0,2,-1
 247.5 -264 l 0,3,-1
 160 -264 l 0,0,-1
EndSplineSet
EndChar

StartChar: braceright
Encoding: 96 125 96
Width: 507
VWidth: 500
Flags: W
LayerCount: 2
Fore
SplineSet
465 268.5 m 0,0,1
 444 271 444 271 423.5 269 c 0,2,3
 405.5 267 405.5 267 384.75 260.75 c 0,4,5
 364 254.5 364 254.5 346 239.5 c 0,6,7
 328 224 328 224 318.5 200 c 0,8,9
 309 176 309 176 302.75 147 c 0,10,11
 296.5 118 296.5 118 291 86.25 c 0,12,13
 285.5 54.5 285.5 54.5 276 23.75 c 0,14,15
 266.5 -7 266.5 -7 250.75 -34.75 c 0,16,17
 235 -62.5 235 -62.5 208 -83 c 0,18,19
 193 -94.5 193 -94.5 173 -102 c 0,20,21
 153 -109.5 153 -109.5 131.5 -114.25 c 0,22,23
 110 -119 110 -119 88.5 -121.25 c 0,24,25
 67 -123.5 67 -123.5 48.75 -124.25 c 0,26,27
 30.5 -125 30.5 -125 16.5 -125 c 0,28,-1
 -3 -125 l 0,29,-1
 8 -68.5 l 0,30,31
 26.5 -68.5 26.5 -68.5 45 -66 c 0,32,33
 61 -63.5 61 -63.5 78.5 -58 c 0,34,35
 96 -52.5 96 -52.5 110.5 -41 c 0,36,37
 128.5 -26 128.5 -26 138.5 -4 c 0,38,39
 148.5 18 148.5 18 154.75 44 c 0,40,41
 161 70 161 70 165.75 98.25 c 0,42,43
 170.5 126.5 170.5 126.5 179 154.25 c 0,44,45
 187.5 182 187.5 182 201.5 207.5 c 0,46,47
 215.5 233 215.5 233 240.5 253 c 0,48,49
 259 268 259 268 278 277 c 0,50,51
 297 286 297 286 313.25 290.75 c 0,52,53
 329.5 295.5 329.5 295.5 341.5 297 c 0,54,55
 353.5 298.5 353.5 298.5 358.5 299 c 0,56,57
 355 299 355 299 344 300 c 0,58,59
 333 301 333 301 318.5 305.5 c 0,60,61
 304 310 304 310 288.25 319 c 0,62,63
 272.5 328 272.5 328 259 344 c 0,64,65
 242 364 242 364 237.75 389.5 c 0,66,67
 233.5 415 233.5 415 236 442.75 c 0,68,69
 238.5 470.5 238.5 470.5 244.75 499 c 0,70,71
 251 527.5 251 527.5 255 553.75 c 0,72,73
 259 580 259 580 258 602 c 0,74,75
 257 624 257 624 244.5 639 c 0,76,77
 235 650.5 235 650.5 219.75 656 c 0,78,79
 204.5 661.5 204.5 661.5 190 664 c 0,80,81
 173 666.5 173 666.5 153.5 666.5 c 0,82,-1
 165 723 l 0,83,-1
 184.5 723 l 0,84,85
 198.5 723 198.5 723 216.5 722.25 c 0,86,87
 234.5 721.5 234.5 721.5 255 719.25 c 0,88,89
 275.5 717 275.5 717 295.25 712.25 c 0,90,91
 315 707.5 315 707.5 331.75 700 c 0,92,93
 348.5 692.5 348.5 692.5 359.5 681 c 0,94,95
 378.5 660 378.5 660 383.25 632.25 c 0,96,97
 388 604.5 388 604.5 385 573.75 c 0,98,99
 382 543 382 543 374.75 511 c 0,100,101
 367.5 479 367.5 479 362.25 450 c 0,102,103
 357 421 357 421 357.25 396.75 c 0,104,105
 357.5 372.5 357.5 372.5 369.5 357.5 c 0,106,107
 381.5 342.5 381.5 342.5 399.5 336.25 c 0,108,109
 417.5 330 417.5 330 434.5 328.5 c 0,110,111
 454.5 326.5 454.5 326.5 476 329.5 c 0,112,-1
 465 268.5 l 0,0,1
EndSplineSet
EndChar

StartChar: quoteleft
Encoding: 98 8216 98
Width: 282
VWidth: 500
Flags: W
LayerCount: 2
Fore
SplineSet
312.5 722 m 0,0,1
 259 704.5 259 704.5 225.25 664.75 c 0,2,3
 191.5 625 191.5 625 182.5 570.5 c 0,4,-1
 243.5 570.5 l 0,5,6
 249 561 249 561 252 550.25 c 0,7,8
 255 539.5 255 539.5 255 529.5 c 0,9,10
 255 511 255 511 247.25 494.75 c 0,11,12
 239.5 478.5 239.5 478.5 226.75 466.5 c 0,13,14
 214 454.5 214 454.5 197.25 447.5 c 0,15,16
 180.5 440.5 180.5 440.5 163 440.5 c 0,17,18
 144.5 440.5 144.5 440.5 130.75 446.75 c 0,19,20
 117 453 117 453 108 464 c 0,21,22
 99 475 99 475 94.5 489.75 c 0,23,24
 90 504.5 90 504.5 90 522 c 0,25,26
 90 564 90 564 108.75 602.5 c 0,27,28
 127.5 641 127.5 641 157.5 672.5 c 0,29,30
 187.5 704 187.5 704 225.25 726.75 c 0,31,32
 263 749.5 263 749.5 301 760 c 0,33,-1
 312.5 722 l 0,0,1
EndSplineSet
EndChar

StartChar: quoteright
Encoding: 99 8217 99
Width: 282
VWidth: 500
Flags: W
LayerCount: 2
Fore
SplineSet
322.5 679 m 0,0,1
 322.5 637 322.5 637 304 598.25 c 0,2,3
 285.5 559.5 285.5 559.5 255.5 528 c 0,4,5
 225.5 496.5 225.5 496.5 187.75 473.75 c 0,6,7
 150 451 150 451 111.5 440.5 c 0,8,-1
 101.5 479 l 0,9,10
 154 497 154 497 187.75 536.25 c 0,11,12
 221.5 575.5 221.5 575.5 231.5 630 c 0,13,-1
 170 630 l 0,14,15
 164.5 639 164.5 639 161.5 650 c 0,16,17
 158.5 661 158.5 661 158.5 671.5 c 0,18,19
 158.5 689.5 158.5 689.5 166.25 705.75 c 0,20,21
 174 722 174 722 187 734 c 0,22,23
 200 746 200 746 216.75 753 c 0,24,25
 233.5 760 233.5 760 251 760 c 0,26,27
 269.5 760 269.5 760 283 753.75 c 0,28,29
 296.5 747.5 296.5 747.5 305.25 736.75 c 0,30,31
 314 726 314 726 318.25 711 c 0,32,33
 322.5 696 322.5 696 322.5 679 c 0,0,1
EndSplineSet
EndChar

StartChar: quotedblleft
Encoding: 100 8220 100
Width: 515
VWidth: 500
Flags: W
LayerCount: 2
Fore
SplineSet
545 722 m 0,0,1
 491.5 704.5 491.5 704.5 458 664.75 c 0,2,3
 424.5 625 424.5 625 414.5 570.5 c 0,4,-1
 476 570.5 l 0,5,6
 481.5 561 481.5 561 484.5 550.25 c 0,7,8
 487.5 539.5 487.5 539.5 487.5 529.5 c 0,9,10
 487.5 511 487.5 511 479.75 494.75 c 0,11,12
 472 478.5 472 478.5 459.25 466.5 c 0,13,14
 446.5 454.5 446.5 454.5 429.75 447.5 c 0,15,16
 413 440.5 413 440.5 395.5 440.5 c 0,17,18
 377 440.5 377 440.5 363.25 446.75 c 0,19,20
 349.5 453 349.5 453 340.5 464 c 0,21,22
 331.5 475 331.5 475 327 489.75 c 0,23,24
 322.5 504.5 322.5 504.5 322.5 522 c 0,25,26
 322.5 564 322.5 564 341.25 602.5 c 0,27,28
 360 641 360 641 390 672.5 c 0,29,30
 420 704 420 704 457.75 726.75 c 0,31,32
 495.5 749.5 495.5 749.5 533.5 760 c 0,33,-1
 545 722 l 0,0,1
312.5 722 m 0,34,35
 259 704.5 259 704.5 225.25 664.75 c 0,36,37
 191.5 625 191.5 625 182.5 570.5 c 0,38,-1
 243.5 570.5 l 0,39,40
 249 561 249 561 252 550.25 c 0,41,42
 255 539.5 255 539.5 255 529.5 c 0,43,44
 255 511 255 511 247.25 494.75 c 0,45,46
 239.5 478.5 239.5 478.5 226.75 466.5 c 0,47,48
 214 454.5 214 454.5 197.25 447.5 c 0,49,50
 180.5 440.5 180.5 440.5 163 440.5 c 0,51,52
 144.5 440.5 144.5 440.5 130.75 446.75 c 0,53,54
 117 453 117 453 108 464 c 0,55,56
 99 475 99 475 94.5 489.75 c 0,57,58
 90 504.5 90 504.5 90 522 c 0,59,60
 90 564 90 564 108.75 602.5 c 0,61,62
 127.5 641 127.5 641 157.5 672.5 c 0,63,64
 187.5 704 187.5 704 225.25 726.75 c 0,65,66
 263 749.5 263 749.5 301 760 c 0,67,-1
 312.5 722 l 0,34,35
EndSplineSet
EndChar

StartChar: quotedblright
Encoding: 101 8221 101
Width: 515
VWidth: 500
Flags: W
LayerCount: 2
Fore
SplineSet
555 679 m 0,0,1
 555 637 555 637 536.5 598.25 c 0,2,3
 518 559.5 518 559.5 488 528 c 0,4,5
 458 496.5 458 496.5 420.25 473.75 c 0,6,7
 382.5 451 382.5 451 344 440.5 c 0,8,-1
 334 479 l 0,9,10
 386.5 497 386.5 497 420.25 536.25 c 0,11,12
 454 575.5 454 575.5 464 630 c 0,13,-1
 402.5 630 l 0,14,15
 397 639 397 639 394 650 c 0,16,17
 391 661 391 661 391 671.5 c 0,18,19
 391 689.5 391 689.5 398.75 705.75 c 0,20,21
 406.5 722 406.5 722 419.5 734 c 0,22,23
 432.5 746 432.5 746 449 753 c 0,24,25
 465.5 760 465.5 760 483.5 760 c 0,26,27
 502 760 502 760 515.5 753.75 c 0,28,29
 529 747.5 529 747.5 537.75 736.75 c 0,30,31
 546.5 726 546.5 726 550.75 711 c 0,32,33
 555 696 555 696 555 679 c 0,0,1
322.5 679 m 0,34,35
 322.5 637 322.5 637 304 598.25 c 0,36,37
 285.5 559.5 285.5 559.5 255.5 528 c 0,38,39
 225.5 496.5 225.5 496.5 187.75 473.75 c 0,40,41
 150 451 150 451 111.5 440.5 c 0,42,-1
 101.5 479 l 0,43,44
 154 497 154 497 187.75 536.25 c 0,45,46
 221.5 575.5 221.5 575.5 231.5 630 c 0,47,-1
 170 630 l 0,48,49
 164.5 639 164.5 639 161.5 650 c 0,50,51
 158.5 661 158.5 661 158.5 671.5 c 0,52,53
 158.5 689.5 158.5 689.5 166.25 705.75 c 0,54,55
 174 722 174 722 187 734 c 0,56,57
 200 746 200 746 216.75 753 c 0,58,59
 233.5 760 233.5 760 251 760 c 0,60,61
 269.5 760 269.5 760 283 753.75 c 0,62,63
 296.5 747.5 296.5 747.5 305.25 736.75 c 0,64,65
 314 726 314 726 318.25 711 c 0,66,67
 322.5 696 322.5 696 322.5 679 c 0,34,35
EndSplineSet
EndChar

StartChar: consonant.part
Encoding: 103 -1 103
Width: 172
Flags: W
LayerCount: 2
Fore
SplineSet
340 735 m 2,0,1
 328 677 328 677 265.5 633 c 128,-1,2
 203 589 203 589 117 589 c 1,3,-1
 139 695 l 1,4,5
 167 695 167 695 183 709 c 1,6,7
 201 720 201 720 205 735 c 1,8,-1
 219 806 l 1,9,-1
 354 806 l 1,10,-1
 340 735 l 2,0,1
EndSplineSet
EndChar

StartChar: consonant.part1
Encoding: 104 -1 104
Width: 347
Flags: W
LayerCount: 2
Fore
SplineSet
488 138 m 2,0,1
 476 82 476 82 431 41 c 128,-1,2
 386 0 386 0 335 0 c 2,3,-1
 186 1 l 2,4,5
 160 1 160 1 138.5 7 c 128,-1,6
 117 13 117 13 94 27 c 128,-1,7
 71 41 71 41 55 59 c 128,-1,8
 39 77 39 77 21 107 c 1,9,-1
 53 261 l 1,10,-1
 74 265 l 1,11,12
 92 197 92 197 139 154 c 1,13,14
 181 113 181 113 231 113 c 2,15,-1
 324 113 l 2,16,17
 335 113 335 113 342 124 c 0,18,19
 356 143 356 143 358 155 c 2,20,-1
 429 493 l 2,21,22
 431 504 431 504 431 509 c 0,23,24
 431 527 431 527 419 546 c 1,25,26
 401 565 401 565 369 565 c 2,27,-1
 260 565 l 1,28,-1
 283 678 l 1,29,-1
 530 678 l 1,30,-1
 536 583 l 1,31,32
 566 550 566 550 566 515 c 0,33,34
 566 508 566 508 564 497 c 2,35,-1
 488 138 l 2,0,1
EndSplineSet
EndChar

StartChar: shortrr
Encoding: 105 -1 105
Width: 821
Flags: W
LayerCount: 2
Fore
SplineSet
964 569 m 1,0,-1
 475 569 l 2,1,2
 454 569 454 569 443 562 c 128,-1,3
 432 555 432 555 428 541 c 2,4,-1
 410 463 l 1,5,6
 410 444 410 444 423 431.5 c 128,-1,7
 436 419 436 419 458 419 c 2,8,-1
 647 419 l 1,9,-1
 622 306 l 1,10,-1
 434 306 l 2,11,12
 411 306 411 306 393 295 c 0,13,14
 384 290 384 290 379.5 282.5 c 128,-1,15
 375 275 375 275 373 266 c 2,16,-1
 351 168 l 1,17,18
 349 146 349 146 357 135 c 1,19,20
 364 119 364 119 375 118 c 1,21,-1
 471 118 l 1,22,-1
 448 5 l 1,23,-1
 307 5 l 2,24,25
 258 5 258 5 228 40 c 0,26,27
 206 66 206 66 206 96 c 0,28,29
 206 103 206 103 208 119 c 1,30,-1
 240 273 l 2,31,32
 248 312 248 312 281 341 c 1,33,34
 285 343 285 343 303 353.5 c 128,-1,35
 321 364 321 364 328 366 c 1,36,-1
 292 391 l 1,37,38
 277 413 277 413 277 438 c 0,39,40
 277 450 277 450 278 455 c 2,41,-1
 303 574 l 2,42,43
 314 625 314 625 360 651 c 1,44,45
 400 680 400 680 460 680 c 2,46,-1
 992 680 l 1,47,-1
 964 569 l 1,0,-1
EndSplineSet
EndChar

StartChar: anusvara
Encoding: 107 3202 107
Width: 786
Flags: W
LayerCount: 2
Fore
SplineSet
831 156 m 2,0,1
 817 92 817 92 766 48 c 1,2,3
 716 1 716 1 658 1 c 2,4,-1
 344 1 l 2,5,6
 277 1 277 1 238 52 c 1,7,8
 209 85 209 85 209 133 c 0,9,10
 209 148 209 148 213 167 c 2,11,-1
 290 533 l 1,12,13
 305 597 305 597 362 637 c 1,14,15
 390 659 390 659 421.5 668.5 c 128,-1,16
 453 678 453 678 489 678 c 2,17,-1
 775 678 l 2,18,19
 843 678 843 678 883 632 c 0,20,21
 912 599 912 599 912 553 c 0,22,23
 912 537 912 537 908 521 c 2,24,-1
 831 156 l 2,0,1
700 176 m 1,25,-1
 771 513 l 2,26,27
 772 518 772 518 772 527 c 0,28,29
 772 540 772 540 761.5 552.5 c 128,-1,30
 751 565 751 565 730 565 c 2,31,-1
 501 565 l 2,32,33
 472 565 472 565 446 551 c 1,34,35
 425 537 425 537 421 519 c 2,36,-1
 349 174 l 2,37,38
 344 149 344 149 362.5 129.5 c 128,-1,39
 381 110 381 110 410 110 c 2,40,-1
 634 110 l 2,41,42
 655 110 655 110 675 128.5 c 128,-1,43
 695 147 695 147 700 176 c 1,25,-1
EndSplineSet
EndChar

StartChar: visarga
Encoding: 108 3203 108
Width: 508
Flags: W
LayerCount: 2
Fore
SplineSet
645 461 m 2,0,1
 637 420 637 420 597 390 c 1,2,3
 562 360 562 360 513 360 c 2,4,-1
 354 360 l 2,5,6
 301 360 301 360 276 393 c 1,7,8
 254 416 254 416 254 448 c 0,9,10
 254 461 254 461 255 469 c 2,11,-1
 277 574 l 2,12,13
 286 621 286 621 329 651 c 128,-1,14
 372 681 372 681 422 681 c 2,15,-1
 566 681 l 2,16,17
 602 681 602 681 623 666 c 1,18,19
 635 661 635 661 644 650.5 c 128,-1,20
 653 640 653 640 660.5 623.5 c 128,-1,21
 668 607 668 607 668 591 c 0,22,23
 668 583 668 583 666 569 c 2,24,-1
 645 461 l 2,0,1
571 117 m 2,25,26
 562 70 562 70 524.5 36 c 128,-1,27
 487 2 487 2 445 2 c 2,28,-1
 277 3 l 2,29,30
 230 3 230 3 198 35 c 1,31,32
 176 61 176 61 176 90 c 0,33,34
 176 95 176 95 178 111 c 1,35,-1
 200 216 l 2,36,37
 209 263 209 263 253 293.5 c 128,-1,38
 297 324 297 324 346 324 c 2,39,-1
 490 324 l 2,40,41
 544 324 544 324 569 289 c 1,42,43
 591 266 591 266 591 230 c 0,44,45
 591 224 591 224 589 205 c 1,46,-1
 571 117 l 2,25,26
514 489 m 2,47,-1
 526 549 l 2,48,49
 527 554 527 554 525 558.5 c 128,-1,50
 523 563 523 563 522 565.5 c 128,-1,51
 521 568 521 568 509 568 c 2,52,-1
 444 568 l 2,53,54
 428 568 428 568 418.5 562.5 c 128,-1,55
 409 557 409 557 407 548 c 2,56,-1
 395 497 l 1,57,58
 396 486 396 486 402 479 c 128,-1,59
 408 472 408 472 419 472 c 2,60,-1
 490 472 l 1,61,62
 498 474 498 474 504 476.5 c 128,-1,63
 510 479 510 479 512 481.5 c 128,-1,64
 514 484 514 484 514 489 c 2,47,-1
440 129 m 1,65,-1
 452 190 l 2,66,67
 454 201 454 201 450 205 c 2,68,-1
 446 209 l 1,69,-1
 361 209 l 1,70,-1
 340 205 l 1,71,72
 332 200 332 200 331 196 c 2,73,-1
 317 139 l 1,74,-1
 321 120 l 1,75,76
 323 116 323 116 325.5 115 c 128,-1,77
 328 114 328 114 329 114 c 2,78,-1
 415 114 l 2,79,80
 422 114 422 114 430 118 c 1,81,-1
 440 129 l 1,65,-1
EndSplineSet
EndChar

StartChar: avowel
Encoding: 109 3205 109
Width: 1021
Flags: W
LayerCount: 2
Fore
SplineSet
1096 144 m 2,0,1
 1084 84 1084 84 1028 44 c 1,2,3
 977 1 977 1 912 1 c 2,4,-1
 358 2 l 2,5,6
 287 2 287 2 247 44 c 1,7,8
 231 59 231 59 224 76.5 c 128,-1,9
 217 94 217 94 217 116 c 0,10,11
 217 124 217 124 219 143 c 1,12,-1
 302 540 l 2,13,14
 314 601 314 601 367 640.5 c 128,-1,15
 420 680 420 680 483 680 c 2,16,-1
 680 680 l 1,17,-1
 630 448 l 1,18,-1
 496 448 l 1,19,-1
 522 567 l 1,20,-1
 487 567 l 2,21,22
 468 567 468 567 453 551 c 0,23,24
 432 528 432 528 427 501 c 2,25,-1
 359 178 l 2,26,27
 355 159 355 159 370 134 c 1,28,29
 393 115 393 115 419 115 c 2,30,-1
 883 115 l 2,31,32
 895 115 895 115 902 117 c 128,-1,33
 909 119 909 119 918 123.5 c 128,-1,34
 927 128 927 128 936 137.5 c 128,-1,35
 945 147 945 147 953 156 c 0,36,37
 967 174 967 174 971 196 c 2,38,-1
 1041 526 l 2,39,40
 1045 542 1045 542 1034 557 c 1,41,42
 1025 566 1025 566 1004 566 c 2,43,-1
 972 566 l 1,44,-1
 958 506 l 2,45,46
 957 501 957 501 957 492 c 0,47,48
 957 452 957 452 1010 412 c 1,49,-1
 987 305 l 1,50,-1
 535 305 l 1,51,-1
 560 418 l 1,52,-1
 848 418 l 1,53,54
 820 454 820 454 820 484 c 0,55,56
 820 495 820 495 821 499 c 2,57,-1
 860 680 l 1,58,-1
 1040 680 l 2,59,60
 1084 680 1084 680 1120 662 c 128,-1,61
 1156 644 1156 644 1171 615 c 1,62,63
 1182 597 1182 597 1182 572 c 0,64,65
 1182 564 1182 564 1180 548 c 1,66,-1
 1096 144 l 2,0,1
EndSplineSet
EndChar

StartChar: aavowel
Encoding: 110 3206 110
Width: 1093
Flags: W
LayerCount: 2
Fore
SplineSet
1243 485 m 1,0,1
 1231 424 1231 424 1182 387 c 1,2,3
 1154 364 1154 364 1129 353.5 c 128,-1,4
 1104 343 1104 343 1074 343 c 2,5,-1
 1055 343 l 1,6,7
 1077 310 1077 310 1075 289 c 1,8,-1
 1038 113 l 2,9,10
 1029 66 1029 66 979 33 c 0,11,12
 956 18 956 18 929 10 c 128,-1,13
 902 2 902 2 867 2 c 2,14,-1
 337 6 l 2,15,16
 277 6 277 6 245 48 c 1,17,18
 220 75 220 75 220 114 c 0,19,20
 220 130 220 130 224 146 c 2,21,-1
 308 543 l 2,22,23
 315 572 315 572 332.5 597 c 128,-1,24
 350 622 350 622 382 644 c 1,25,26
 446 683 446 683 520 683 c 2,27,-1
 674 683 l 1,28,-1
 624 451 l 1,29,-1
 490 451 l 1,30,-1
 516 570 l 1,31,-1
 502 570 l 2,32,33
 479 570 479 570 461.5 556 c 128,-1,34
 444 542 444 542 440 524 c 2,35,-1
 368 179 l 2,36,37
 366 165 366 165 366 161 c 0,38,39
 366 149 366 149 374 134 c 1,40,41
 390 115 390 115 413 115 c 2,42,-1
 844 115 l 2,43,44
 866 115 866 115 888 134 c 0,45,46
 900 145 900 145 907.5 155.5 c 128,-1,47
 915 166 915 166 917 180 c 2,48,-1
 940 291 l 2,49,50
 944 313 944 313 921 345 c 1,51,-1
 622 345 l 1,52,-1
 647 458 l 1,53,-1
 894 458 l 1,54,55
 880 486 880 486 884 498 c 1,56,-1
 900 577 l 2,57,58
 908 621 908 621 954.5 649.5 c 128,-1,59
 1001 678 1001 678 1058 678 c 2,60,-1
 1150 678 l 2,61,62
 1208 678 1208 678 1234.5 646.5 c 128,-1,63
 1261 615 1261 615 1261 582 c 0,64,65
 1261 575 1261 575 1259 559 c 1,66,-1
 1243 485 l 1,0,1
1108 492 m 2,67,-1
 1117 538 l 2,68,69
 1118 542 1118 542 1118 546.5 c 128,-1,70
 1118 551 1118 551 1118 552 c 0,71,72
 1118 566 1118 566 1106 566 c 2,73,-1
 1063 566 l 2,74,75
 1047 566 1047 566 1037.5 557 c 128,-1,76
 1028 548 1028 548 1027 537 c 1,77,-1
 1020 505 l 2,78,79
 1015 482 1015 482 1031 456 c 1,80,-1
 1074 456 l 2,81,82
 1085 456 1085 456 1095.5 467 c 128,-1,83
 1106 478 1106 478 1108 492 c 2,67,-1
EndSplineSet
EndChar

StartChar: ivowel
Encoding: 111 3207 111
Width: 824
Flags: W
LayerCount: 2
Fore
SplineSet
863 0 m 1,0,-1
 781 0 l 2,1,2
 727 0 727 0 690 33 c 1,3,4
 665 61 665 61 665 94 c 0,5,6
 665 101 665 101 667 115 c 2,7,-1
 678 171 l 1,8,-1
 573 171 l 2,9,10
 522 171 522 171 494 200 c 1,11,12
 480 209 480 209 474.5 222 c 128,-1,13
 469 235 469 235 469 250 c 0,14,15
 469 261 469 261 470 266 c 2,16,-1
 485 337 l 1,17,18
 490 370 490 370 530 393 c 1,19,20
 569 412 569 412 616 412 c 2,21,-1
 739 412 l 2,22,23
 771 412 771 412 793 394 c 1,24,-1
 808 380 l 1,25,-1
 838 529 l 1,26,27
 842 543 842 543 830.5 552.5 c 128,-1,28
 819 562 819 562 791 562 c 2,29,-1
 713 562 l 2,30,31
 695 562 695 562 687 560 c 128,-1,32
 679 558 679 558 664 548.5 c 128,-1,33
 649 539 649 539 645 521 c 2,34,-1
 629 444 l 1,35,-1
 495 444 l 1,36,-1
 510 516 l 2,37,38
 514 534 514 534 500 548 c 128,-1,39
 486 562 486 562 458 562 c 2,40,-1
 363 562 l 2,41,42
 340 562 340 562 323.5 550.5 c 128,-1,43
 307 539 307 539 303 521 c 2,44,-1
 288 457 l 1,45,46
 288 432 288 432 296 427 c 1,47,48
 304 413 304 413 318 413 c 2,49,-1
 353 413 l 1,50,-1
 328 300 l 1,51,-1
 267 301 l 2,52,53
 206 301 206 301 174 341 c 1,54,55
 148 369 148 369 148 409 c 0,56,57
 148 416 148 416 150 435 c 1,58,-1
 171 534 l 2,59,60
 180 576 180 576 208 608 c 128,-1,61
 236 640 236 640 277 656 c 1,62,63
 314 674 314 674 358 674 c 2,64,-1
 495 674 l 2,65,66
 543 674 543 674 568 655 c 1,67,68
 586 646 586 646 598 623 c 1,69,70
 602 628 602 628 612.5 638.5 c 128,-1,71
 623 649 623 649 637 654 c 1,72,73
 669 675 669 675 708 675 c 2,74,-1
 838 675 l 2,75,76
 912 675 912 675 947 635 c 1,77,78
 977 605 977 605 977 561 c 0,79,80
 977 547 977 547 973 531 c 2,81,-1
 938 365 l 2,82,83
 919 277 919 277 817 198 c 1,84,-1
 803 135 l 2,85,86
 801 124 801 124 805 119 c 1,87,88
 817 111 817 111 821 111 c 2,89,-1
 884 111 l 1,90,-1
 863 0 l 1,0,-1
698 283 m 1,91,-1
 699 287 l 2,92,93
 703 302 703 302 684 302 c 2,94,-1
 619 302 l 2,95,96
 614 302 614 302 612 301 c 1,97,-1
 610 294 l 1,98,-1
 610 289 l 1,99,100
 611 287 611 287 613 286 c 128,-1,101
 615 285 615 285 616 285 c 2,102,-1
 698 283 l 1,91,-1
EndSplineSet
EndChar

StartChar: iivowel
Encoding: 112 3208 112
Width: 1281
Flags: W
LayerCount: 2
Fore
SplineSet
1409 404 m 1,0,1
 1401 362 1401 362 1359 320 c 1,2,3
 1322 287 1322 287 1273 268 c 1,4,5
 1333 183 1333 183 1328 154 c 1,6,-1
 1314 87 l 2,7,8
 1310 69 1310 69 1302.5 56.5 c 128,-1,9
 1295 44 1295 44 1280 29 c 1,10,11
 1250 3 1250 3 1220 3 c 2,12,-1
 975 3 l 1,13,-1
 998 116 l 1,14,-1
 1158 116 l 2,15,16
 1166 116 1166 116 1177 125.5 c 128,-1,17
 1188 135 1188 135 1189 140 c 2,18,-1
 1190 145 l 2,19,20
 1194 166 1194 166 1172 185 c 1,21,-1
 1119 253 l 1,22,-1
 904 253 l 1,23,-1
 881 139 l 2,24,25
 869 83 869 83 816 43 c 1,26,27
 766 1 766 1 705 1 c 2,28,-1
 346 2 l 2,29,30
 293 2 293 2 264 38 c 1,31,32
 241 63 241 63 241 100 c 0,33,34
 241 108 241 108 243 124 c 1,35,-1
 269 251 l 1,36,-1
 156 251 l 1,37,-1
 181 364 l 1,38,-1
 294 364 l 1,39,-1
 309 441 l 1,40,41
 323 505 323 505 402 569 c 1,42,-1
 323 569 l 1,43,-1
 346 682 l 1,44,-1
 872 682 l 2,45,46
 888 682 888 682 898.5 693 c 128,-1,47
 909 704 909 704 910 712 c 2,48,-1
 922 775 l 1,49,-1
 1059 775 l 1,50,-1
 1047 712 l 1,51,52
 1035 656 1035 656 986 617 c 1,53,54
 953 584 953 584 902 570 c 1,55,56
 927 549 927 549 942 522.5 c 128,-1,57
 957 496 957 496 953 468 c 1,58,-1
 931 363 l 1,59,-1
 1045 363 l 1,60,61
 1036 381 1036 381 1036 407 c 0,62,63
 1036 423 1036 423 1038 432 c 2,64,-1
 1053 504 l 2,65,66
 1064 555 1064 555 1108 590 c 1,67,68
 1148 625 1148 625 1202 625 c 2,69,-1
 1322 625 l 2,70,71
 1379 625 1379 625 1407 588 c 1,72,73
 1432 560 1432 560 1432 524 c 0,74,75
 1432 506 1432 506 1430 497 c 2,76,-1
 1409 404 l 1,0,1
1276 413 m 1,77,-1
 1291 485 l 2,78,79
 1292 490 1292 490 1289.5 496 c 128,-1,80
 1287 502 1287 502 1284.5 506.5 c 128,-1,81
 1282 511 1282 511 1270 511 c 2,82,-1
 1214 511 l 2,83,84
 1200 511 1200 511 1196 506 c 2,85,-1
 1185 490 l 1,86,-1
 1169 414 l 1,87,88
 1168 400 1168 400 1175 388 c 1,89,-1
 1215 360 l 1,90,91
 1233 364 1233 364 1249 376 c 0,92,93
 1271 394 1271 394 1276 413 c 1,77,-1
793 364 m 1,94,-1
 816 474 l 2,95,96
 817 479 817 479 817 484.5 c 128,-1,97
 817 490 817 490 817 492 c 0,98,99
 817 539 817 539 771 568 c 1,100,-1
 553 568 l 1,101,102
 458 512 458 512 444 444 c 2,103,-1
 426 362 l 1,104,-1
 793 364 l 1,94,-1
753 175 m 1,105,-1
 768 249 l 1,106,-1
 402 249 l 1,107,-1
 384 161 l 2,108,109
 380 143 380 143 391 125 c 1,110,111
 403 110 403 110 418 110 c 2,112,-1
 675 110 l 2,113,114
 686 110 686 110 696.5 114.5 c 128,-1,115
 707 119 707 119 719 127 c 1,116,117
 745 149 745 149 753 175 c 1,105,-1
EndSplineSet
EndChar

StartChar: uvowel
Encoding: 113 3209 113
Width: 1535
Flags: W
LayerCount: 2
Fore
SplineSet
1612 152 m 2,0,1
 1604 113 1604 113 1575.5 76 c 128,-1,2
 1547 39 1547 39 1506 19.5 c 128,-1,3
 1465 0 1465 0 1429 0 c 2,4,-1
 1233 0 l 2,5,6
 1211 0 1211 0 1190 5.5 c 128,-1,7
 1169 11 1169 11 1151 20 c 128,-1,8
 1133 29 1133 29 1122 42 c 128,-1,9
 1111 55 1111 55 1100 74 c 1,10,11
 1091 97 1091 97 1091 125 c 0,12,13
 1091 133 1091 133 1093 149 c 1,14,-1
 1174 532 l 2,15,16
 1176 540 1176 540 1169 556 c 1,17,18
 1158 564 1158 564 1140 564 c 2,19,-1
 953 564 l 2,20,21
 934 564 934 564 925 557 c 1,22,23
 914 546 914 546 910 531 c 2,24,-1
 828 140 l 2,25,26
 824 119 824 119 816 104.5 c 128,-1,27
 808 90 808 90 790 68 c 0,28,29
 764 38 764 38 718 18 c 128,-1,30
 672 -2 672 -2 630 -2 c 2,31,-1
 371 -1 l 2,32,33
 299 -1 299 -1 255 45 c 0,34,35
 225 75 225 75 225 122 c 0,36,37
 225 140 225 140 229 159 c 2,38,-1
 305 523 l 1,39,40
 316 567 316 567 338 602 c 1,41,42
 370 641 370 641 412 659 c 128,-1,43
 454 677 454 677 489 677 c 2,44,-1
 715 677 l 1,45,-1
 672 477 l 1,46,47
 668 452 668 452 652 427 c 128,-1,48
 636 402 636 402 614 381 c 1,49,50
 564 339 564 339 510 339 c 2,51,-1
 422 339 l 1,52,-1
 447 452 l 1,53,-1
 505 452 l 2,54,55
 509 452 509 452 514.5 454.5 c 128,-1,56
 520 457 520 457 524 459 c 0,57,58
 533 466 533 466 535 475 c 2,59,-1
 554 561 l 1,60,-1
 491 561 l 2,61,62
 468 561 468 561 453.5 548 c 128,-1,63
 439 535 439 535 437 520 c 1,64,-1
 360 156 l 2,65,66
 356 140 356 140 368.5 123.5 c 128,-1,67
 381 107 381 107 402 107 c 2,68,-1
 645 107 l 2,69,70
 664 107 664 107 675 119 c 1,71,72
 693 134 693 134 695 149 c 1,73,-1
 774 528 l 2,74,75
 782 564 782 564 795 587 c 128,-1,76
 808 610 808 610 836 631 c 1,77,78
 887 674 887 674 948 674 c 2,79,-1
 1177 674 l 2,80,81
 1221 674 1221 674 1253.5 656.5 c 128,-1,82
 1286 639 1286 639 1301 606 c 0,83,84
 1310 585 1310 585 1310 559 c 0,85,86
 1310 551 1310 551 1308 535 c 1,87,-1
 1229 157 l 2,88,89
 1224 136 1224 136 1235.5 121.5 c 128,-1,90
 1247 107 1247 107 1263 107 c 2,91,-1
 1426 107 l 2,92,93
 1445 107 1445 107 1456 119 c 1,94,95
 1464 126 1464 126 1468.5 133 c 128,-1,96
 1473 140 1473 140 1475 149 c 2,97,-1
 1553 520 l 1,98,99
 1554 531 1554 531 1545 540 c 128,-1,100
 1536 549 1536 549 1518 549 c 2,101,-1
 1488 549 l 1,102,-1
 1514 675 l 1,103,-1
 1586 675 l 2,104,105
 1644 675 1644 675 1672 638 c 1,106,107
 1694 612 1694 612 1694 575 c 0,108,109
 1694 568 1694 568 1692 549 c 1,110,-1
 1612 152 l 2,0,1
EndSplineSet
EndChar

StartChar: uuvowel
Encoding: 114 3210 114
Width: 1840
Flags: W
LayerCount: 2
Fore
SplineSet
1913 144 m 1,0,1
 1899 83 1899 83 1850 46 c 1,2,3
 1797 2 1797 2 1743 2 c 2,4,-1
 1685 2 l 2,5,6
 1632 2 1632 2 1596 41 c 1,7,8
 1573 68 1573 68 1573 101 c 0,9,10
 1573 115 1573 115 1577 130 c 2,11,-1
 1598 232 l 1,12,-1
 1733 232 l 1,13,-1
 1712 130 l 2,14,15
 1710 121 1710 121 1712 119 c 0,16,17
 1713 117 1713 117 1724 116 c 1,18,-1
 1759 116 l 1,19,20
 1767 120 1767 120 1768 122 c 2,21,-1
 1776 140 l 1,22,-1
 1855 516 l 2,23,24
 1856 521 1856 521 1856 530 c 0,25,26
 1856 543 1856 543 1848 555.5 c 128,-1,27
 1840 568 1840 568 1821 568 c 2,28,-1
 1679 568 l 2,29,30
 1651 568 1651 568 1631 552 c 128,-1,31
 1611 536 1611 536 1607 514 c 2,32,-1
 1533 163 l 2,33,34
 1528 142 1528 142 1520 124 c 128,-1,35
 1512 106 1512 106 1496 83 c 1,36,37
 1484 69 1484 69 1475 58 c 0,38,39
 1456 37 1456 37 1431 25 c 0,40,41
 1387 2 1387 2 1348 2 c 2,42,-1
 1140 2 l 2,43,44
 1080 2 1080 2 1045 49 c 1,45,46
 1025 78 1025 78 1025 118 c 0,47,48
 1025 136 1025 136 1029 157 c 2,49,-1
 1107 528 l 2,50,51
 1111 547 1111 547 1100 558 c 128,-1,52
 1089 569 1089 569 1070 569 c 2,53,-1
 926 569 l 2,54,55
 904 569 904 569 889 555 c 128,-1,56
 874 541 874 541 870 523 c 2,57,-1
 796 169 l 2,58,59
 781 100 781 100 718 50.5 c 128,-1,60
 655 1 655 1 583 1 c 2,61,-1
 392 2 l 2,62,63
 315 2 315 2 262 48 c 1,64,65
 229 81 229 81 229 128 c 0,66,67
 229 143 229 143 233 162 c 2,68,-1
 311 534 l 1,69,70
 319 566 319 566 335 591.5 c 128,-1,71
 351 617 351 617 381 638 c 0,72,73
 438 680 438 680 512 680 c 2,74,-1
 719 680 l 1,75,-1
 680 499 l 2,76,77
 668 442 668 442 614 400 c 1,78,79
 565 357 565 357 501 357 c 2,80,-1
 443 357 l 1,81,-1
 468 470 l 1,82,-1
 512 470 l 2,83,84
 517 470 517 470 522.5 472.5 c 128,-1,85
 528 475 528 475 530 476 c 0,86,87
 539 483 539 483 541 492 c 2,88,-1
 557 566 l 1,89,-1
 501 566 l 2,90,91
 478 566 478 566 461 553.5 c 128,-1,92
 444 541 444 541 440 525 c 2,93,-1
 365 167 l 2,94,95
 361 144 361 144 376 128 c 128,-1,96
 391 112 391 112 419 112 c 2,97,-1
 599 112 l 2,98,99
 614 112 614 112 636 127 c 1,100,101
 654 145 654 145 658 167 c 2,102,-1
 733 525 l 1,103,104
 744 571 744 571 774 604 c 0,105,106
 790 623 790 623 807.5 636 c 128,-1,107
 825 649 825 649 848 658 c 0,108,109
 894 677 894 677 937 677 c 2,110,-1
 1095 677 l 2,111,112
 1142 677 1142 677 1179 657.5 c 128,-1,113
 1216 638 1216 638 1229 606 c 128,-1,114
 1242 574 1242 574 1242 548 c 0,115,116
 1242 540 1242 540 1240 524 c 1,117,-1
 1162 153 l 2,118,119
 1158 137 1158 137 1165 125 c 1,120,121
 1177 111 1177 111 1196 111 c 2,122,-1
 1330 111 l 2,123,124
 1341 111 1341 111 1352 115 c 128,-1,125
 1363 119 1363 119 1372 125 c 1,126,127
 1386 139 1386 139 1390.5 146.5 c 128,-1,128
 1395 154 1395 154 1397 165 c 2,129,-1
 1469 510 l 1,130,131
 1480 557 1480 557 1508 594 c 1,132,133
 1524 613 1524 613 1542.5 628 c 128,-1,134
 1561 643 1561 643 1583 654 c 0,135,136
 1627 675 1627 675 1674 675 c 2,137,-1
 1840 675 l 2,138,139
 1889 675 1889 675 1926 654 c 128,-1,140
 1963 633 1963 633 1978 593 c 0,141,142
 1983 582 1983 582 1985.5 567 c 128,-1,143
 1988 552 1988 552 1988 537 c 0,144,145
 1988 519 1988 519 1986 510 c 2,146,-1
 1913 144 l 1,0,1
EndSplineSet
EndChar

StartChar: rvocalicvowel.part
Encoding: 116 -1 116
Width: 1051
Flags: W
LayerCount: 2
Fore
SplineSet
1122 152 m 2,0,1
 1115 119 1115 119 1102.5 96 c 128,-1,2
 1090 73 1090 73 1068 48 c 1,3,4
 1021 1 1021 1 974 1 c 2,5,-1
 760 1 l 2,6,7
 717 1 717 1 677 23 c 0,8,9
 648 38 648 38 633 67 c 1,10,11
 611 41 611 41 588 25 c 1,12,13
 552 2 552 2 526 2 c 2,14,-1
 281 3 l 2,15,16
 228 3 228 3 202.5 32 c 128,-1,17
 177 61 177 61 177 93 c 0,18,19
 177 98 177 98 179 112 c 2,20,-1
 218 299 l 1,21,-1
 401 299 l 2,22,23
 462 299 462 299 490 270 c 1,24,25
 520 244 520 244 520 212 c 0,26,27
 520 207 520 207 518 193 c 2,28,-1
 506 136 l 1,29,-1
 371 136 l 1,30,-1
 380 180 l 2,31,32
 381 188 381 188 365 188 c 2,33,-1
 332 188 l 1,34,-1
 323 146 l 1,35,36
 323 134 323 134 328 125 c 1,37,38
 337 116 337 116 349 116 c 2,39,-1
 504 116 l 2,40,41
 518 116 518 116 529.5 120 c 128,-1,42
 541 124 541 124 552 130 c 0,43,44
 571 141 571 141 575 157 c 2,45,-1
 657 544 l 1,46,47
 658 556 658 556 646.5 563.5 c 128,-1,48
 635 571 635 571 610 571 c 2,49,-1
 458 571 l 2,50,51
 438 571 438 571 422 563 c 1,52,53
 413 562 413 562 411 551 c 2,54,-1
 397 487 l 1,55,-1
 430 487 l 2,56,57
 441 487 441 487 452 496 c 128,-1,58
 463 505 463 505 465 516 c 2,59,-1
 473 553 l 1,60,-1
 608 553 l 1,61,-1
 600 510 l 1,62,63
 588 456 588 456 540.5 414 c 128,-1,64
 493 372 493 372 440 372 c 2,65,-1
 235 372 l 1,66,-1
 276 569 l 2,67,68
 280 591 280 591 295 613 c 128,-1,69
 310 635 310 635 333 653 c 1,70,71
 382 683 382 683 438 683 c 2,72,-1
 669 683 l 2,73,74
 732 683 732 683 768 646 c 1,75,76
 797 613 797 613 797 574 c 0,77,78
 797 567 797 567 795 551 c 1,79,-1
 717 186 l 1,80,81
 726 154 726 154 749.5 134 c 128,-1,82
 773 114 773 114 796 114 c 2,83,-1
 931 114 l 2,84,85
 940 114 940 114 948 118 c 128,-1,86
 956 122 956 122 965 130 c 0,87,88
 984 146 984 146 988 169 c 2,89,-1
 1059 502 l 2,90,91
 1060 507 1060 507 1060 516 c 0,92,93
 1060 535 1060 535 1047 551.5 c 128,-1,94
 1034 568 1034 568 1007 568 c 2,95,-1
 845 568 l 1,96,-1
 868 681 l 1,97,-1
 1044 681 l 2,98,99
 1053 681 1053 681 1062 685 c 128,-1,100
 1071 689 1071 689 1083 697 c 1,101,102
 1104 716 1104 716 1108 737 c 2,103,-1
 1120 800 l 1,104,-1
 1255 800 l 1,105,-1
 1240 723 l 2,106,107
 1232 684 1232 684 1204 656 c 1,108,109
 1183 630 1183 630 1158 618 c 1,110,111
 1177 604 1177 604 1186.5 582 c 128,-1,112
 1196 560 1196 560 1196 539 c 0,113,114
 1196 521 1196 521 1194 513 c 2,115,-1
 1122 152 l 2,0,1
EndSplineSet
EndChar

StartChar: lvocalicvowel.part
Encoding: 118 -1 118
Width: 824
Flags: W
LayerCount: 2
Fore
SplineSet
1058 217 m 1,0,-1
 893 58 l 1,1,2
 875 37 875 37 857 25.5 c 128,-1,3
 839 14 839 14 826 11.5 c 128,-1,4
 813 9 813 9 801 9 c 0,5,6
 772 9 772 9 737 20.5 c 128,-1,7
 702 32 702 32 680 54 c 0,8,9
 669 66 669 66 658 81 c 0,10,11
 640 106 640 106 640 132 c 0,12,13
 640 137 640 137 642 149.5 c 128,-1,14
 644 162 644 162 721 253 c 0,15,16
 746 282 746 282 797 342 c 1,17,18
 823 388 823 388 835 465 c 0,19,20
 839 490 839 490 841 533 c 1,21,22
 845 547 845 547 833.5 556.5 c 128,-1,23
 822 566 822 566 794 566 c 2,24,-1
 716 566 l 2,25,26
 698 566 698 566 690 564 c 128,-1,27
 682 562 682 562 667 552.5 c 128,-1,28
 652 543 652 543 648 525 c 2,29,-1
 632 448 l 1,30,-1
 498 448 l 1,31,-1
 513 520 l 2,32,33
 517 538 517 538 503 552 c 128,-1,34
 489 566 489 566 461 566 c 2,35,-1
 366 566 l 2,36,37
 343 566 343 566 326.5 554.5 c 128,-1,38
 310 543 310 543 306 525 c 2,39,-1
 291 461 l 1,40,41
 291 436 291 436 299 431 c 1,42,43
 307 417 307 417 321 417 c 2,44,-1
 356 417 l 1,45,-1
 331 304 l 1,46,-1
 270 305 l 2,47,48
 209 305 209 305 177 345 c 1,49,50
 151 373 151 373 151 413 c 0,51,52
 151 420 151 420 153 439 c 1,53,-1
 174 538 l 2,54,55
 183 580 183 580 211 612 c 128,-1,56
 239 644 239 644 280 660 c 1,57,58
 317 678 317 678 361 678 c 2,59,-1
 498 678 l 2,60,61
 546 678 546 678 571 659 c 1,62,63
 589 650 589 650 601 627 c 1,64,65
 605 632 605 632 615.5 642.5 c 128,-1,66
 626 653 626 653 640 658 c 1,67,68
 672 679 672 679 711 679 c 2,69,-1
 841 679 l 2,70,71
 915 679 915 679 950 639 c 1,72,73
 980 609 980 609 980 565 c 0,74,75
 980 551 980 551 976 535 c 2,76,-1
 941 369 l 2,77,78
 934 337 934 337 912 307 c 0,79,80
 904 296 904 296 816 201 c 0,81,82
 802 187 802 187 797 182 c 0,83,84
 776 161 776 161 775 156 c 0,85,86
 773 138 773 138 785 133 c 1,87,88
 792 128 792 128 806.5 132 c 128,-1,89
 821 136 821 136 826 143 c 1,90,-1
 967 285 l 1,91,-1
 1058 217 l 1,0,-1
EndSplineSet
EndChar

StartChar: evowel
Encoding: 119 3214 119
Width: 996
Flags: W
LayerCount: 2
Fore
SplineSet
1071 152 m 2,0,1
 1059 89 1059 89 1007.5 44.5 c 128,-1,2
 956 0 956 0 900 0 c 2,3,-1
 682 1 l 2,4,5
 642 1 642 1 614 22 c 1,6,7
 599 31 599 31 592 47 c 1,8,9
 578 31 578 31 560 20 c 0,10,11
 527 -1 527 -1 495 -1 c 2,12,-1
 329 0 l 2,13,14
 260 0 260 0 220 40 c 1,15,16
 191 72 191 72 191 114 c 0,17,18
 191 122 191 122 193 141 c 1,19,-1
 251 415 l 1,20,-1
 433 415 l 2,21,22
 465 415 465 415 490 392 c 128,-1,23
 515 369 515 369 523 341 c 128,-1,24
 531 313 531 313 532 285 c 128,-1,25
 533 257 533 257 533 241 c 1,26,-1
 402 208 l 1,27,28
 402 254 402 254 387 282 c 0,29,30
 380 297 380 297 361 301 c 1,31,-1
 332 169 l 1,32,33
 331 147 331 147 342 129 c 1,34,35
 357 113 357 113 380 113 c 2,36,-1
 489 113 l 2,37,38
 510 113 510 113 528 128 c 0,39,40
 533 133 533 133 542 144 c 128,-1,41
 551 155 551 155 553 167 c 2,42,-1
 568 244 l 1,43,-1
 705 244 l 1,44,-1
 691 176 l 2,45,46
 690 172 690 172 690 167.5 c 128,-1,47
 690 163 690 163 690 162 c 0,48,49
 690 148 690 148 701 134 c 1,50,51
 719 114 719 114 745 114 c 2,52,-1
 865 114 l 2,53,54
 890 114 890 114 912 133.5 c 128,-1,55
 934 153 934 153 939 178 c 2,56,-1
 1006 495 l 2,57,58
 1008 506 1008 506 1008 513 c 0,59,60
 1008 532 1008 532 992 550 c 128,-1,61
 976 568 976 568 941 568 c 2,62,-1
 836 568 l 1,63,-1
 859 681 l 1,64,-1
 978 681 l 2,65,66
 1033 681 1033 681 1072 659 c 1,67,68
 1115 637 1115 637 1133 597 c 0,69,70
 1145 569 1145 569 1145 541 c 0,71,72
 1145 526 1145 526 1141 510 c 2,73,-1
 1071 152 l 2,0,1
EndSplineSet
EndChar

StartChar: eevowel
Encoding: 120 3215 120
Width: 993
Flags: W
LayerCount: 2
Fore
SplineSet
1071 166 m 1,0,1
 1063 123 1063 123 1026 81 c 1,2,3
 1010 61 1010 61 981 40 c 0,4,5
 969 31 969 31 947 22 c 128,-1,6
 925 13 925 13 896.5 6 c 128,-1,7
 868 -1 868 -1 839 -1 c 2,8,-1
 685 3 l 2,9,10
 649 3 649 3 621 24 c 1,11,12
 603 42 603 42 599 64 c 1,13,14
 542 2 542 2 471 2 c 2,15,-1
 343 2 l 2,16,17
 268 2 268 2 225 48 c 1,18,19
 192 81 192 81 192 127 c 0,20,21
 192 141 192 141 196 157 c 2,22,-1
 252 418 l 1,23,-1
 433 418 l 2,24,25
 465 418 465 418 487 397 c 128,-1,26
 509 376 509 376 524 337 c 1,27,28
 535 302 535 302 535 244 c 1,29,-1
 400 212 l 1,30,31
 400 240 400 240 397.5 256 c 128,-1,32
 395 272 395 272 386 284 c 1,33,34
 378 299 378 299 362 303 c 1,35,-1
 333 171 l 1,36,37
 333 148 333 148 344 132 c 1,38,39
 359 114 359 114 382 114 c 2,40,-1
 489 114 l 2,41,42
 503 114 503 114 517 120 c 0,43,44
 519 121 519 121 526.5 127.5 c 128,-1,45
 534 134 534 134 543 145 c 128,-1,46
 552 156 552 156 554 168 c 2,47,-1
 569 245 l 1,48,-1
 706 245 l 1,49,-1
 692 177 l 2,50,51
 691 172 691 172 691 161 c 0,52,53
 691 147 691 147 699 132 c 1,54,55
 715 113 715 113 741 113 c 2,56,-1
 865 113 l 2,57,58
 887 113 887 113 909 132 c 0,59,60
 921 143 921 143 928.5 153.5 c 128,-1,61
 936 164 936 164 938 178 c 2,62,-1
 1005 495 l 2,63,64
 1007 506 1007 506 1007 511 c 0,65,66
 1007 532 1007 532 992 547 c 1,67,68
 976 568 976 568 939 568 c 2,69,-1
 843 568 l 1,70,-1
 838 547 l 1,71,72
 829 504 829 504 782.5 477 c 128,-1,73
 736 450 736 450 685 450 c 2,74,-1
 551 450 l 2,75,76
 493 450 493 450 453 487 c 1,77,78
 424 519 424 519 424 556 c 0,79,80
 424 561 424 561 426 577 c 1,81,-1
 448 679 l 1,82,-1
 583 679 l 1,83,-1
 564 591 l 2,84,85
 563 582 563 582 570 570 c 1,86,87
 581 562 581 562 590 562 c 2,88,-1
 682 562 l 2,89,90
 690 562 690 562 701 573 c 128,-1,91
 712 584 712 584 716 600 c 2,92,-1
 732 679 l 1,93,-1
 977 679 l 2,94,95
 1035 679 1035 679 1074 657 c 1,96,97
 1118 635 1118 635 1134 595 c 1,98,99
 1148 567 1148 567 1148 539 c 0,100,101
 1148 524 1148 524 1144 508 c 2,102,-1
 1071 166 l 1,0,1
EndSplineSet
EndChar

StartChar: aivowel
Encoding: 121 3216 121
Width: 1054
Flags: W
LayerCount: 2
Fore
SplineSet
1125 154 m 1,0,1
 1113 90 1113 90 1053 44 c 128,-1,2
 993 -2 993 -2 915 -2 c 1,3,-1
 763 2 l 1,4,5
 716 2 716 2 686 23 c 128,-1,6
 656 44 656 44 644 70 c 1,7,8
 625 51 625 51 615.5 43.5 c 128,-1,9
 606 36 606 36 587 25 c 0,10,11
 547 2 547 2 511 2 c 2,12,-1
 331 3 l 2,13,14
 262 3 262 3 222 43 c 1,15,16
 193 75 193 75 193 117 c 0,17,18
 193 125 193 125 195 144 c 1,19,-1
 225 289 l 2,20,21
 240 357 240 357 297 399 c 1,22,23
 323 420 323 420 357 431.5 c 128,-1,24
 391 443 391 443 424 443 c 2,25,-1
 635 443 l 1,26,-1
 603 295 l 2,27,28
 591 235 591 235 533 192 c 1,29,30
 501 166 501 166 470.5 154.5 c 128,-1,31
 440 143 440 143 398 143 c 1,32,-1
 386 253 l 1,33,34
 409 253 409 253 420 256.5 c 128,-1,35
 431 260 431 260 445 269 c 0,36,37
 467 283 467 283 468 298 c 1,38,-1
 475 327 l 1,39,-1
 436 327 l 2,40,41
 403 327 403 327 383 312.5 c 128,-1,42
 363 298 363 298 359 280 c 2,43,-1
 336 180 l 1,44,45
 332 152 332 152 345 131 c 128,-1,46
 358 110 358 110 383 110 c 2,47,-1
 506 110 l 2,48,49
 538 110 538 110 567 131.5 c 128,-1,50
 596 153 596 153 601 179 c 2,51,-1
 612 228 l 1,52,-1
 749 228 l 1,53,-1
 738 179 l 2,54,55
 737 174 737 174 737 166 c 0,56,57
 737 148 737 148 749 132 c 1,58,59
 768 111 768 111 796 111 c 2,60,-1
 934 111 l 2,61,62
 943 111 943 111 952.5 116.5 c 128,-1,63
 962 122 962 122 971 130 c 0,64,65
 993 152 993 152 998 180 c 2,66,-1
 1069 511 l 2,67,68
 1071 523 1071 523 1069 531 c 128,-1,69
 1067 539 1067 539 1060 551.5 c 128,-1,70
 1053 564 1053 564 1027 564 c 2,71,-1
 904 564 l 2,72,73
 885 564 885 564 867 552 c 1,74,75
 855 540 855 540 850 519 c 2,76,-1
 841 473 l 1,77,-1
 706 473 l 1,78,-1
 717 523 l 2,79,80
 721 538 721 538 703 551 c 128,-1,81
 685 564 685 564 649 564 c 2,82,-1
 472 564 l 2,83,84
 449 564 449 564 431 549 c 1,85,86
 409 535 409 535 386 496 c 1,87,-1
 294 560 l 1,88,89
 337 620 337 620 383 648.5 c 128,-1,90
 429 677 429 677 475 677 c 2,91,-1
 699 677 l 2,92,93
 749 677 749 677 774 656 c 1,94,95
 797 642 797 642 805 617 c 1,96,97
 814 628 814 628 826.5 637.5 c 128,-1,98
 839 647 839 647 853 655 c 0,99,100
 888 676 888 676 928 676 c 2,101,-1
 1070 676 l 2,102,103
 1114 676 1114 676 1150 658.5 c 128,-1,104
 1186 641 1186 641 1200 608 c 0,105,106
 1207 590 1207 590 1209 581 c 128,-1,107
 1211 572 1211 572 1211 558 c 0,108,109
 1211 553 1211 553 1209 537 c 1,110,-1
 1125 154 l 1,0,1
EndSplineSet
EndChar

StartChar: ovowel
Encoding: 122 3218 122
Width: 964
Flags: W
LayerCount: 2
Fore
SplineSet
1029 124 m 2,0,1
 1024 99 1024 99 1012.5 78.5 c 128,-1,2
 1001 58 1001 58 980 39 c 0,3,4
 938 2 938 2 891 2 c 2,5,-1
 672 2 l 2,6,7
 636 2 636 2 613 23 c 1,8,9
 601 31 601 31 592 49 c 1,10,11
 583 34 583 34 565 23 c 0,12,13
 532 2 532 2 504 2 c 2,14,-1
 303 2 l 2,15,16
 247 2 247 2 207 35 c 0,17,18
 178 60 178 60 178 95 c 0,19,20
 178 103 178 103 180 117 c 2,21,-1
 212 269 l 1,22,-1
 359 348 l 1,23,24
 395 369 395 369 427.5 387.5 c 128,-1,25
 460 406 460 406 478 418 c 0,26,27
 504 434 504 434 508 453 c 2,28,-1
 526 538 l 2,29,30
 528 549 528 549 521 557 c 128,-1,31
 514 565 514 565 500 565 c 2,32,-1
 411 565 l 1,33,-1
 402 523 l 2,34,35
 401 514 401 514 407 504.5 c 128,-1,36
 413 495 413 495 428 495 c 2,37,-1
 453 495 l 1,38,-1
 428 382 l 1,39,-1
 368 382 l 2,40,41
 314 382 314 382 285 425 c 1,42,43
 262 453 262 453 262 492 c 0,44,45
 262 507 262 507 266 523 c 2,46,-1
 299 678 l 1,47,-1
 553 678 l 2,48,49
 589 678 589 678 617 665.5 c 128,-1,50
 645 653 645 653 660 627 c 0,51,52
 671 608 671 608 671 589 c 0,53,54
 671 584 671 584 669 573 c 2,55,-1
 637 421 l 1,56,57
 630 393 630 393 596.5 367.5 c 128,-1,58
 563 342 563 342 449 279 c 2,59,-1
 337 218 l 1,60,-1
 325 157 l 2,61,62
 321 141 321 141 330 127 c 1,63,64
 342 115 342 115 360 115 c 2,65,-1
 490 115 l 2,66,67
 505 115 505 115 524.5 131 c 128,-1,68
 544 147 544 147 548 165 c 2,69,-1
 559 219 l 1,70,-1
 694 219 l 1,71,-1
 685 170 l 2,72,73
 684 166 684 166 684 157 c 0,74,75
 684 143 684 143 692 132 c 1,76,77
 707 116 707 116 732 116 c 2,78,-1
 846 116 l 2,79,80
 861 116 861 116 879.5 131 c 128,-1,81
 898 146 898 146 903 165 c 1,82,-1
 922 258 l 2,83,84
 926 274 926 274 917 283 c 128,-1,85
 908 292 908 292 890 292 c 2,86,-1
 843 292 l 1,87,-1
 866 404 l 1,88,-1
 975 404 l 2,89,90
 1026 404 1026 404 1047.5 378.5 c 128,-1,91
 1069 353 1069 353 1069 325 c 0,92,93
 1069 317 1069 317 1067 303 c 2,94,-1
 1029 124 l 2,0,1
EndSplineSet
EndChar

StartChar: oovowel
Encoding: 123 3219 123
Width: 964
Flags: W
LayerCount: 2
Fore
SplineSet
1031 140 m 2,0,1
 1023 103 1023 103 997.5 70.5 c 128,-1,2
 972 38 972 38 944 23 c 1,3,4
 911 2 911 2 878 2 c 2,5,-1
 671 2 l 2,6,7
 635 2 635 2 612 23 c 1,8,9
 596 34 596 34 589 53 c 1,10,11
 585 49 585 49 570 37 c 0,12,13
 566 35 566 35 551 23 c 1,14,15
 519 4 519 4 487 4 c 2,16,-1
 301 4 l 2,17,18
 245 4 245 4 205 37 c 0,19,20
 176 62 176 62 176 98 c 0,21,22
 176 106 176 106 178 120 c 2,23,-1
 210 273 l 1,24,-1
 357 352 l 2,25,26
 364 356 364 356 431 395 c 0,27,28
 470 417 470 417 477 422 c 0,29,30
 505 440 505 440 509 459 c 2,31,-1
 524 531 l 2,32,33
 528 546 528 546 516 560 c 1,34,35
 508 572 508 572 486 572 c 2,36,-1
 412 572 l 1,37,-1
 404 530 l 2,38,39
 402 521 402 521 409 510.5 c 128,-1,40
 416 500 416 500 430 500 c 2,41,-1
 455 500 l 1,42,-1
 432 386 l 1,43,-1
 372 386 l 2,44,45
 318 386 318 386 288 429 c 0,46,47
 266 459 266 459 266 496 c 0,48,49
 266 510 266 510 270 529 c 2,50,-1
 303 684 l 1,51,-1
 388 684 l 1,52,53
 314 740 314 740 322 777 c 2,54,-1
 340 861 l 2,55,56
 348 901 348 901 392 926 c 1,57,58
 428 951 428 951 482 951 c 2,59,-1
 622 951 l 1,60,-1
 599 837 l 1,61,-1
 497 837 l 1,62,-1
 475 833 l 1,63,64
 468 829 468 829 468 822 c 1,65,-1
 459 782 l 2,66,67
 452 749 452 749 545 685 c 1,68,-1
 556 685 l 2,69,70
 592 685 592 685 620 672.5 c 128,-1,71
 648 660 648 660 663 634 c 1,72,73
 672 616 672 616 672 595 c 0,74,75
 672 584 672 584 671 579 c 2,76,-1
 639 424 l 1,77,78
 632 396 632 396 596 368 c 0,79,80
 570 347 570 347 450 282 c 0,81,82
 421 266 421 266 377 241 c 0,83,84
 349 226 349 226 341 222 c 1,85,-1
 327 159 l 1,86,87
 325 145 325 145 333 129 c 1,88,89
 347 115 347 115 363 115 c 2,90,-1
 493 115 l 2,91,92
 504 115 504 115 527 130 c 1,93,94
 546 149 546 149 550 165 c 2,95,-1
 562 221 l 1,96,-1
 697 221 l 1,97,-1
 683 158 l 2,98,99
 679 140 679 140 694 127 c 128,-1,100
 709 114 709 114 732 114 c 2,101,-1
 846 114 l 2,102,103
 857 114 857 114 880 129 c 1,104,105
 899 145 899 145 903 164 c 2,106,-1
 924 259 l 1,107,108
 926 277 926 277 918 285 c 1,109,110
 907 292 907 292 892 292 c 2,111,-1
 845 292 l 1,112,-1
 868 406 l 1,113,-1
 964 406 l 2,114,115
 1017 406 1017 406 1043 367 c 1,116,117
 1064 339 1064 339 1064 303 c 0,118,119
 1064 285 1064 285 1062 277 c 2,120,-1
 1031 140 l 2,0,1
EndSplineSet
EndChar

StartChar: auvowel
Encoding: 124 3220 124
Width: 960
Flags: W
LayerCount: 2
Fore
SplineSet
1135 508 m 1,0,-1
 814 508 l 2,1,2
 761 508 761 508 732 549 c 1,3,4
 711 574 711 574 711 611 c 0,5,6
 711 627 711 627 715 646 c 2,7,-1
 740 766 l 1,8,-1
 1020 766 l 1,9,-1
 997 653 l 1,10,-1
 839 653 l 1,11,-1
 838 646 l 2,12,13
 837 641 837 641 842 629 c 1,14,15
 850 620 850 620 862 620 c 2,16,-1
 1024 620 l 1,17,-1
 1061 793 l 2,18,19
 1065 812 1065 812 1051 826 c 128,-1,20
 1037 840 1037 840 1015 840 c 2,21,-1
 743 840 l 1,22,23
 747 831 747 831 745 820 c 2,24,-1
 740 794 l 1,25,26
 732 758 732 758 706 735 c 1,27,28
 674 710 674 710 646 710 c 2,29,-1
 315 710 l 1,30,-1
 338 823 l 1,31,-1
 620 823 l 1,32,-1
 634 827 l 1,33,-1
 643 839 l 1,34,35
 631 840 631 840 623 842 c 1,36,-1
 342 841 l 1,37,-1
 365 955 l 1,38,-1
 1055 955 l 2,39,40
 1104 955 1104 955 1140 939 c 1,41,42
 1179 918 1179 918 1193 891 c 128,-1,43
 1207 864 1207 864 1207 841 c 0,44,45
 1207 836 1207 836 1205 822 c 1,46,-1
 1135 508 l 1,0,-1
1029 127 m 2,47,48
 1024 102 1024 102 1012.5 81 c 128,-1,49
 1001 60 1001 60 982 39 c 1,50,51
 940 2 940 2 893 2 c 2,52,-1
 669 2 l 2,53,54
 636 2 636 2 613 23 c 1,55,56
 598 32 598 32 590 51 c 1,57,58
 582 40 582 40 571.5 32.5 c 128,-1,59
 561 25 561 25 556 21 c 0,60,61
 526 2 526 2 501 2 c 2,62,-1
 314 3 l 2,63,64
 250 3 250 3 213 45 c 0,65,66
 184 78 184 78 184 118 c 0,67,68
 184 126 184 126 186 145 c 1,69,-1
 212 270 l 1,70,-1
 360 349 l 1,71,72
 396 370 396 370 432 391.5 c 128,-1,73
 468 413 468 413 477 420 c 1,74,75
 505 438 505 438 509 457 c 2,76,-1
 529 554 l 1,77,78
 531 570 531 570 499 570 c 2,79,-1
 410 570 l 1,80,-1
 402 528 l 2,81,82
 400 519 400 519 407 508.5 c 128,-1,83
 414 498 414 498 428 498 c 2,84,-1
 467 498 l 1,85,-1
 444 384 l 1,86,-1
 367 384 l 2,87,88
 314 384 314 384 284 427 c 1,89,90
 263 459 263 459 263 495 c 0,91,92
 263 511 263 511 267 527 c 2,93,-1
 300 682 l 1,94,-1
 554 682 l 2,95,96
 590 682 590 682 620 668 c 128,-1,97
 650 654 650 654 660.5 633 c 128,-1,98
 671 612 671 612 671 591 c 0,99,100
 671 580 671 580 670 575 c 2,101,-1
 638 420 l 1,102,103
 631 397 631 397 606 378 c 1,104,105
 599 371 599 371 581.5 358 c 128,-1,106
 564 345 564 345 550 338 c 0,107,108
 546 336 546 336 520 321 c 0,109,110
 476 296 476 296 439 275 c 2,111,-1
 340 219 l 1,112,-1
 326 156 l 2,113,114
 322 138 322 138 333 127 c 1,115,116
 341 112 341 112 362 112 c 2,117,-1
 506 112 l 2,118,119
 518 112 518 112 529 126 c 0,120,121
 536 134 536 134 542 144.5 c 128,-1,122
 548 155 548 155 549 163 c 2,123,-1
 561 219 l 1,124,-1
 695 219 l 1,125,-1
 681 156 l 2,126,127
 679 144 679 144 688 126 c 1,128,129
 697 112 697 112 716 112 c 2,130,-1
 830 112 l 2,131,132
 853 112 853 112 876 128 c 1,133,134
 898 149 898 149 902 163 c 2,135,-1
 923 258 l 1,136,137
 925 274 925 274 914 282 c 128,-1,138
 903 290 903 290 888 290 c 2,139,-1
 844 290 l 1,140,-1
 867 404 l 1,141,-1
 977 404 l 2,142,143
 1005 404 1005 404 1021 398.5 c 128,-1,144
 1037 393 1037 393 1051 375 c 1,145,146
 1069 356 1069 356 1069 326 c 0,147,148
 1069 319 1069 319 1067 303 c 1,149,-1
 1029 127 l 2,47,48
EndSplineSet
EndChar

StartChar: ka.base
Encoding: 126 -1 126
Width: 554
Flags: W
AnchorPoint: "s" 278 -62 basechar 0
LayerCount: 2
Fore
SplineSet
845 385 m 1,0,-1
 662 385 l 1,1,2
 680 371 680 371 695 353.5 c 128,-1,3
 710 336 710 336 719 320 c 1,4,5
 740 288 740 288 740 255 c 0,6,7
 740 241 740 241 739 236 c 2,8,-1
 718 136 l 1,9,10
 709 83 709 83 660 46 c 1,11,12
 638 28 638 28 616.5 18 c 128,-1,13
 595 8 595 8 572 8 c 2,14,-1
 302 7 l 2,15,16
 252 7 252 7 227 36 c 1,17,18
 206 57 206 57 206 86 c 0,19,20
 206 91 206 91 208 107 c 1,21,-1
 233 226 l 1,22,23
 245 290 245 290 380 388 c 1,24,-1
 179 388 l 1,25,-1
 204 501 l 1,26,-1
 475 501 l 1,27,-1
 490 572 l 1,28,-1
 219 572 l 1,29,-1
 242 685 l 1,30,-1
 737 685 l 1,31,-1
 714 572 l 1,32,-1
 626 572 l 1,33,-1
 611 501 l 1,34,-1
 870 501 l 1,35,-1
 845 385 l 1,0,-1
589 163 m 2,36,-1
 601 223 l 2,37,38
 603 234 603 234 603 239 c 0,39,40
 603 262 603 262 585.5 286.5 c 128,-1,41
 568 311 568 311 552 326 c 128,-1,42
 536 341 536 341 513 355 c 1,43,44
 379 292 379 292 367 229 c 1,45,-1
 352 158 l 2,46,47
 350 146 350 146 357 130 c 1,48,49
 368 122 368 122 387 122 c 1,50,-1
 386 118 l 1,51,-1
 555 118 l 2,52,53
 562 118 562 118 574 127 c 1,54,55
 585 142 585 142 589 163 c 2,36,-1
EndSplineSet
EndChar

StartChar: ka.imathra
Encoding: 127 -1 127
Width: 651
Flags: W
AnchorPoint: "s" 270 -80 basechar 0
LayerCount: 2
Fore
SplineSet
778 386 m 1,0,-1
 643 386 l 1,1,2
 661 371 661 371 679 352 c 0,3,4
 693 337 693 337 708 315 c 1,5,6
 729 278 729 278 729 244 c 0,7,8
 729 236 729 236 727 222 c 2,9,-1
 704 108 l 2,10,11
 700 90 700 90 687 70.5 c 128,-1,12
 674 51 674 51 658 36 c 1,13,14
 619 6 619 6 572 6 c 2,15,-1
 299 7 l 2,16,17
 271 7 271 7 253 13.5 c 128,-1,18
 235 20 235 20 219 35 c 1,19,20
 197 58 197 58 197 90 c 0,21,22
 197 101 197 101 198 106 c 2,23,-1
 224 236 l 1,24,25
 231 262 231 262 267 295 c 0,26,27
 278 304 278 304 311 330 c 0,28,29
 365 372 365 372 383 386 c 1,30,-1
 228 386 l 1,31,-1
 251 500 l 1,32,-1
 512 500 l 1,33,-1
 615 597 l 1,34,-1
 644 737 l 2,35,36
 645 741 645 741 644 742 c 128,-1,37
 643 743 643 743 642 744 c 1,38,-1
 582 744 l 1,39,-1
 571 697 l 1,40,-1
 573 690 l 1,41,-1
 585 685 l 1,42,-1
 610 685 l 1,43,-1
 587 572 l 1,44,-1
 520 572 l 2,45,46
 478 572 478 572 446 600 c 1,47,48
 427 619 427 619 427 645 c 0,49,50
 427 656 427 656 428 661 c 2,51,-1
 469 857 l 1,52,-1
 694 857 l 2,53,54
 741 857 741 857 766 829 c 1,55,56
 785 811 785 811 785 781 c 0,57,58
 785 765 785 765 783 757 c 2,59,-1
 744 575 l 1,60,-1
 663 500 l 1,61,-1
 801 500 l 1,62,-1
 778 386 l 1,0,-1
575 143 m 2,63,-1
 591 222 l 2,64,65
 598 257 598 257 499 350 c 1,66,67
 361 255 361 255 353 216 c 2,68,-1
 335 130 l 2,69,70
 334 123 334 123 341.5 117.5 c 128,-1,71
 349 112 349 112 357 112 c 2,72,-1
 548 112 l 2,73,74
 555 112 555 112 564 122 c 128,-1,75
 573 132 573 132 575 143 c 2,63,-1
EndSplineSet
LCarets2: 1 0
EndChar

StartChar: ka.sub
Encoding: 128 -1 128
Width: 172
Flags: W
AnchorPoint: "Sub" -182 290 mark 0
AnchorPoint: "Sub" 240 -414 basemark 0
LayerCount: 2
Fore
SplineSet
326 -154 m 1,0,-1
 219 -154 l 1,1,2
 265 -197 265 -197 257 -234 c 2,3,-1
 241 -312 l 2,4,5
 233 -352 233 -352 190 -382 c 1,6,7
 141 -410 141 -410 95 -410 c 2,8,-1
 -77 -410 l 1,9,10
 -100 -408 -100 -408 -118 -400.5 c 128,-1,11
 -136 -393 -136 -393 -151 -377 c 1,12,13
 -179 -352 -179 -352 -179 -317 c 0,14,15
 -179 -313 -179 -313 -177 -299 c 2,16,-1
 -169 -255 l 1,17,18
 -155 -205 -155 -205 -85 -152 c 1,19,-1
 -208 -152 l 1,20,-1
 -187 -53 l 1,21,-1
 38 -53 l 1,22,-1
 117 14 l 2,23,24
 144 36 144 36 153 44 c 0,25,26
 168 56 168 56 175 64 c 0,27,28
 189 78 189 78 190 86 c 2,29,-1
 216 213 l 2,30,31
 221 239 221 239 158 265 c 1,32,-1
 257 333 l 1,33,34
 348 265 348 265 340 223 c 2,35,-1
 307 69 l 2,36,37
 306 60 306 60 296.5 47.5 c 128,-1,38
 287 35 287 35 272 20 c 1,39,-1
 175 -58 l 1,40,-1
 348 -58 l 1,41,-1
 326 -154 l 1,0,-1
127 -286 m 2,42,-1
 136 -239 l 2,43,44
 140 -221 140 -221 119 -195 c 1,45,46
 99 -174 99 -174 59 -159 c 1,47,48
 16 -171 16 -171 -12 -196.5 c 128,-1,49
 -40 -222 -40 -222 -45 -252 c 1,50,-1
 -53 -291 l 1,51,52
 -54 -302 -54 -302 -49 -310 c 1,53,54
 -37 -319 -37 -319 -19 -319 c 2,55,-1
 94 -319 l 2,56,57
 105 -319 105 -319 112 -310 c 1,58,59
 126 -296 126 -296 127 -286 c 2,42,-1
EndSplineSet
LCarets2: 1 0
EndChar

StartChar: ka_rvocalicmatra.sub
Encoding: 129 -1 129
Width: 341
Flags: W
LayerCount: 2
Fore
SplineSet
639 -268 m 2,0,1
 627 -328 627 -328 578 -368 c 1,2,3
 529 -411 529 -411 465 -411 c 2,4,-1
 68 -409 l 2,5,6
 17 -409 17 -409 -8.5 -379 c 128,-1,7
 -34 -349 -34 -349 -34 -320 c 0,8,9
 -34 -315 -34 -315 -32 -299 c 1,10,-1
 7 -112 l 1,11,-1
 128 -112 l 1,12,-1
 99 -90 l 1,13,14
 76 -67 76 -67 80 -44 c 2,15,-1
 99 49 l 2,16,17
 107 89 107 89 165 129 c 1,18,-1
 73 129 l 1,19,-1
 95 229 l 1,20,-1
 298 229 l 1,21,-1
 320 335 l 1,22,-1
 454 335 l 1,23,-1
 432 229 l 1,24,-1
 632 229 l 1,25,-1
 610 129 l 1,26,-1
 497 129 l 1,27,28
 508 124 508 124 519 109 c 128,-1,29
 530 94 530 94 534.5 79 c 128,-1,30
 539 64 539 64 537 51 c 2,31,-1
 525 -7 l 2,32,33
 514 -58 514 -58 467 -92 c 1,34,35
 420 -131 420 -131 364 -131 c 2,36,-1
 283 -131 l 1,37,-1
 267 -209 l 1,38,-1
 111 -209 l 1,39,-1
 96 -284 l 2,40,41
 94 -293 94 -293 102 -295 c 1,42,43
 116 -306 116 -306 127 -306 c 2,44,-1
 471 -306 l 2,45,46
 479 -306 479 -306 493 -287.5 c 128,-1,47
 507 -269 507 -269 512 -243 c 2,48,-1
 567 23 l 2,49,50
 569 34 569 34 561.5 42 c 128,-1,51
 554 50 554 50 529 62 c 1,52,-1
 638 143 l 1,53,54
 657 132 657 132 670 121 c 128,-1,55
 683 110 683 110 692 95 c 1,56,57
 704 70 704 70 704 47 c 0,58,59
 704 40 704 40 702 26 c 2,60,-1
 639 -268 l 2,0,1
404 8 m 1,61,-1
 413 52 l 2,62,63
 414 56 414 56 414 67 c 0,64,65
 414 85 414 85 405 99 c 1,66,67
 396 119 396 119 370 130 c 1,68,-1
 293 130 l 1,69,70
 265 116 265 116 245 95 c 128,-1,71
 225 74 225 74 224 56 c 1,72,-1
 209 -11 l 2,73,74
 207 -23 207 -23 214 -25 c 1,75,-1
 226 -33 l 1,76,-1
 380 -32 l 2,77,78
 387 -32 387 -32 394.5 -21 c 128,-1,79
 402 -10 402 -10 404 8 c 1,61,-1
EndSplineSet
EndChar

StartChar: kha
Encoding: 130 3222 130
Width: 981
Flags: W
LayerCount: 2
Fore
SplineSet
1043 113 m 2,0,1
 1034 69 1034 69 1004 34 c 1,2,3
 965 -2 965 -2 933 -2 c 2,4,-1
 780 -2 l 2,5,6
 740 -2 740 -2 697 34 c 1,7,-1
 633 81 l 1,8,9
 612 47 612 47 575 27 c 1,10,11
 553 13 553 13 530 6 c 128,-1,12
 507 -1 507 -1 482 -1 c 2,13,-1
 238 -1 l 1,14,15
 220 1 220 1 202.5 7 c 128,-1,16
 185 13 185 13 172 23 c 128,-1,17
 159 33 159 33 153.5 44 c 128,-1,18
 148 55 148 55 148 67 c 0,19,20
 148 78 148 78 149 83 c 2,21,-1
 177 214 l 2,22,23
 185 256 185 256 221 284 c 1,24,25
 258 309 258 309 298 309 c 2,26,-1
 505 309 l 2,27,28
 545 309 545 309 563 295 c 1,29,-1
 612 524 l 2,30,31
 613 529 613 529 613 534.5 c 128,-1,32
 613 540 613 540 613 541 c 0,33,34
 613 550 613 550 609 557 c 128,-1,35
 605 564 605 564 598 564 c 2,36,-1
 468 564 l 1,37,-1
 461 560 l 1,38,39
 454 551 454 551 450 532 c 2,40,-1
 428 422 l 1,41,-1
 291 422 l 1,42,-1
 321 571 l 2,43,44
 330 618 330 618 373 648 c 0,45,46
 392 662 392 662 417 669.5 c 128,-1,47
 442 677 442 677 468 677 c 2,48,-1
 647 677 l 2,49,50
 701 677 701 677 730 638 c 0,51,52
 752 610 752 610 752 571 c 0,53,54
 752 553 752 553 750 544 c 2,55,-1
 679 208 l 1,56,-1
 758 131 l 1,57,58
 781 106 781 106 816 106 c 2,59,-1
 881 106 l 2,60,61
 892 106 892 106 897 115 c 1,62,63
 908 127 908 127 912 148 c 2,64,-1
 994 533 l 1,65,66
 996 548 996 548 988 553 c 1,67,68
 980 561 980 561 962 561 c 2,69,-1
 829 561 l 1,70,-1
 852 673 l 1,71,-1
 1032 673 l 2,72,73
 1058 673 1058 673 1078 666 c 128,-1,74
 1098 659 1098 659 1112 641 c 1,75,76
 1137 613 1137 613 1137 583 c 0,77,78
 1137 576 1137 576 1135 560 c 1,79,-1
 1043 113 l 2,0,1
521 136 m 1,80,-1
 528 164 l 1,81,82
 510 192 510 192 457 192 c 2,83,-1
 329 192 l 2,84,85
 314 192 314 192 303 188 c 2,86,-1
 296 186 l 1,87,-1
 282 124 l 1,88,89
 284 116 284 116 288.5 112 c 128,-1,90
 293 108 293 108 304 108 c 2,91,-1
 477 108 l 2,92,93
 492 108 492 108 504 119 c 1,94,95
 516 127 516 127 521 136 c 1,80,-1
EndSplineSet
LCarets2: 1 0
EndChar

StartChar: kha.base
Encoding: 131 -1 131
Width: 812
Flags: W
LayerCount: 2
Fore
SplineSet
1045 113 m 1,0,1
 1036 66 1036 66 1002 32 c 128,-1,2
 968 -2 968 -2 932 -2 c 1,3,-1
 930 0 l 1,4,-1
 779 0 l 2,5,6
 740 0 740 0 697 36 c 1,7,-1
 639 75 l 1,8,9
 625 47 625 47 580 23.5 c 128,-1,10
 535 0 535 0 484 0 c 2,11,-1
 249 0 l 2,12,13
 200 0 200 0 172 23 c 0,14,15
 160 32 160 32 154.5 43 c 128,-1,16
 149 54 149 54 149 66 c 0,17,18
 149 77 149 77 150 82 c 2,19,-1
 178 213 l 2,20,21
 186 253 186 253 222 280 c 128,-1,22
 258 307 258 307 305 307 c 2,23,-1
 506 307 l 2,24,25
 546 307 546 307 564 293 c 1,26,-1
 615 536 l 2,27,28
 617 547 617 547 612 558 c 1,29,30
 607 563 607 563 598 563 c 2,31,-1
 484 563 l 2,32,33
 472 563 472 563 464 555.5 c 128,-1,34
 456 548 456 548 452 530 c 2,35,-1
 430 420 l 1,36,-1
 295 420 l 1,37,-1
 325 569 l 2,38,39
 334 616 334 616 375 646 c 128,-1,40
 416 676 416 676 472 676 c 2,41,-1
 652 676 l 2,42,43
 706 676 706 676 735 637 c 1,44,45
 757 611 757 611 757 575 c 0,46,47
 757 560 757 560 753 544 c 2,48,-1
 682 207 l 1,49,-1
 764 146 l 1,50,51
 799 107 799 107 821 107 c 2,52,-1
 902 107 l 2,53,54
 909 107 909 107 911 118 c 2,55,-1
 985 463 l 2,56,57
 987 477 987 477 987 484 c 0,58,59
 987 514 987 514 968 533 c 0,60,61
 940 562 940 562 896 562 c 2,62,-1
 836 562 l 1,63,-1
 859 674 l 1,64,-1
 986 674 l 1,65,66
 1039 667 1039 667 1074 637 c 1,67,68
 1090 621 1090 621 1101 603 c 128,-1,69
 1112 585 1112 585 1118 562 c 128,-1,70
 1124 539 1124 539 1124 506 c 0,71,72
 1124 485 1124 485 1120 464 c 2,73,-1
 1045 113 l 1,0,1
527 138 m 2,74,-1
 531 157 l 1,75,76
 496 193 496 193 443 193 c 2,77,-1
 319 193 l 2,78,79
 311 193 311 193 307 191 c 0,80,81
 305 191 305 191 304 187 c 2,82,-1
 290 125 l 1,83,84
 291 117 291 117 295.5 113 c 128,-1,85
 300 109 300 109 311 109 c 2,86,-1
 484 109 l 2,87,88
 496 109 496 109 510 118 c 128,-1,89
 524 127 524 127 527 138 c 2,74,-1
EndSplineSet
EndChar

StartChar: kha.imathra
Encoding: 132 -1 132
Width: 981
Flags: W
LayerCount: 2
Fore
SplineSet
1045 114 m 1,0,1
 1036 65 1036 65 1002 31 c 128,-1,2
 968 -3 968 -3 932 -3 c 1,3,-1
 930 -1 l 1,4,-1
 779 -1 l 2,5,6
 740 -1 740 -1 697 35 c 1,7,-1
 633 81 l 1,8,9
 611 48 611 48 579 26 c 1,10,11
 533 0 533 0 493 0 c 2,12,-1
 249 0 l 2,13,14
 200 0 200 0 172 23 c 0,15,16
 160 32 160 32 154.5 43 c 128,-1,17
 149 54 149 54 149 66 c 0,18,19
 149 77 149 77 150 82 c 2,20,-1
 178 215 l 2,21,22
 186 257 186 257 225 283 c 1,23,24
 257 309 257 309 307 309 c 2,25,-1
 508 309 l 2,26,27
 537 309 537 309 563 283 c 1,28,-1
 614 526 l 1,29,30
 616 545 616 545 608 556 c 1,31,32
 597 567 597 567 585 567 c 2,33,-1
 483 567 l 2,34,35
 475 567 475 567 464 560 c 1,36,37
 453 548 453 548 452 534 c 1,38,-1
 429 422 l 1,39,-1
 294 422 l 1,40,-1
 326 573 l 1,41,42
 334 622 334 622 377 650 c 1,43,44
 396 665 396 665 421 672.5 c 128,-1,45
 446 680 446 680 471 680 c 2,46,-1
 651 680 l 2,47,48
 705 680 705 680 734 641 c 0,49,50
 756 613 756 613 756 574 c 0,51,52
 756 567 756 567 754 545 c 1,53,-1
 683 210 l 1,54,-1
 748 146 l 1,55,56
 776 127 776 127 800.5 117.5 c 128,-1,57
 825 108 825 108 850 108 c 2,58,-1
 886 108 l 2,59,60
 895 108 895 108 904 115.5 c 128,-1,61
 913 123 913 123 914 132 c 2,62,-1
 1017 624 l 1,63,64
 1021 638 1021 638 1016.5 647.5 c 128,-1,65
 1012 657 1012 657 1003 657 c 2,66,-1
 967 657 l 2,67,68
 953 657 953 657 949 656 c 1,69,-1
 947 651 l 1,70,-1
 942 632 l 1,71,72
 942 613 942 613 944.5 609 c 128,-1,73
 947 605 947 605 949.5 603 c 128,-1,74
 952 601 952 601 954 601 c 2,75,-1
 1008 601 l 1,76,-1
 983 488 l 1,77,-1
 878 488 l 2,78,79
 836 488 836 488 813 520 c 1,80,81
 795 542 795 542 795 568 c 0,82,83
 795 575 795 575 797 591 c 1,84,-1
 816 683 l 2,85,86
 824 720 824 720 863 746 c 1,87,88
 905 771 905 771 954 771 c 2,89,-1
 1068 771 l 2,90,91
 1117 771 1117 771 1143 736 c 0,92,93
 1162 710 1162 710 1162 680 c 0,94,95
 1162 666 1162 666 1158 651 c 2,96,-1
 1045 114 l 1,0,1
526 138 m 2,97,-1
 530 153 l 1,98,99
 490 193 490 193 450 193 c 2,100,-1
 329 193 l 2,101,102
 313 193 313 193 308 191 c 1,103,-1
 304 187 l 1,104,-1
 293 133 l 1,105,-1
 293 115 l 1,106,-1
 298 108 l 1,107,-1
 485 108 l 2,108,109
 494 108 494 108 509 117.5 c 128,-1,110
 524 127 524 127 526 138 c 2,97,-1
EndSplineSet
LCarets2: 1 0
EndChar

StartChar: kha.sub
Encoding: 133 -1 133
Width: 163
Flags: W
AnchorPoint: "Sub" -310 185 mark 0
AnchorPoint: "Sub" 216 -373 basemark 0
LayerCount: 2
Fore
SplineSet
284 -232 m 1,0,1
 270 -290 270 -290 215 -336 c 128,-1,2
 160 -382 160 -382 97 -382 c 2,3,-1
 27 -382 l 2,4,5
 9 -382 9 -382 -48 -361 c 1,6,7
 -126 -408 -126 -408 -166 -408 c 2,8,-1
 -317 -408 l 2,9,10
 -357 -408 -357 -408 -385 -383 c 0,11,12
 -406 -364 -406 -364 -406 -341 c 0,13,14
 -406 -336 -406 -336 -404 -325 c 2,15,-1
 -392 -267 l 2,16,17
 -384 -227 -384 -227 -348 -199 c 0,18,19
 -330 -185 -330 -185 -311.5 -179 c 128,-1,20
 -293 -173 -293 -173 -270 -173 c 2,21,-1
 -156 -173 l 2,22,23
 -134 -173 -134 -173 -126 -180 c 2,24,-1
 -79 -215 l 1,25,-1
 -67 -154 l 2,26,27
 -63 -136 -63 -136 -72 -121 c 1,28,29
 -84 -109 -84 -109 -100 -109 c 1,30,-1
 -111 -160 l 1,31,-1
 -231 -160 l 1,32,-1
 -199 -14 l 1,33,-1
 -53 -14 l 2,34,35
 10 -14 10 -14 37 -54 c 1,36,37
 59 -84 59 -84 59 -126 c 0,38,39
 59 -144 59 -144 57 -153 c 2,40,-1
 29 -281 l 1,41,42
 37 -286 37 -286 42.5 -287 c 128,-1,43
 48 -288 48 -288 55 -288 c 2,44,-1
 112 -288 l 2,45,46
 126 -288 126 -288 135 -275 c 128,-1,47
 144 -262 144 -262 150 -251 c 128,-1,48
 156 -240 156 -240 158 -228 c 2,49,-1
 244 185 l 2,50,51
 246 197 246 197 233.5 208.5 c 128,-1,52
 221 220 221 220 195 220 c 2,53,-1
 128 220 l 1,54,-1
 150 324 l 1,55,-1
 227 324 l 2,56,57
 294 324 294 324 337 288 c 1,58,59
 370 255 370 255 370 215 c 0,60,61
 370 207 370 207 368 193 c 2,62,-1
 284 -232 l 1,0,1
-143 -306 m 1,63,64
 -178 -278 -178 -278 -213 -278 c 2,65,-1
 -275 -278 l 2,66,67
 -286 -278 -286 -278 -287 -280 c 2,68,-1
 -292 -312 l 1,69,-1
 -283 -314 l 1,70,-1
 -167 -314 l 1,71,-1
 -143 -306 l 1,63,64
EndSplineSet
LCarets2: 1 0
EndChar

StartChar: ga.base
Encoding: 135 -1 135
Width: 578
Flags: W
LayerCount: 2
Fore
SplineSet
788 0 m 1,0,-1
 654 0 l 1,1,-1
 756 482 l 2,2,3
 757 486 757 486 757 495 c 0,4,5
 757 510 757 510 750 524 c 0,6,7
 739 546 739 546 721.5 555 c 128,-1,8
 704 564 704 564 693.5 565 c 128,-1,9
 683 566 683 566 664 566 c 2,10,-1
 557 566 l 2,11,12
 511 566 511 566 477.5 541.5 c 128,-1,13
 444 517 444 517 436 480 c 2,14,-1
 334 -2 l 1,15,-1
 197 -2 l 1,16,-1
 300 486 l 2,17,18
 309 532 309 532 355 567 c 1,19,-1
 318 567 l 1,20,-1
 341 680 l 1,21,-1
 753 680 l 1,22,23
 828 664 828 664 868 608 c 1,24,25
 893 566 893 566 893 520 c 0,26,27
 893 502 893 502 889 481 c 2,28,-1
 788 0 l 1,0,-1
EndSplineSet
EndChar

StartChar: ga.imathra
Encoding: 136 -1 136
Width: 765
Flags: W
LayerCount: 2
Fore
SplineSet
803 0 m 1,0,-1
 668 0 l 1,1,-1
 771 487 l 2,2,3
 773 501 773 501 773 508 c 0,4,5
 773 533 773 533 759 553 c 128,-1,6
 745 573 745 573 712 573 c 2,7,-1
 526 573 l 2,8,9
 493 573 493 573 471 551 c 1,10,11
 445 529 445 529 438 493 c 2,12,-1
 333 1 l 1,13,-1
 196 1 l 1,14,-1
 299 488 l 2,15,16
 310 542 310 542 343 579 c 1,17,18
 365 609 365 609 400 630 c 1,19,20
 377 639 377 639 362 661 c 1,21,22
 348 676 348 676 348 702 c 0,23,24
 348 716 348 716 349 723 c 2,25,-1
 364 790 l 2,26,27
 372 830 372 830 412.5 857 c 128,-1,28
 453 884 453 884 502 884 c 2,29,-1
 693 884 l 2,30,31
 775 884 775 884 833 843 c 128,-1,32
 891 802 891 802 917 728 c 1,33,34
 929 684 929 684 929 640 c 0,35,36
 929 611 929 611 922 569 c 1,37,-1
 803 0 l 1,0,-1
795 664 m 1,38,39
 787 703 787 703 757 732 c 1,40,41
 710 771 710 771 636 771 c 2,42,-1
 536 771 l 2,43,44
 496 771 496 771 494 756 c 1,45,-1
 487 724 l 1,46,47
 485 705 485 705 487 698 c 0,48,49
 488 693 488 693 490 690.5 c 128,-1,50
 492 688 492 688 493 687 c 1,51,-1
 736 687 l 2,52,53
 776 687 776 687 795 664 c 1,38,39
EndSplineSet
LCarets2: 1 0
EndChar

StartChar: ga.sub
Encoding: 137 -1 137
Width: 99
Flags: W
AnchorPoint: "Sub" -222 -64 mark 0
AnchorPoint: "Sub" 118 -432 basemark 0
LayerCount: 2
Fore
SplineSet
128 -410 m 1,0,-1
 7 -410 l 1,1,-1
 53 -193 l 1,2,3
 54 -178 54 -178 43 -165.5 c 128,-1,4
 32 -153 32 -153 14 -153 c 2,5,-1
 -71 -153 l 2,6,7
 -93 -153 -93 -153 -108 -162 c 1,8,9
 -123 -177 -123 -177 -124 -192 c 1,10,-1
 -170 -409 l 1,11,-1
 -293 -409 l 1,12,-1
 -247 -192 l 2,13,14
 -235 -132 -235 -132 -184 -93 c 1,15,16
 -137 -54 -137 -54 -74 -54 c 2,17,-1
 49 -54 l 2,18,19
 112 -54 112 -54 151 -89 c 0,20,21
 180 -114 180 -114 180 -155 c 0,22,23
 180 -162 180 -162 178 -178 c 1,24,-1
 128 -410 l 1,0,-1
EndSplineSet
LCarets2: 1 0
EndChar

StartChar: gha.base
Encoding: 139 -1 139
Width: 1019
Flags: W
LayerCount: 2
Fore
SplineSet
1365 569 m 1,0,-1
 1055 569 l 1,1,2
 1066 554 1066 554 1070 534.5 c 128,-1,3
 1074 515 1074 515 1074 488 c 1,4,5
 1104 418 1104 418 1140 418 c 1,6,7
 1159 419 1159 419 1171 428 c 1,8,9
 1186 443 1186 443 1186 445 c 2,10,-1
 1208 548 l 1,11,-1
 1342 548 l 1,12,-1
 1323 459 l 2,13,14
 1318 436 1318 436 1307 411 c 0,15,16
 1303 403 1303 403 1291 382 c 1,17,18
 1266 346 1266 346 1234 325 c 1,19,20
 1197 304 1197 304 1168 304 c 2,21,-1
 1111 305 l 2,22,23
 1072 305 1072 305 1043 330 c 1,24,-1
 1001 141 l 1,25,26
 989 80 989 80 943 41 c 1,27,28
 899 -3 899 -3 846 -3 c 2,29,-1
 674 -3 l 2,30,31
 631 -3 631 -3 606 27 c 0,32,33
 604 29 604 29 593 43 c 128,-1,34
 582 57 582 57 578 72 c 1,35,36
 560 46 560 46 531 27 c 1,37,38
 496 -3 496 -3 456 -3 c 2,39,-1
 277 -2 l 2,40,41
 230 -2 230 -2 205 35 c 0,42,43
 190 58 190 58 190 91 c 0,44,45
 190 100 190 100 192 119 c 1,46,-1
 255 414 l 1,47,-1
 422 414 l 2,48,49
 483 414 483 414 512 378 c 1,50,51
 538 350 538 350 538 311 c 0,52,53
 538 302 538 302 536 286 c 1,54,-1
 528 250 l 1,55,-1
 391 250 l 1,56,-1
 398 280 l 1,57,58
 399 289 399 289 395 295 c 128,-1,59
 391 301 391 301 377 301 c 2,60,-1
 366 301 l 1,61,-1
 334 148 l 2,62,63
 330 133 330 133 335 121 c 1,64,65
 347 109 347 109 351 109 c 2,66,-1
 465 109 l 2,67,68
 484 109 484 109 503 135 c 1,69,70
 528 164 528 164 536 201 c 2,71,-1
 552 280 l 1,72,-1
 687 280 l 1,73,-1
 671 201 l 2,74,75
 670 194 670 194 670 180 c 0,76,77
 670 161 670 161 678 140 c 1,78,79
 694 108 694 108 710 108 c 2,80,-1
 824 108 l 2,81,82
 832 108 832 108 846.5 118.5 c 128,-1,83
 861 129 861 129 865 148 c 2,84,-1
 932 467 l 2,85,86
 933 472 933 472 933 483 c 0,87,88
 933 513 933 513 910 536 c 0,89,90
 881 565 881 565 830 565 c 2,91,-1
 282 565 l 1,92,-1
 305 678 l 1,93,-1
 1388 678 l 1,94,-1
 1365 569 l 1,0,-1
709 392 m 1,95,-1
 574 392 l 1,96,-1
 600 519 l 1,97,-1
 735 519 l 1,98,-1
 709 392 l 1,95,-1
594 -147 m 1,99,-1
 459 -147 l 1,100,-1
 492 6 l 1,101,-1
 627 6 l 1,102,-1
 594 -147 l 1,99,-1
EndSplineSet
EndChar

